999
DXF from OpenSCAD
  0
SECTION
  2
HEADER
  9
$ACADVER
  1
AC1006
  9
$INSBASE
 10
0.0
 20
0.0
 30
0.0
  9
$EXTMIN
 10
-66.625
 20
-66.625
  9
$EXTMAX
 10
66.625
 20
66.625
  9
$LINMIN
 10
-66.625
 20
-66.625
  9
$LINMAX
 10
66.625
 20
66.625
  0
ENDSEC
  0
SECTION
  2
TABLES
  0
TABLE
  2
LTYPE
 70
1
  0
LTYPE
  2
CONTINUOUS
 70
64
  3
Solid line
 72
65
 73
0
 40
0.000000
  0
ENDTAB
  0
TABLE
  2
LAYER
 70
6
  0
LAYER
  2
0
 70
64
 62
7
  6
CONTINUOUS
  0
ENDTAB
  0
TABLE
  2
STYLE
 70
0
  0
ENDTAB
  0
ENDSEC
  0
SECTION
  2
BLOCKS
  0
ENDSEC
  0
SECTION
  2
ENTITIES
  0
LWPOLYLINE
100
AcDbEntity
  8
0
100
AcDbPolyline
 90
640
 70
1
 10
0.212688
 20
-66.6222
 10
0.42523
 20
-66.6139
 10
0.63748
 20
-66.6
 10
0.849294
 20
-66.5805
 10
1.06053
 20
-66.5555
 10
1.27103
 20
-66.525
 10
1.48066
 20
-66.4889
 10
1.68928
 20
-66.4474
 10
1.89674
 20
-66.4005
 10
2.1029
 20
-66.3481
 10
2.30762
 20
-66.2904
 10
2.51076
 20
-66.2273
 10
2.71218
 20
-66.159
 10
2.91174
 20
-66.0853
 10
3.1093
 20
-66.0065
 10
3.30474
 20
-65.9226
 10
3.4979
 20
-65.8335
 10
3.68867
 20
-65.7394
 10
3.87691
 20
-65.6404
 10
4.0625
 20
-65.5365
 10
4.2453
 20
-65.4277
 10
4.42519
 20
-65.3142
 10
4.60205
 20
-65.196
 10
4.77576
 20
-65.0733
 10
4.94619
 20
-64.946
 10
5.11323
 20
-64.8143
 10
5.27677
 20
-64.6783
 10
5.43669
 20
-64.5381
 10
5.59288
 20
-64.3937
 10
5.74524
 20
-64.2452
 10
5.89367
 20
-64.0929
 10
6.03805
 20
-63.9367
 10
6.1783
 20
-63.7768
 10
6.31431
 20
-63.6132
 10
6.446
 20
-63.4462
 10
6.57326
 20
-63.2758
 10
6.69603
 20
-63.1021
 10
6.8142
 20
-62.9252
 10
6.9277
 20
-62.7453
 10
7.03646
 20
-62.5625
 10
7.14039
 20
-62.3769
 10
7.23943
 20
-62.1887
 10
7.33351
 20
-61.9979
 10
7.42256
 20
-61.8047
 10
7.50652
 20
-61.6093
 10
7.58534
 20
-61.4117
 10
7.65896
 20
-61.2122
 10
7.72733
 20
-61.0108
 10
7.79041
 20
-60.8076
 10
7.84815
 20
-60.6029
 10
7.90051
 20
-60.3967
 10
7.94745
 20
-60.1893
 10
7.98895
 20
-59.9807
 10
8.02497
 20
-59.771
 10
8.03382
 20
-59.71
 10
9.42518
 20
-59.5082
 10
10.9797
 20
-59.2411
 10
12.5267
 20
-58.9334
 10
14.0651
 20
-58.5853
 10
15.5938
 20
-58.197
 10
17.1119
 20
-57.7689
 10
18.6183
 20
-57.3012
 10
20.1119
 20
-56.7941
 10
21.5917
 20
-56.2482
 10
23.0567
 20
-55.6637
 10
24.5059
 20
-55.0411
 10
25.9383
 20
-54.3808
 10
27.3529
 20
-53.6831
 10
28.7488
 20
-52.9487
 10
30.125
 20
-52.178
 10
31.4805
 20
-51.3716
 10
32.8145
 20
-50.5299
 10
34.126
 20
-49.6536
 10
35.4141
 20
-48.7433
 10
36.6779
 20
-47.7995
 10
37.9166
 20
-46.823
 10
39.1292
 20
-45.8145
 10
40.3151
 20
-44.7745
 10
41.4734
 20
-43.7038
 10
42.6032
 20
-42.6032
 10
43.7038
 20
-41.4734
 10
44.7745
 20
-40.3151
 10
45.8145
 20
-39.1292
 10
46.823
 20
-37.9166
 10
47.7995
 20
-36.6779
 10
48.7433
 20
-35.4141
 10
49.6536
 20
-34.126
 10
50.5299
 20
-32.8145
 10
51.3716
 20
-31.4805
 10
52.178
 20
-30.125
 10
52.9487
 20
-28.7488
 10
53.6831
 20
-27.3529
 10
54.3808
 20
-25.9383
 10
55.0411
 20
-24.5059
 10
55.6637
 20
-23.0567
 10
56.2482
 20
-21.5917
 10
56.7941
 20
-20.1119
 10
57.3012
 20
-18.6183
 10
57.7689
 20
-17.1119
 10
58.197
 20
-15.5938
 10
58.5853
 20
-14.0651
 10
58.9334
 20
-12.5267
 10
59.2411
 20
-10.9797
 10
59.5082
 20
-9.42518
 10
59.71
 20
-8.03382
 10
59.771
 20
-8.02497
 10
59.9807
 20
-7.98895
 10
60.1893
 20
-7.94745
 10
60.3967
 20
-7.90051
 10
60.6029
 20
-7.84815
 10
60.8076
 20
-7.79041
 10
61.0108
 20
-7.72733
 10
61.2122
 20
-7.65896
 10
61.4117
 20
-7.58534
 10
61.6093
 20
-7.50652
 10
61.8047
 20
-7.42256
 10
61.9979
 20
-7.33351
 10
62.1887
 20
-7.23943
 10
62.3769
 20
-7.14039
 10
62.5625
 20
-7.03646
 10
62.7453
 20
-6.9277
 10
62.9252
 20
-6.8142
 10
63.1021
 20
-6.69603
 10
63.2758
 20
-6.57326
 10
63.4462
 20
-6.446
 10
63.6132
 20
-6.31431
 10
63.7768
 20
-6.1783
 10
63.9367
 20
-6.03805
 10
64.0929
 20
-5.89367
 10
64.2452
 20
-5.74524
 10
64.3937
 20
-5.59288
 10
64.5381
 20
-5.43669
 10
64.6783
 20
-5.27677
 10
64.8143
 20
-5.11323
 10
64.946
 20
-4.94619
 10
65.0733
 20
-4.77576
 10
65.196
 20
-4.60205
 10
65.3142
 20
-4.42519
 10
65.4277
 20
-4.2453
 10
65.5365
 20
-4.0625
 10
65.6404
 20
-3.87691
 10
65.7394
 20
-3.68867
 10
65.8335
 20
-3.4979
 10
65.9226
 20
-3.30474
 10
66.0065
 20
-3.1093
 10
66.0853
 20
-2.91174
 10
66.159
 20
-2.71218
 10
66.2273
 20
-2.51076
 10
66.2904
 20
-2.30762
 10
66.3481
 20
-2.1029
 10
66.4005
 20
-1.89674
 10
66.4474
 20
-1.68928
 10
66.4889
 20
-1.48066
 10
66.525
 20
-1.27103
 10
66.5555
 20
-1.06053
 10
66.5805
 20
-0.849294
 10
66.6
 20
-0.63748
 10
66.6139
 20
-0.42523
 10
66.6222
 20
-0.212688
 10
66.625
 20
0
 10
66.6222
 20
0.212688
 10
66.6139
 20
0.42523
 10
66.6
 20
0.63748
 10
66.5805
 20
0.849294
 10
66.5555
 20
1.06053
 10
66.525
 20
1.27103
 10
66.4889
 20
1.48066
 10
66.4474
 20
1.68928
 10
66.4005
 20
1.89674
 10
66.3481
 20
2.1029
 10
66.2904
 20
2.30762
 10
66.2273
 20
2.51076
 10
66.159
 20
2.71218
 10
66.0853
 20
2.91174
 10
66.0065
 20
3.1093
 10
65.9226
 20
3.30474
 10
65.8335
 20
3.4979
 10
65.7394
 20
3.68867
 10
65.6404
 20
3.87691
 10
65.5365
 20
4.0625
 10
65.4277
 20
4.2453
 10
65.3142
 20
4.42519
 10
65.196
 20
4.60205
 10
65.0733
 20
4.77576
 10
64.946
 20
4.94619
 10
64.8143
 20
5.11323
 10
64.6783
 20
5.27677
 10
64.5381
 20
5.43669
 10
64.3937
 20
5.59288
 10
64.2452
 20
5.74524
 10
64.0929
 20
5.89367
 10
63.9367
 20
6.03805
 10
63.7768
 20
6.1783
 10
63.6132
 20
6.31431
 10
63.4462
 20
6.446
 10
63.2758
 20
6.57326
 10
63.1021
 20
6.69603
 10
62.9252
 20
6.8142
 10
62.7453
 20
6.9277
 10
62.5625
 20
7.03646
 10
62.3769
 20
7.14039
 10
62.1887
 20
7.23943
 10
61.9979
 20
7.33351
 10
61.8047
 20
7.42256
 10
61.6093
 20
7.50652
 10
61.4117
 20
7.58534
 10
61.2122
 20
7.65896
 10
61.0108
 20
7.72733
 10
60.8076
 20
7.79041
 10
60.6029
 20
7.84815
 10
60.3967
 20
7.90051
 10
60.1893
 20
7.94745
 10
59.9807
 20
7.98895
 10
59.771
 20
8.02497
 10
59.71
 20
8.03382
 10
59.5082
 20
9.42518
 10
59.2411
 20
10.9797
 10
58.9334
 20
12.5267
 10
58.5853
 20
14.0651
 10
58.197
 20
15.5938
 10
57.7689
 20
17.1119
 10
57.3012
 20
18.6183
 10
56.7941
 20
20.1119
 10
56.2482
 20
21.5917
 10
55.6637
 20
23.0567
 10
55.0411
 20
24.5059
 10
54.3808
 20
25.9383
 10
53.6831
 20
27.3529
 10
52.9487
 20
28.7488
 10
52.178
 20
30.125
 10
51.3716
 20
31.4805
 10
50.5299
 20
32.8145
 10
49.6536
 20
34.126
 10
48.7433
 20
35.4141
 10
47.7995
 20
36.6779
 10
46.823
 20
37.9166
 10
45.8145
 20
39.1292
 10
44.7745
 20
40.3151
 10
43.7038
 20
41.4734
 10
42.6032
 20
42.6032
 10
41.4734
 20
43.7038
 10
40.3151
 20
44.7745
 10
39.1292
 20
45.8145
 10
37.9166
 20
46.823
 10
36.6779
 20
47.7995
 10
35.4141
 20
48.7433
 10
34.126
 20
49.6536
 10
32.8145
 20
50.5299
 10
31.4805
 20
51.3716
 10
30.125
 20
52.178
 10
28.7488
 20
52.9487
 10
27.3529
 20
53.6831
 10
25.9383
 20
54.3808
 10
24.5059
 20
55.0411
 10
23.0567
 20
55.6637
 10
21.5917
 20
56.2482
 10
20.1119
 20
56.7941
 10
18.6183
 20
57.3012
 10
17.1119
 20
57.7689
 10
15.5938
 20
58.197
 10
14.0651
 20
58.5853
 10
12.5267
 20
58.9334
 10
10.9797
 20
59.2411
 10
9.42518
 20
59.5082
 10
8.03382
 20
59.71
 10
8.02497
 20
59.771
 10
7.98895
 20
59.9807
 10
7.94745
 20
60.1893
 10
7.90051
 20
60.3967
 10
7.84815
 20
60.6029
 10
7.79041
 20
60.8076
 10
7.72733
 20
61.0108
 10
7.65896
 20
61.2122
 10
7.58534
 20
61.4117
 10
7.50652
 20
61.6093
 10
7.42256
 20
61.8047
 10
7.33351
 20
61.9979
 10
7.23943
 20
62.1887
 10
7.14039
 20
62.3769
 10
7.03646
 20
62.5625
 10
6.9277
 20
62.7453
 10
6.8142
 20
62.9252
 10
6.69603
 20
63.1021
 10
6.57326
 20
63.2758
 10
6.446
 20
63.4462
 10
6.31431
 20
63.6132
 10
6.1783
 20
63.7768
 10
6.03805
 20
63.9367
 10
5.89367
 20
64.0929
 10
5.74524
 20
64.2452
 10
5.59288
 20
64.3937
 10
5.43669
 20
64.5381
 10
5.27677
 20
64.6783
 10
5.11323
 20
64.8143
 10
4.94619
 20
64.946
 10
4.77576
 20
65.0733
 10
4.60205
 20
65.196
 10
4.42519
 20
65.3142
 10
4.2453
 20
65.4277
 10
4.0625
 20
65.5365
 10
3.87691
 20
65.6404
 10
3.68867
 20
65.7394
 10
3.4979
 20
65.8335
 10
3.30474
 20
65.9226
 10
3.1093
 20
66.0065
 10
2.91174
 20
66.0853
 10
2.71218
 20
66.159
 10
2.51076
 20
66.2273
 10
2.30762
 20
66.2904
 10
2.1029
 20
66.3481
 10
1.89674
 20
66.4005
 10
1.68928
 20
66.4474
 10
1.48066
 20
66.4889
 10
1.27103
 20
66.525
 10
1.06053
 20
66.5555
 10
0.849294
 20
66.5805
 10
0.63748
 20
66.6
 10
0.42523
 20
66.6139
 10
0.212688
 20
66.6222
 10
0
 20
66.625
 10
-0.212688
 20
66.6222
 10
-0.42523
 20
66.6139
 10
-0.63748
 20
66.6
 10
-0.849294
 20
66.5805
 10
-1.06053
 20
66.5555
 10
-1.27103
 20
66.525
 10
-1.48066
 20
66.4889
 10
-1.68928
 20
66.4474
 10
-1.89674
 20
66.4005
 10
-2.1029
 20
66.3481
 10
-2.30762
 20
66.2904
 10
-2.51076
 20
66.2273
 10
-2.71218
 20
66.159
 10
-2.91174
 20
66.0853
 10
-3.1093
 20
66.0065
 10
-3.30474
 20
65.9226
 10
-3.4979
 20
65.8335
 10
-3.68867
 20
65.7394
 10
-3.87691
 20
65.6404
 10
-4.0625
 20
65.5365
 10
-4.2453
 20
65.4277
 10
-4.42519
 20
65.3142
 10
-4.60205
 20
65.196
 10
-4.77576
 20
65.0733
 10
-4.94619
 20
64.946
 10
-5.11323
 20
64.8143
 10
-5.27677
 20
64.6783
 10
-5.43669
 20
64.5381
 10
-5.59288
 20
64.3937
 10
-5.74524
 20
64.2452
 10
-5.89367
 20
64.0929
 10
-6.03805
 20
63.9367
 10
-6.1783
 20
63.7768
 10
-6.31431
 20
63.6132
 10
-6.446
 20
63.4462
 10
-6.57326
 20
63.2758
 10
-6.69603
 20
63.1021
 10
-6.8142
 20
62.9252
 10
-6.9277
 20
62.7453
 10
-7.03646
 20
62.5625
 10
-7.14039
 20
62.3769
 10
-7.23943
 20
62.1887
 10
-7.33351
 20
61.9979
 10
-7.42256
 20
61.8047
 10
-7.50652
 20
61.6093
 10
-7.58534
 20
61.4117
 10
-7.65896
 20
61.2122
 10
-7.72733
 20
61.0108
 10
-7.79041
 20
60.8076
 10
-7.84815
 20
60.6029
 10
-7.90051
 20
60.3967
 10
-7.94745
 20
60.1893
 10
-7.98895
 20
59.9807
 10
-8.02497
 20
59.771
 10
-8.03382
 20
59.71
 10
-9.42518
 20
59.5082
 10
-10.9797
 20
59.2411
 10
-12.5267
 20
58.9334
 10
-14.0651
 20
58.5853
 10
-15.5938
 20
58.197
 10
-17.1119
 20
57.7689
 10
-18.6183
 20
57.3012
 10
-20.1119
 20
56.7941
 10
-21.5917
 20
56.2482
 10
-23.0567
 20
55.6637
 10
-24.5059
 20
55.0411
 10
-25.9383
 20
54.3808
 10
-27.3529
 20
53.6831
 10
-28.7488
 20
52.9487
 10
-30.125
 20
52.178
 10
-31.4805
 20
51.3716
 10
-32.8145
 20
50.5299
 10
-34.126
 20
49.6536
 10
-35.4141
 20
48.7433
 10
-36.6779
 20
47.7995
 10
-37.9166
 20
46.823
 10
-39.1292
 20
45.8145
 10
-40.3151
 20
44.7745
 10
-41.4734
 20
43.7038
 10
-42.6032
 20
42.6032
 10
-43.7038
 20
41.4734
 10
-44.7745
 20
40.3151
 10
-45.8145
 20
39.1292
 10
-46.823
 20
37.9166
 10
-47.7995
 20
36.6779
 10
-48.7433
 20
35.4141
 10
-49.6536
 20
34.126
 10
-50.5299
 20
32.8145
 10
-51.3716
 20
31.4805
 10
-52.178
 20
30.125
 10
-52.9487
 20
28.7488
 10
-53.6831
 20
27.3529
 10
-54.3808
 20
25.9383
 10
-55.0411
 20
24.5059
 10
-55.6637
 20
23.0567
 10
-56.2482
 20
21.5917
 10
-56.7941
 20
20.1119
 10
-57.3012
 20
18.6183
 10
-57.7689
 20
17.1119
 10
-58.197
 20
15.5938
 10
-58.5853
 20
14.0651
 10
-58.9334
 20
12.5267
 10
-59.2411
 20
10.9797
 10
-59.5082
 20
9.42518
 10
-59.71
 20
8.03382
 10
-59.771
 20
8.02497
 10
-59.9807
 20
7.98895
 10
-60.1893
 20
7.94745
 10
-60.3967
 20
7.90051
 10
-60.6029
 20
7.84815
 10
-60.8076
 20
7.79041
 10
-61.0108
 20
7.72733
 10
-61.2122
 20
7.65896
 10
-61.4117
 20
7.58534
 10
-61.6093
 20
7.50652
 10
-61.8047
 20
7.42256
 10
-61.9979
 20
7.33351
 10
-62.1887
 20
7.23943
 10
-62.3769
 20
7.14039
 10
-62.5625
 20
7.03646
 10
-62.7453
 20
6.9277
 10
-62.9252
 20
6.8142
 10
-63.1021
 20
6.69603
 10
-63.2758
 20
6.57326
 10
-63.4462
 20
6.446
 10
-63.6132
 20
6.31431
 10
-63.7768
 20
6.1783
 10
-63.9367
 20
6.03805
 10
-64.0929
 20
5.89367
 10
-64.2452
 20
5.74524
 10
-64.3937
 20
5.59288
 10
-64.5381
 20
5.43669
 10
-64.6783
 20
5.27677
 10
-64.8143
 20
5.11323
 10
-64.946
 20
4.94619
 10
-65.0733
 20
4.77576
 10
-65.196
 20
4.60205
 10
-65.3142
 20
4.42519
 10
-65.4277
 20
4.2453
 10
-65.5365
 20
4.0625
 10
-65.6404
 20
3.87691
 10
-65.7394
 20
3.68867
 10
-65.8335
 20
3.4979
 10
-65.9226
 20
3.30474
 10
-66.0065
 20
3.1093
 10
-66.0853
 20
2.91174
 10
-66.159
 20
2.71218
 10
-66.2273
 20
2.51076
 10
-66.2904
 20
2.30762
 10
-66.3481
 20
2.1029
 10
-66.4005
 20
1.89674
 10
-66.4474
 20
1.68928
 10
-66.4889
 20
1.48066
 10
-66.525
 20
1.27103
 10
-66.5555
 20
1.06053
 10
-66.5805
 20
0.849294
 10
-66.6
 20
0.63748
 10
-66.6139
 20
0.42523
 10
-66.6222
 20
0.212688
 10
-66.625
 20
0
 10
-66.6222
 20
-0.212688
 10
-66.6139
 20
-0.42523
 10
-66.6
 20
-0.63748
 10
-66.5805
 20
-0.849294
 10
-66.5555
 20
-1.06053
 10
-66.525
 20
-1.27103
 10
-66.4889
 20
-1.48066
 10
-66.4474
 20
-1.68928
 10
-66.4005
 20
-1.89674
 10
-66.3481
 20
-2.1029
 10
-66.2904
 20
-2.30762
 10
-66.2273
 20
-2.51076
 10
-66.159
 20
-2.71218
 10
-66.0853
 20
-2.91174
 10
-66.0065
 20
-3.1093
 10
-65.9226
 20
-3.30474
 10
-65.8335
 20
-3.4979
 10
-65.7394
 20
-3.68867
 10
-65.6404
 20
-3.87691
 10
-65.5365
 20
-4.0625
 10
-65.4277
 20
-4.2453
 10
-65.3142
 20
-4.42519
 10
-65.196
 20
-4.60205
 10
-65.0733
 20
-4.77576
 10
-64.946
 20
-4.94619
 10
-64.8143
 20
-5.11323
 10
-64.6783
 20
-5.27677
 10
-64.5381
 20
-5.43669
 10
-64.3937
 20
-5.59288
 10
-64.2452
 20
-5.74524
 10
-64.0929
 20
-5.89367
 10
-63.9367
 20
-6.03805
 10
-63.7768
 20
-6.1783
 10
-63.6132
 20
-6.31431
 10
-63.4462
 20
-6.446
 10
-63.2758
 20
-6.57326
 10
-63.1021
 20
-6.69603
 10
-62.9252
 20
-6.8142
 10
-62.7453
 20
-6.9277
 10
-62.5625
 20
-7.03646
 10
-62.3769
 20
-7.14039
 10
-62.1887
 20
-7.23943
 10
-61.9979
 20
-7.33351
 10
-61.8047
 20
-7.42256
 10
-61.6093
 20
-7.50652
 10
-61.4117
 20
-7.58534
 10
-61.2122
 20
-7.65896
 10
-61.0108
 20
-7.72733
 10
-60.8076
 20
-7.79041
 10
-60.6029
 20
-7.84815
 10
-60.3967
 20
-7.90051
 10
-60.1893
 20
-7.94745
 10
-59.9807
 20
-7.98895
 10
-59.771
 20
-8.02497
 10
-59.71
 20
-8.03382
 10
-59.5082
 20
-9.42518
 10
-59.2411
 20
-10.9797
 10
-58.9334
 20
-12.5267
 10
-58.5853
 20
-14.0651
 10
-58.197
 20
-15.5938
 10
-57.7689
 20
-17.1119
 10
-57.3012
 20
-18.6183
 10
-56.7941
 20
-20.1119
 10
-56.2482
 20
-21.5917
 10
-55.6637
 20
-23.0567
 10
-55.0411
 20
-24.5059
 10
-54.3808
 20
-25.9383
 10
-53.6831
 20
-27.3529
 10
-52.9487
 20
-28.7488
 10
-52.178
 20
-30.125
 10
-51.3716
 20
-31.4805
 10
-50.5299
 20
-32.8145
 10
-49.6536
 20
-34.126
 10
-48.7433
 20
-35.4141
 10
-47.7995
 20
-36.6779
 10
-46.823
 20
-37.9166
 10
-45.8145
 20
-39.1292
 10
-44.7745
 20
-40.3151
 10
-43.7038
 20
-41.4734
 10
-42.6032
 20
-42.6032
 10
-41.4734
 20
-43.7038
 10
-40.3151
 20
-44.7745
 10
-39.1292
 20
-45.8145
 10
-37.9166
 20
-46.823
 10
-36.6779
 20
-47.7995
 10
-35.4141
 20
-48.7433
 10
-34.126
 20
-49.6536
 10
-32.8145
 20
-50.5299
 10
-31.4805
 20
-51.3716
 10
-30.125
 20
-52.178
 10
-28.7488
 20
-52.9487
 10
-27.3529
 20
-53.6831
 10
-25.9383
 20
-54.3808
 10
-24.5059
 20
-55.0411
 10
-23.0567
 20
-55.6637
 10
-21.5917
 20
-56.2482
 10
-20.1119
 20
-56.7941
 10
-18.6183
 20
-57.3012
 10
-17.1119
 20
-57.7689
 10
-15.5938
 20
-58.197
 10
-14.0651
 20
-58.5853
 10
-12.5267
 20
-58.9334
 10
-10.9797
 20
-59.2411
 10
-9.42518
 20
-59.5082
 10
-8.03382
 20
-59.71
 10
-8.02497
 20
-59.771
 10
-7.98895
 20
-59.9807
 10
-7.94745
 20
-60.1893
 10
-7.90051
 20
-60.3967
 10
-7.84815
 20
-60.6029
 10
-7.79041
 20
-60.8076
 10
-7.72733
 20
-61.0108
 10
-7.65896
 20
-61.2122
 10
-7.58534
 20
-61.4117
 10
-7.50652
 20
-61.6093
 10
-7.42256
 20
-61.8047
 10
-7.33351
 20
-61.9979
 10
-7.23943
 20
-62.1887
 10
-7.14039
 20
-62.3769
 10
-7.03646
 20
-62.5625
 10
-6.9277
 20
-62.7453
 10
-6.8142
 20
-62.9252
 10
-6.69603
 20
-63.1021
 10
-6.57326
 20
-63.2758
 10
-6.446
 20
-63.4462
 10
-6.31431
 20
-63.6132
 10
-6.1783
 20
-63.7768
 10
-6.03805
 20
-63.9367
 10
-5.89367
 20
-64.0929
 10
-5.74524
 20
-64.2452
 10
-5.59288
 20
-64.3937
 10
-5.43669
 20
-64.5381
 10
-5.27677
 20
-64.6783
 10
-5.11323
 20
-64.8143
 10
-4.94619
 20
-64.946
 10
-4.77576
 20
-65.0733
 10
-4.60205
 20
-65.196
 10
-4.42519
 20
-65.3142
 10
-4.2453
 20
-65.4277
 10
-4.0625
 20
-65.5365
 10
-3.87691
 20
-65.6404
 10
-3.68867
 20
-65.7394
 10
-3.4979
 20
-65.8335
 10
-3.30474
 20
-65.9226
 10
-3.1093
 20
-66.0065
 10
-2.91174
 20
-66.0853
 10
-2.71218
 20
-66.159
 10
-2.51076
 20
-66.2273
 10
-2.30762
 20
-66.2904
 10
-2.1029
 20
-66.3481
 10
-1.89674
 20
-66.4005
 10
-1.68928
 20
-66.4474
 10
-1.48066
 20
-66.4889
 10
-1.27103
 20
-66.525
 10
-1.06053
 20
-66.5555
 10
-0.849294
 20
-66.5805
 10
-0.63748
 20
-66.6
 10
-0.42523
 20
-66.6139
 10
-0.212688
 20
-66.6222
 10
0
 20
-66.625
  0
LWPOLYLINE
100
AcDbEntity
  8
0
100
AcDbPolyline
 90
240
 70
1
 10
-1.48554
 20
-56.7306
 10
-2.97007
 20
-56.6722
 10
-4.45255
 20
-56.5751
 10
-5.93199
 20
-56.4391
 10
-7.40736
 20
-56.2645
 10
-8.87766
 20
-56.0513
 10
-10.3419
 20
-55.7997
 10
-11.799
 20
-55.5099
 10
-13.248
 20
-55.182
 10
-14.688
 20
-54.8163
 10
-16.1179
 20
-54.413
 10
-17.5367
 20
-53.9725
 10
-18.9435
 20
-53.4949
 10
-20.3374
 20
-52.9807
 10
-21.7173
 20
-52.4302
 10
-23.0823
 20
-51.8437
 10
-24.4315
 20
-51.2217
 10
-25.764
 20
-50.5646
 10
-27.0788
 20
-49.8729
 10
-28.375
 20
-49.1469
 10
-29.6518
 20
-48.3873
 10
-30.9083
 20
-47.5946
 10
-32.1436
 20
-46.7692
 10
-33.3568
 20
-45.9117
 10
-34.5472
 20
-45.0228
 10
-35.7139
 20
-44.103
 10
-36.8562
 20
-43.153
 10
-37.9732
 20
-42.1735
 10
-39.0641
 20
-41.165
 10
-40.1283
 20
-40.1283
 10
-41.165
 20
-39.0641
 10
-42.1735
 20
-37.9732
 10
-43.153
 20
-36.8562
 10
-44.103
 20
-35.7139
 10
-45.0228
 20
-34.5472
 10
-45.9117
 20
-33.3568
 10
-46.7692
 20
-32.1436
 10
-47.5946
 20
-30.9083
 10
-48.3873
 20
-29.6518
 10
-49.1469
 20
-28.375
 10
-49.8729
 20
-27.0788
 10
-50.5646
 20
-25.764
 10
-51.2217
 20
-24.4315
 10
-51.8437
 20
-23.0823
 10
-52.4302
 20
-21.7173
 10
-52.9807
 20
-20.3374
 10
-53.4949
 20
-18.9435
 10
-53.9725
 20
-17.5367
 10
-54.413
 20
-16.1179
 10
-54.8163
 20
-14.688
 10
-55.182
 20
-13.248
 10
-55.5099
 20
-11.799
 10
-55.7997
 20
-10.3419
 10
-56.0513
 20
-8.87766
 10
-56.2645
 20
-7.40736
 10
-56.4391
 20
-5.93199
 10
-56.5751
 20
-4.45255
 10
-56.6722
 20
-2.97007
 10
-56.7306
 20
-1.48554
 10
-56.75
 20
0
 10
-56.7306
 20
1.48554
 10
-56.6722
 20
2.97007
 10
-56.5751
 20
4.45255
 10
-56.4391
 20
5.93199
 10
-56.2645
 20
7.40736
 10
-56.0513
 20
8.87766
 10
-55.7997
 20
10.3419
 10
-55.5099
 20
11.799
 10
-55.182
 20
13.248
 10
-54.8163
 20
14.688
 10
-54.413
 20
16.1179
 10
-53.9725
 20
17.5367
 10
-53.4949
 20
18.9435
 10
-52.9807
 20
20.3374
 10
-52.4302
 20
21.7173
 10
-51.8437
 20
23.0823
 10
-51.2217
 20
24.4315
 10
-50.5646
 20
25.764
 10
-49.8729
 20
27.0788
 10
-49.1469
 20
28.375
 10
-48.3873
 20
29.6518
 10
-47.5946
 20
30.9083
 10
-46.7692
 20
32.1436
 10
-45.9117
 20
33.3568
 10
-45.0228
 20
34.5472
 10
-44.103
 20
35.7139
 10
-43.153
 20
36.8562
 10
-42.1735
 20
37.9732
 10
-41.165
 20
39.0641
 10
-40.1283
 20
40.1283
 10
-39.0641
 20
41.165
 10
-37.9732
 20
42.1735
 10
-36.8562
 20
43.153
 10
-35.7139
 20
44.103
 10
-34.5472
 20
45.0228
 10
-33.3568
 20
45.9117
 10
-32.1436
 20
46.7692
 10
-30.9083
 20
47.5946
 10
-29.6518
 20
48.3873
 10
-28.375
 20
49.1469
 10
-27.0788
 20
49.8729
 10
-25.764
 20
50.5646
 10
-24.4315
 20
51.2217
 10
-23.0823
 20
51.8437
 10
-21.7173
 20
52.4302
 10
-20.3374
 20
52.9807
 10
-18.9435
 20
53.4949
 10
-17.5367
 20
53.9725
 10
-16.1179
 20
54.413
 10
-14.688
 20
54.8163
 10
-13.248
 20
55.182
 10
-11.799
 20
55.5099
 10
-10.3419
 20
55.7997
 10
-8.87766
 20
56.0513
 10
-7.40736
 20
56.2645
 10
-5.93199
 20
56.4391
 10
-4.45255
 20
56.5751
 10
-2.97007
 20
56.6722
 10
-1.48554
 20
56.7306
 10
0
 20
56.75
 10
1.48554
 20
56.7306
 10
2.97007
 20
56.6722
 10
4.45255
 20
56.5751
 10
5.93199
 20
56.4391
 10
7.40736
 20
56.2645
 10
8.87766
 20
56.0513
 10
10.3419
 20
55.7997
 10
11.799
 20
55.5099
 10
13.248
 20
55.182
 10
14.688
 20
54.8163
 10
16.1179
 20
54.413
 10
17.5367
 20
53.9725
 10
18.9435
 20
53.4949
 10
20.3374
 20
52.9807
 10
21.7173
 20
52.4302
 10
23.0823
 20
51.8437
 10
24.4315
 20
51.2217
 10
25.764
 20
50.5646
 10
27.0788
 20
49.8729
 10
28.375
 20
49.1469
 10
29.6518
 20
48.3873
 10
30.9083
 20
47.5946
 10
32.1436
 20
46.7692
 10
33.3568
 20
45.9117
 10
34.5472
 20
45.0228
 10
35.7139
 20
44.103
 10
36.8562
 20
43.153
 10
37.9732
 20
42.1735
 10
39.0641
 20
41.165
 10
40.1283
 20
40.1283
 10
41.165
 20
39.0641
 10
42.1735
 20
37.9732
 10
43.153
 20
36.8562
 10
44.103
 20
35.7139
 10
45.0228
 20
34.5472
 10
45.9117
 20
33.3568
 10
46.7692
 20
32.1436
 10
47.5946
 20
30.9083
 10
48.3873
 20
29.6518
 10
49.1469
 20
28.375
 10
49.8729
 20
27.0788
 10
50.5646
 20
25.764
 10
51.2217
 20
24.4315
 10
51.8437
 20
23.0823
 10
52.4302
 20
21.7173
 10
52.9807
 20
20.3374
 10
53.4949
 20
18.9435
 10
53.9725
 20
17.5367
 10
54.413
 20
16.1179
 10
54.8163
 20
14.688
 10
55.182
 20
13.248
 10
55.5099
 20
11.799
 10
55.7997
 20
10.3419
 10
56.0513
 20
8.87766
 10
56.2645
 20
7.40736
 10
56.4391
 20
5.93199
 10
56.5751
 20
4.45255
 10
56.6722
 20
2.97007
 10
56.7306
 20
1.48554
 10
56.75
 20
0
 10
56.7306
 20
-1.48554
 10
56.6722
 20
-2.97007
 10
56.5751
 20
-4.45255
 10
56.4391
 20
-5.93199
 10
56.2645
 20
-7.40736
 10
56.0513
 20
-8.87766
 10
55.7997
 20
-10.3419
 10
55.5099
 20
-11.799
 10
55.182
 20
-13.248
 10
54.8163
 20
-14.688
 10
54.413
 20
-16.1179
 10
53.9725
 20
-17.5367
 10
53.4949
 20
-18.9435
 10
52.9807
 20
-20.3374
 10
52.4302
 20
-21.7173
 10
51.8437
 20
-23.0823
 10
51.2217
 20
-24.4315
 10
50.5646
 20
-25.764
 10
49.8729
 20
-27.0788
 10
49.1469
 20
-28.375
 10
48.3873
 20
-29.6518
 10
47.5946
 20
-30.9083
 10
46.7692
 20
-32.1436
 10
45.9117
 20
-33.3568
 10
45.0228
 20
-34.5472
 10
44.103
 20
-35.7139
 10
43.153
 20
-36.8562
 10
42.1735
 20
-37.9732
 10
41.165
 20
-39.0641
 10
40.1283
 20
-40.1283
 10
39.0641
 20
-41.165
 10
37.9732
 20
-42.1735
 10
36.8562
 20
-43.153
 10
35.7139
 20
-44.103
 10
34.5472
 20
-45.0228
 10
33.3568
 20
-45.9117
 10
32.1436
 20
-46.7692
 10
30.9083
 20
-47.5946
 10
29.6518
 20
-48.3873
 10
28.375
 20
-49.1469
 10
27.0788
 20
-49.8729
 10
25.764
 20
-50.5646
 10
24.4315
 20
-51.2217
 10
23.0823
 20
-51.8437
 10
21.7173
 20
-52.4302
 10
20.3374
 20
-52.9807
 10
18.9435
 20
-53.4949
 10
17.5367
 20
-53.9725
 10
16.1179
 20
-54.413
 10
14.688
 20
-54.8163
 10
13.248
 20
-55.182
 10
11.799
 20
-55.5099
 10
10.3419
 20
-55.7997
 10
8.87766
 20
-56.0513
 10
7.40736
 20
-56.2645
 10
5.93199
 20
-56.4391
 10
4.45255
 20
-56.5751
 10
2.97007
 20
-56.6722
 10
1.48554
 20
-56.7306
 10
0
 20
-56.75
  0
ENDSEC
  0
EOF
