999
DXF from OpenSCAD
  0
SECTION
  2
HEADER
  9
$ACADVER
  1
AC1006
  9
$INSBASE
 10
0.0
 20
0.0
 30
0.0
  9
$EXTMIN
 10
-65.125
 20
-65.125
  9
$EXTMAX
 10
65.125
 20
65.125
  9
$LINMIN
 10
-65.125
 20
-65.125
  9
$LINMAX
 10
65.125
 20
65.125
  0
ENDSEC
  0
SECTION
  2
TABLES
  0
TABLE
  2
LTYPE
 70
1
  0
LTYPE
  2
CONTINUOUS
 70
64
  3
Solid line
 72
65
 73
0
 40
0.000000
  0
ENDTAB
  0
TABLE
  2
LAYER
 70
6
  0
LAYER
  2
0
 70
64
 62
7
  6
CONTINUOUS
  0
ENDTAB
  0
TABLE
  2
STYLE
 70
0
  0
ENDTAB
  0
ENDSEC
  0
SECTION
  2
BLOCKS
  0
ENDSEC
  0
SECTION
  2
ENTITIES
  0
LWPOLYLINE
100
AcDbEntity
  8
0
100
AcDbPolyline
 90
656
 70
1
 10
0.186511
 20
-65.1226
 10
0.372894
 20
-65.1152
 10
0.559021
 20
-65.103
 10
0.744765
 20
-65.086
 10
0.929999
 20
-65.064
 10
1.1146
 20
-65.0373
 10
1.29843
 20
-65.0057
 10
1.48137
 20
-64.9693
 10
1.6633
 20
-64.9281
 10
1.84409
 20
-64.8822
 10
2.02361
 20
-64.8316
 10
2.20175
 20
-64.7763
 10
2.37837
 20
-64.7163
 10
2.55337
 20
-64.6518
 10
2.72662
 20
-64.5826
 10
2.898
 20
-64.509
 10
3.06739
 20
-64.4309
 10
3.23468
 20
-64.3484
 10
3.39976
 20
-64.2616
 10
3.5625
 20
-64.1704
 10
3.7228
 20
-64.0751
 10
3.88055
 20
-63.9755
 10
4.03564
 20
-63.8719
 10
4.18797
 20
-63.7642
 10
4.33743
 20
-63.6526
 10
4.48391
 20
-63.5372
 10
4.62732
 20
-63.4179
 10
4.76756
 20
-63.2949
 10
4.90453
 20
-63.1683
 10
5.03814
 20
-63.0381
 10
5.16829
 20
-62.9045
 10
5.29491
 20
-62.7676
 10
5.41789
 20
-62.6273
 10
5.53716
 20
-62.4839
 10
5.65264
 20
-62.3374
 10
5.76425
 20
-62.188
 10
5.8719
 20
-62.0356
 10
5.97553
 20
-61.8806
 10
6.07506
 20
-61.7228
 10
6.17043
 20
-61.5625
 10
6.26157
 20
-61.3998
 10
6.34842
 20
-61.2347
 10
6.43092
 20
-61.0674
 10
6.50901
 20
-60.898
 10
6.58264
 20
-60.7266
 10
6.65176
 20
-60.5534
 10
6.71632
 20
-60.3784
 10
6.77628
 20
-60.2017
 10
6.83159
 20
-60.0236
 10
6.88222
 20
-59.8441
 10
6.92814
 20
-59.6633
 10
6.9693
 20
-59.4814
 10
7.00569
 20
-59.2984
 10
7.03728
 20
-59.1146
 10
7.06404
 20
-58.93
 10
7.07697
 20
-58.8208
 10
7.73368
 20
-58.7431
 10
9.26874
 20
-58.5205
 10
10.7975
 20
-58.2579
 10
12.3188
 20
-57.9552
 10
13.8316
 20
-57.6129
 10
15.335
 20
-57.2311
 10
16.8279
 20
-56.8101
 10
18.3093
 20
-56.3501
 10
19.7781
 20
-55.8515
 10
21.2333
 20
-55.3146
 10
22.674
 20
-54.7399
 10
24.0991
 20
-54.1276
 10
25.5078
 20
-53.4782
 10
26.8989
 20
-52.7921
 10
28.2717
 20
-52.0699
 10
29.625
 20
-51.312
 10
30.958
 20
-50.5189
 10
32.2699
 20
-49.6912
 10
33.5596
 20
-48.8295
 10
34.8263
 20
-47.9343
 10
36.0691
 20
-47.0062
 10
37.2872
 20
-46.0459
 10
38.4798
 20
-45.0541
 10
39.646
 20
-44.0313
 10
40.785
 20
-42.9784
 10
41.8961
 20
-41.8961
 10
42.9784
 20
-40.785
 10
44.0313
 20
-39.646
 10
45.0541
 20
-38.4798
 10
46.0459
 20
-37.2872
 10
47.0062
 20
-36.0691
 10
47.9343
 20
-34.8263
 10
48.8295
 20
-33.5596
 10
49.6912
 20
-32.2699
 10
50.5189
 20
-30.958
 10
51.312
 20
-29.625
 10
52.0699
 20
-28.2717
 10
52.7921
 20
-26.8989
 10
53.4782
 20
-25.5078
 10
54.1276
 20
-24.0991
 10
54.7399
 20
-22.674
 10
55.3146
 20
-21.2333
 10
55.8515
 20
-19.7781
 10
56.3501
 20
-18.3093
 10
56.8101
 20
-16.8279
 10
57.2311
 20
-15.335
 10
57.6129
 20
-13.8316
 10
57.9552
 20
-12.3188
 10
58.2579
 20
-10.7975
 10
58.5205
 20
-9.26874
 10
58.7431
 20
-7.73368
 10
58.8208
 20
-7.07697
 10
58.93
 20
-7.06404
 10
59.1146
 20
-7.03728
 10
59.2984
 20
-7.00569
 10
59.4814
 20
-6.9693
 10
59.6633
 20
-6.92814
 10
59.8441
 20
-6.88222
 10
60.0236
 20
-6.83159
 10
60.2017
 20
-6.77628
 10
60.3784
 20
-6.71632
 10
60.5534
 20
-6.65176
 10
60.7266
 20
-6.58264
 10
60.898
 20
-6.50901
 10
61.0674
 20
-6.43092
 10
61.2347
 20
-6.34842
 10
61.3998
 20
-6.26157
 10
61.5625
 20
-6.17043
 10
61.7228
 20
-6.07506
 10
61.8806
 20
-5.97553
 10
62.0356
 20
-5.8719
 10
62.188
 20
-5.76425
 10
62.3374
 20
-5.65264
 10
62.4839
 20
-5.53716
 10
62.6273
 20
-5.41789
 10
62.7676
 20
-5.29491
 10
62.9045
 20
-5.16829
 10
63.0381
 20
-5.03814
 10
63.1683
 20
-4.90453
 10
63.2949
 20
-4.76756
 10
63.4179
 20
-4.62732
 10
63.5372
 20
-4.48391
 10
63.6526
 20
-4.33743
 10
63.7642
 20
-4.18797
 10
63.8719
 20
-4.03564
 10
63.9755
 20
-3.88055
 10
64.0751
 20
-3.7228
 10
64.1704
 20
-3.5625
 10
64.2616
 20
-3.39976
 10
64.3484
 20
-3.23468
 10
64.4309
 20
-3.06739
 10
64.509
 20
-2.898
 10
64.5826
 20
-2.72662
 10
64.6518
 20
-2.55337
 10
64.7163
 20
-2.37837
 10
64.7763
 20
-2.20175
 10
64.8316
 20
-2.02361
 10
64.8822
 20
-1.84409
 10
64.9281
 20
-1.6633
 10
64.9693
 20
-1.48137
 10
65.0057
 20
-1.29843
 10
65.0373
 20
-1.1146
 10
65.064
 20
-0.929999
 10
65.086
 20
-0.744765
 10
65.103
 20
-0.559021
 10
65.1152
 20
-0.372894
 10
65.1226
 20
-0.186511
 10
65.125
 20
0
 10
65.1226
 20
0.186511
 10
65.1152
 20
0.372894
 10
65.103
 20
0.559021
 10
65.086
 20
0.744765
 10
65.064
 20
0.929999
 10
65.0373
 20
1.1146
 10
65.0057
 20
1.29843
 10
64.9693
 20
1.48137
 10
64.9281
 20
1.6633
 10
64.8822
 20
1.84409
 10
64.8316
 20
2.02361
 10
64.7763
 20
2.20175
 10
64.7163
 20
2.37837
 10
64.6518
 20
2.55337
 10
64.5826
 20
2.72662
 10
64.509
 20
2.898
 10
64.4309
 20
3.06739
 10
64.3484
 20
3.23468
 10
64.2616
 20
3.39976
 10
64.1704
 20
3.5625
 10
64.0751
 20
3.7228
 10
63.9755
 20
3.88055
 10
63.8719
 20
4.03564
 10
63.7642
 20
4.18797
 10
63.6526
 20
4.33743
 10
63.5372
 20
4.48391
 10
63.4179
 20
4.62732
 10
63.2949
 20
4.76756
 10
63.1683
 20
4.90453
 10
63.0381
 20
5.03814
 10
62.9045
 20
5.16829
 10
62.7676
 20
5.29491
 10
62.6273
 20
5.41789
 10
62.4839
 20
5.53716
 10
62.3374
 20
5.65264
 10
62.188
 20
5.76425
 10
62.0356
 20
5.8719
 10
61.8806
 20
5.97553
 10
61.7228
 20
6.07506
 10
61.5625
 20
6.17043
 10
61.3998
 20
6.26157
 10
61.2347
 20
6.34842
 10
61.0674
 20
6.43092
 10
60.898
 20
6.50901
 10
60.7266
 20
6.58264
 10
60.5534
 20
6.65176
 10
60.3784
 20
6.71632
 10
60.2017
 20
6.77628
 10
60.0236
 20
6.83159
 10
59.8441
 20
6.88222
 10
59.6633
 20
6.92814
 10
59.4814
 20
6.9693
 10
59.2984
 20
7.00569
 10
59.1146
 20
7.03728
 10
58.93
 20
7.06404
 10
58.8208
 20
7.07697
 10
58.7431
 20
7.73368
 10
58.5205
 20
9.26874
 10
58.2579
 20
10.7975
 10
57.9552
 20
12.3188
 10
57.6129
 20
13.8316
 10
57.2311
 20
15.335
 10
56.8101
 20
16.8279
 10
56.3501
 20
18.3093
 10
55.8515
 20
19.7781
 10
55.3146
 20
21.2333
 10
54.7399
 20
22.674
 10
54.1276
 20
24.0991
 10
53.4782
 20
25.5078
 10
52.7921
 20
26.8989
 10
52.0699
 20
28.2717
 10
51.312
 20
29.625
 10
50.5189
 20
30.958
 10
49.6912
 20
32.2699
 10
48.8295
 20
33.5596
 10
47.9343
 20
34.8263
 10
47.0062
 20
36.0691
 10
46.0459
 20
37.2872
 10
45.0541
 20
38.4798
 10
44.0313
 20
39.646
 10
42.9784
 20
40.785
 10
41.8961
 20
41.8961
 10
40.785
 20
42.9784
 10
39.646
 20
44.0313
 10
38.4798
 20
45.0541
 10
37.2872
 20
46.0459
 10
36.0691
 20
47.0062
 10
34.8263
 20
47.9343
 10
33.5596
 20
48.8295
 10
32.2699
 20
49.6912
 10
30.958
 20
50.5189
 10
29.625
 20
51.312
 10
28.2717
 20
52.0699
 10
26.8989
 20
52.7921
 10
25.5078
 20
53.4782
 10
24.0991
 20
54.1276
 10
22.674
 20
54.7399
 10
21.2333
 20
55.3146
 10
19.7781
 20
55.8515
 10
18.3093
 20
56.3501
 10
16.8279
 20
56.8101
 10
15.335
 20
57.2311
 10
13.8316
 20
57.6129
 10
12.3188
 20
57.9552
 10
10.7975
 20
58.2579
 10
9.26874
 20
58.5205
 10
7.73368
 20
58.7431
 10
7.07697
 20
58.8208
 10
7.06404
 20
58.93
 10
7.03728
 20
59.1146
 10
7.00569
 20
59.2984
 10
6.9693
 20
59.4814
 10
6.92814
 20
59.6633
 10
6.88222
 20
59.8441
 10
6.83159
 20
60.0236
 10
6.77628
 20
60.2017
 10
6.71632
 20
60.3784
 10
6.65176
 20
60.5534
 10
6.58264
 20
60.7266
 10
6.50901
 20
60.898
 10
6.43092
 20
61.0674
 10
6.34842
 20
61.2347
 10
6.26157
 20
61.3998
 10
6.17043
 20
61.5625
 10
6.07506
 20
61.7228
 10
5.97553
 20
61.8806
 10
5.8719
 20
62.0356
 10
5.76425
 20
62.188
 10
5.65264
 20
62.3374
 10
5.53716
 20
62.4839
 10
5.41789
 20
62.6273
 10
5.29491
 20
62.7676
 10
5.16829
 20
62.9045
 10
5.03814
 20
63.0381
 10
4.90453
 20
63.1683
 10
4.76756
 20
63.2949
 10
4.62732
 20
63.4179
 10
4.48391
 20
63.5372
 10
4.33743
 20
63.6526
 10
4.18797
 20
63.7642
 10
4.03564
 20
63.8719
 10
3.88055
 20
63.9755
 10
3.7228
 20
64.0751
 10
3.5625
 20
64.1704
 10
3.39976
 20
64.2616
 10
3.23468
 20
64.3484
 10
3.06739
 20
64.4309
 10
2.898
 20
64.509
 10
2.72662
 20
64.5826
 10
2.55337
 20
64.6518
 10
2.37837
 20
64.7163
 10
2.20175
 20
64.7763
 10
2.02361
 20
64.8316
 10
1.84409
 20
64.8822
 10
1.6633
 20
64.9281
 10
1.48137
 20
64.9693
 10
1.29843
 20
65.0057
 10
1.1146
 20
65.0373
 10
0.929999
 20
65.064
 10
0.744765
 20
65.086
 10
0.559021
 20
65.103
 10
0.372894
 20
65.1152
 10
0.186511
 20
65.1226
 10
0
 20
65.125
 10
-0.186511
 20
65.1226
 10
-0.372894
 20
65.1152
 10
-0.559021
 20
65.103
 10
-0.744765
 20
65.086
 10
-0.929999
 20
65.064
 10
-1.1146
 20
65.0373
 10
-1.29843
 20
65.0057
 10
-1.48137
 20
64.9693
 10
-1.6633
 20
64.9281
 10
-1.84409
 20
64.8822
 10
-2.02361
 20
64.8316
 10
-2.20175
 20
64.7763
 10
-2.37837
 20
64.7163
 10
-2.55337
 20
64.6518
 10
-2.72662
 20
64.5826
 10
-2.898
 20
64.509
 10
-3.06739
 20
64.4309
 10
-3.23468
 20
64.3484
 10
-3.39976
 20
64.2616
 10
-3.5625
 20
64.1704
 10
-3.7228
 20
64.0751
 10
-3.88055
 20
63.9755
 10
-4.03564
 20
63.8719
 10
-4.18797
 20
63.7642
 10
-4.33743
 20
63.6526
 10
-4.48391
 20
63.5372
 10
-4.62732
 20
63.4179
 10
-4.76756
 20
63.2949
 10
-4.90453
 20
63.1683
 10
-5.03814
 20
63.0381
 10
-5.16829
 20
62.9045
 10
-5.29491
 20
62.7676
 10
-5.41789
 20
62.6273
 10
-5.53716
 20
62.4839
 10
-5.65264
 20
62.3374
 10
-5.76425
 20
62.188
 10
-5.8719
 20
62.0356
 10
-5.97553
 20
61.8806
 10
-6.07506
 20
61.7228
 10
-6.17043
 20
61.5625
 10
-6.26157
 20
61.3998
 10
-6.34842
 20
61.2347
 10
-6.43092
 20
61.0674
 10
-6.50901
 20
60.898
 10
-6.58264
 20
60.7266
 10
-6.65176
 20
60.5534
 10
-6.71632
 20
60.3784
 10
-6.77628
 20
60.2017
 10
-6.83159
 20
60.0236
 10
-6.88222
 20
59.8441
 10
-6.92814
 20
59.6633
 10
-6.9693
 20
59.4814
 10
-7.00569
 20
59.2984
 10
-7.03728
 20
59.1146
 10
-7.06404
 20
58.93
 10
-7.07697
 20
58.8208
 10
-7.73368
 20
58.7431
 10
-9.26874
 20
58.5205
 10
-10.7975
 20
58.2579
 10
-12.3188
 20
57.9552
 10
-13.8316
 20
57.6129
 10
-15.335
 20
57.2311
 10
-16.8279
 20
56.8101
 10
-18.3093
 20
56.3501
 10
-19.7781
 20
55.8515
 10
-21.2333
 20
55.3146
 10
-22.674
 20
54.7399
 10
-24.0991
 20
54.1276
 10
-25.5078
 20
53.4782
 10
-26.8989
 20
52.7921
 10
-28.2717
 20
52.0699
 10
-29.625
 20
51.312
 10
-30.958
 20
50.5189
 10
-32.2699
 20
49.6912
 10
-33.5596
 20
48.8295
 10
-34.8263
 20
47.9343
 10
-36.0691
 20
47.0062
 10
-37.2872
 20
46.0459
 10
-38.4798
 20
45.0541
 10
-39.646
 20
44.0313
 10
-40.785
 20
42.9784
 10
-41.8961
 20
41.8961
 10
-42.9784
 20
40.785
 10
-44.0313
 20
39.646
 10
-45.0541
 20
38.4798
 10
-46.0459
 20
37.2872
 10
-47.0062
 20
36.0691
 10
-47.9343
 20
34.8263
 10
-48.8295
 20
33.5596
 10
-49.6912
 20
32.2699
 10
-50.5189
 20
30.958
 10
-51.312
 20
29.625
 10
-52.0699
 20
28.2717
 10
-52.7921
 20
26.8989
 10
-53.4782
 20
25.5078
 10
-54.1276
 20
24.0991
 10
-54.7399
 20
22.674
 10
-55.3146
 20
21.2333
 10
-55.8515
 20
19.7781
 10
-56.3501
 20
18.3093
 10
-56.8101
 20
16.8279
 10
-57.2311
 20
15.335
 10
-57.6129
 20
13.8316
 10
-57.9552
 20
12.3188
 10
-58.2579
 20
10.7975
 10
-58.5205
 20
9.26874
 10
-58.7431
 20
7.73368
 10
-58.8208
 20
7.07697
 10
-58.93
 20
7.06404
 10
-59.1146
 20
7.03728
 10
-59.2984
 20
7.00569
 10
-59.4814
 20
6.9693
 10
-59.6633
 20
6.92814
 10
-59.8441
 20
6.88222
 10
-60.0236
 20
6.83159
 10
-60.2017
 20
6.77628
 10
-60.3784
 20
6.71632
 10
-60.5534
 20
6.65176
 10
-60.7266
 20
6.58264
 10
-60.898
 20
6.50901
 10
-61.0674
 20
6.43092
 10
-61.2347
 20
6.34842
 10
-61.3998
 20
6.26157
 10
-61.5625
 20
6.17043
 10
-61.7228
 20
6.07506
 10
-61.8806
 20
5.97553
 10
-62.0356
 20
5.8719
 10
-62.188
 20
5.76425
 10
-62.3374
 20
5.65264
 10
-62.4839
 20
5.53716
 10
-62.6273
 20
5.41789
 10
-62.7676
 20
5.29491
 10
-62.9045
 20
5.16829
 10
-63.0381
 20
5.03814
 10
-63.1683
 20
4.90453
 10
-63.2949
 20
4.76756
 10
-63.4179
 20
4.62732
 10
-63.5372
 20
4.48391
 10
-63.6526
 20
4.33743
 10
-63.7642
 20
4.18797
 10
-63.8719
 20
4.03564
 10
-63.9755
 20
3.88055
 10
-64.0751
 20
3.7228
 10
-64.1704
 20
3.5625
 10
-64.2616
 20
3.39976
 10
-64.3484
 20
3.23468
 10
-64.4309
 20
3.06739
 10
-64.509
 20
2.898
 10
-64.5826
 20
2.72662
 10
-64.6518
 20
2.55337
 10
-64.7163
 20
2.37837
 10
-64.7763
 20
2.20175
 10
-64.8316
 20
2.02361
 10
-64.8822
 20
1.84409
 10
-64.9281
 20
1.6633
 10
-64.9693
 20
1.48137
 10
-65.0057
 20
1.29843
 10
-65.0373
 20
1.1146
 10
-65.064
 20
0.929999
 10
-65.086
 20
0.744765
 10
-65.103
 20
0.559021
 10
-65.1152
 20
0.372894
 10
-65.1226
 20
0.186511
 10
-65.125
 20
0
 10
-65.1226
 20
-0.186511
 10
-65.1152
 20
-0.372894
 10
-65.103
 20
-0.559021
 10
-65.086
 20
-0.744765
 10
-65.064
 20
-0.929999
 10
-65.0373
 20
-1.1146
 10
-65.0057
 20
-1.29843
 10
-64.9693
 20
-1.48137
 10
-64.9281
 20
-1.6633
 10
-64.8822
 20
-1.84409
 10
-64.8316
 20
-2.02361
 10
-64.7763
 20
-2.20175
 10
-64.7163
 20
-2.37837
 10
-64.6518
 20
-2.55337
 10
-64.5826
 20
-2.72662
 10
-64.509
 20
-2.898
 10
-64.4309
 20
-3.06739
 10
-64.3484
 20
-3.23468
 10
-64.2616
 20
-3.39976
 10
-64.1704
 20
-3.5625
 10
-64.0751
 20
-3.7228
 10
-63.9755
 20
-3.88055
 10
-63.8719
 20
-4.03564
 10
-63.7642
 20
-4.18797
 10
-63.6526
 20
-4.33743
 10
-63.5372
 20
-4.48391
 10
-63.4179
 20
-4.62732
 10
-63.2949
 20
-4.76756
 10
-63.1683
 20
-4.90453
 10
-63.0381
 20
-5.03814
 10
-62.9045
 20
-5.16829
 10
-62.7676
 20
-5.29491
 10
-62.6273
 20
-5.41789
 10
-62.4839
 20
-5.53716
 10
-62.3374
 20
-5.65264
 10
-62.188
 20
-5.76425
 10
-62.0356
 20
-5.8719
 10
-61.8806
 20
-5.97553
 10
-61.7228
 20
-6.07506
 10
-61.5625
 20
-6.17043
 10
-61.3998
 20
-6.26157
 10
-61.2347
 20
-6.34842
 10
-61.0674
 20
-6.43092
 10
-60.898
 20
-6.50901
 10
-60.7266
 20
-6.58264
 10
-60.5534
 20
-6.65176
 10
-60.3784
 20
-6.71632
 10
-60.2017
 20
-6.77628
 10
-60.0236
 20
-6.83159
 10
-59.8441
 20
-6.88222
 10
-59.6633
 20
-6.92814
 10
-59.4814
 20
-6.9693
 10
-59.2984
 20
-7.00569
 10
-59.1146
 20
-7.03728
 10
-58.93
 20
-7.06404
 10
-58.8208
 20
-7.07697
 10
-58.7431
 20
-7.73368
 10
-58.5205
 20
-9.26874
 10
-58.2579
 20
-10.7975
 10
-57.9552
 20
-12.3188
 10
-57.6129
 20
-13.8316
 10
-57.2311
 20
-15.335
 10
-56.8101
 20
-16.8279
 10
-56.3501
 20
-18.3093
 10
-55.8515
 20
-19.7781
 10
-55.3146
 20
-21.2333
 10
-54.7399
 20
-22.674
 10
-54.1276
 20
-24.0991
 10
-53.4782
 20
-25.5078
 10
-52.7921
 20
-26.8989
 10
-52.0699
 20
-28.2717
 10
-51.312
 20
-29.625
 10
-50.5189
 20
-30.958
 10
-49.6912
 20
-32.2699
 10
-48.8295
 20
-33.5596
 10
-47.9343
 20
-34.8263
 10
-47.0062
 20
-36.0691
 10
-46.0459
 20
-37.2872
 10
-45.0541
 20
-38.4798
 10
-44.0313
 20
-39.646
 10
-42.9784
 20
-40.785
 10
-41.8961
 20
-41.8961
 10
-40.785
 20
-42.9784
 10
-39.646
 20
-44.0313
 10
-38.4798
 20
-45.0541
 10
-37.2872
 20
-46.0459
 10
-36.0691
 20
-47.0062
 10
-34.8263
 20
-47.9343
 10
-33.5596
 20
-48.8295
 10
-32.2699
 20
-49.6912
 10
-30.958
 20
-50.5189
 10
-29.625
 20
-51.312
 10
-28.2717
 20
-52.0699
 10
-26.8989
 20
-52.7921
 10
-25.5078
 20
-53.4782
 10
-24.0991
 20
-54.1276
 10
-22.674
 20
-54.7399
 10
-21.2333
 20
-55.3146
 10
-19.7781
 20
-55.8515
 10
-18.3093
 20
-56.3501
 10
-16.8279
 20
-56.8101
 10
-15.335
 20
-57.2311
 10
-13.8316
 20
-57.6129
 10
-12.3188
 20
-57.9552
 10
-10.7975
 20
-58.2579
 10
-9.26874
 20
-58.5205
 10
-7.73368
 20
-58.7431
 10
-7.07697
 20
-58.8208
 10
-7.06404
 20
-58.93
 10
-7.03728
 20
-59.1146
 10
-7.00569
 20
-59.2984
 10
-6.9693
 20
-59.4814
 10
-6.92814
 20
-59.6633
 10
-6.88222
 20
-59.8441
 10
-6.83159
 20
-60.0236
 10
-6.77628
 20
-60.2017
 10
-6.71632
 20
-60.3784
 10
-6.65176
 20
-60.5534
 10
-6.58264
 20
-60.7266
 10
-6.50901
 20
-60.898
 10
-6.43092
 20
-61.0674
 10
-6.34842
 20
-61.2347
 10
-6.26157
 20
-61.3998
 10
-6.17043
 20
-61.5625
 10
-6.07506
 20
-61.7228
 10
-5.97553
 20
-61.8806
 10
-5.8719
 20
-62.0356
 10
-5.76425
 20
-62.188
 10
-5.65264
 20
-62.3374
 10
-5.53716
 20
-62.4839
 10
-5.41789
 20
-62.6273
 10
-5.29491
 20
-62.7676
 10
-5.16829
 20
-62.9045
 10
-5.03814
 20
-63.0381
 10
-4.90453
 20
-63.1683
 10
-4.76756
 20
-63.2949
 10
-4.62732
 20
-63.4179
 10
-4.48391
 20
-63.5372
 10
-4.33743
 20
-63.6526
 10
-4.18797
 20
-63.7642
 10
-4.03564
 20
-63.8719
 10
-3.88055
 20
-63.9755
 10
-3.7228
 20
-64.0751
 10
-3.5625
 20
-64.1704
 10
-3.39976
 20
-64.2616
 10
-3.23468
 20
-64.3484
 10
-3.06739
 20
-64.4309
 10
-2.898
 20
-64.509
 10
-2.72662
 20
-64.5826
 10
-2.55337
 20
-64.6518
 10
-2.37837
 20
-64.7163
 10
-2.20175
 20
-64.7763
 10
-2.02361
 20
-64.8316
 10
-1.84409
 20
-64.8822
 10
-1.6633
 20
-64.9281
 10
-1.48137
 20
-64.9693
 10
-1.29843
 20
-65.0057
 10
-1.1146
 20
-65.0373
 10
-0.929999
 20
-65.064
 10
-0.744765
 20
-65.086
 10
-0.559021
 20
-65.103
 10
-0.372894
 20
-65.1152
 10
-0.186511
 20
-65.1226
 10
0
 20
-65.125
  0
LWPOLYLINE
100
AcDbEntity
  8
0
100
AcDbPolyline
 90
240
 70
1
 10
-1.48554
 20
-56.7306
 10
-2.97007
 20
-56.6722
 10
-4.45255
 20
-56.5751
 10
-5.93199
 20
-56.4391
 10
-7.40736
 20
-56.2645
 10
-8.87766
 20
-56.0513
 10
-10.3419
 20
-55.7997
 10
-11.799
 20
-55.5099
 10
-13.248
 20
-55.182
 10
-14.688
 20
-54.8163
 10
-16.1179
 20
-54.413
 10
-17.5367
 20
-53.9725
 10
-18.9435
 20
-53.4949
 10
-20.3374
 20
-52.9807
 10
-21.7173
 20
-52.4302
 10
-23.0823
 20
-51.8437
 10
-24.4315
 20
-51.2217
 10
-25.764
 20
-50.5646
 10
-27.0788
 20
-49.8729
 10
-28.375
 20
-49.1469
 10
-29.6518
 20
-48.3873
 10
-30.9083
 20
-47.5946
 10
-32.1436
 20
-46.7692
 10
-33.3568
 20
-45.9117
 10
-34.5472
 20
-45.0228
 10
-35.7139
 20
-44.103
 10
-36.8562
 20
-43.153
 10
-37.9732
 20
-42.1735
 10
-39.0641
 20
-41.165
 10
-40.1283
 20
-40.1283
 10
-41.165
 20
-39.0641
 10
-42.1735
 20
-37.9732
 10
-43.153
 20
-36.8562
 10
-44.103
 20
-35.7139
 10
-45.0228
 20
-34.5472
 10
-45.9117
 20
-33.3568
 10
-46.7692
 20
-32.1436
 10
-47.5946
 20
-30.9083
 10
-48.3873
 20
-29.6518
 10
-49.1469
 20
-28.375
 10
-49.8729
 20
-27.0788
 10
-50.5646
 20
-25.764
 10
-51.2217
 20
-24.4315
 10
-51.8437
 20
-23.0823
 10
-52.4302
 20
-21.7173
 10
-52.9807
 20
-20.3374
 10
-53.4949
 20
-18.9435
 10
-53.9725
 20
-17.5367
 10
-54.413
 20
-16.1179
 10
-54.8163
 20
-14.688
 10
-55.182
 20
-13.248
 10
-55.5099
 20
-11.799
 10
-55.7997
 20
-10.3419
 10
-56.0513
 20
-8.87766
 10
-56.2645
 20
-7.40736
 10
-56.4391
 20
-5.93199
 10
-56.5751
 20
-4.45255
 10
-56.6722
 20
-2.97007
 10
-56.7306
 20
-1.48554
 10
-56.75
 20
0
 10
-56.7306
 20
1.48554
 10
-56.6722
 20
2.97007
 10
-56.5751
 20
4.45255
 10
-56.4391
 20
5.93199
 10
-56.2645
 20
7.40736
 10
-56.0513
 20
8.87766
 10
-55.7997
 20
10.3419
 10
-55.5099
 20
11.799
 10
-55.182
 20
13.248
 10
-54.8163
 20
14.688
 10
-54.413
 20
16.1179
 10
-53.9725
 20
17.5367
 10
-53.4949
 20
18.9435
 10
-52.9807
 20
20.3374
 10
-52.4302
 20
21.7173
 10
-51.8437
 20
23.0823
 10
-51.2217
 20
24.4315
 10
-50.5646
 20
25.764
 10
-49.8729
 20
27.0788
 10
-49.1469
 20
28.375
 10
-48.3873
 20
29.6518
 10
-47.5946
 20
30.9083
 10
-46.7692
 20
32.1436
 10
-45.9117
 20
33.3568
 10
-45.0228
 20
34.5472
 10
-44.103
 20
35.7139
 10
-43.153
 20
36.8562
 10
-42.1735
 20
37.9732
 10
-41.165
 20
39.0641
 10
-40.1283
 20
40.1283
 10
-39.0641
 20
41.165
 10
-37.9732
 20
42.1735
 10
-36.8562
 20
43.153
 10
-35.7139
 20
44.103
 10
-34.5472
 20
45.0228
 10
-33.3568
 20
45.9117
 10
-32.1436
 20
46.7692
 10
-30.9083
 20
47.5946
 10
-29.6518
 20
48.3873
 10
-28.375
 20
49.1469
 10
-27.0788
 20
49.8729
 10
-25.764
 20
50.5646
 10
-24.4315
 20
51.2217
 10
-23.0823
 20
51.8437
 10
-21.7173
 20
52.4302
 10
-20.3374
 20
52.9807
 10
-18.9435
 20
53.4949
 10
-17.5367
 20
53.9725
 10
-16.1179
 20
54.413
 10
-14.688
 20
54.8163
 10
-13.248
 20
55.182
 10
-11.799
 20
55.5099
 10
-10.3419
 20
55.7997
 10
-8.87766
 20
56.0513
 10
-7.40736
 20
56.2645
 10
-5.93199
 20
56.4391
 10
-4.45255
 20
56.5751
 10
-2.97007
 20
56.6722
 10
-1.48554
 20
56.7306
 10
0
 20
56.75
 10
1.48554
 20
56.7306
 10
2.97007
 20
56.6722
 10
4.45255
 20
56.5751
 10
5.93199
 20
56.4391
 10
7.40736
 20
56.2645
 10
8.87766
 20
56.0513
 10
10.3419
 20
55.7997
 10
11.799
 20
55.5099
 10
13.248
 20
55.182
 10
14.688
 20
54.8163
 10
16.1179
 20
54.413
 10
17.5367
 20
53.9725
 10
18.9435
 20
53.4949
 10
20.3374
 20
52.9807
 10
21.7173
 20
52.4302
 10
23.0823
 20
51.8437
 10
24.4315
 20
51.2217
 10
25.764
 20
50.5646
 10
27.0788
 20
49.8729
 10
28.375
 20
49.1469
 10
29.6518
 20
48.3873
 10
30.9083
 20
47.5946
 10
32.1436
 20
46.7692
 10
33.3568
 20
45.9117
 10
34.5472
 20
45.0228
 10
35.7139
 20
44.103
 10
36.8562
 20
43.153
 10
37.9732
 20
42.1735
 10
39.0641
 20
41.165
 10
40.1283
 20
40.1283
 10
41.165
 20
39.0641
 10
42.1735
 20
37.9732
 10
43.153
 20
36.8562
 10
44.103
 20
35.7139
 10
45.0228
 20
34.5472
 10
45.9117
 20
33.3568
 10
46.7692
 20
32.1436
 10
47.5946
 20
30.9083
 10
48.3873
 20
29.6518
 10
49.1469
 20
28.375
 10
49.8729
 20
27.0788
 10
50.5646
 20
25.764
 10
51.2217
 20
24.4315
 10
51.8437
 20
23.0823
 10
52.4302
 20
21.7173
 10
52.9807
 20
20.3374
 10
53.4949
 20
18.9435
 10
53.9725
 20
17.5367
 10
54.413
 20
16.1179
 10
54.8163
 20
14.688
 10
55.182
 20
13.248
 10
55.5099
 20
11.799
 10
55.7997
 20
10.3419
 10
56.0513
 20
8.87766
 10
56.2645
 20
7.40736
 10
56.4391
 20
5.93199
 10
56.5751
 20
4.45255
 10
56.6722
 20
2.97007
 10
56.7306
 20
1.48554
 10
56.75
 20
0
 10
56.7306
 20
-1.48554
 10
56.6722
 20
-2.97007
 10
56.5751
 20
-4.45255
 10
56.4391
 20
-5.93199
 10
56.2645
 20
-7.40736
 10
56.0513
 20
-8.87766
 10
55.7997
 20
-10.3419
 10
55.5099
 20
-11.799
 10
55.182
 20
-13.248
 10
54.8163
 20
-14.688
 10
54.413
 20
-16.1179
 10
53.9725
 20
-17.5367
 10
53.4949
 20
-18.9435
 10
52.9807
 20
-20.3374
 10
52.4302
 20
-21.7173
 10
51.8437
 20
-23.0823
 10
51.2217
 20
-24.4315
 10
50.5646
 20
-25.764
 10
49.8729
 20
-27.0788
 10
49.1469
 20
-28.375
 10
48.3873
 20
-29.6518
 10
47.5946
 20
-30.9083
 10
46.7692
 20
-32.1436
 10
45.9117
 20
-33.3568
 10
45.0228
 20
-34.5472
 10
44.103
 20
-35.7139
 10
43.153
 20
-36.8562
 10
42.1735
 20
-37.9732
 10
41.165
 20
-39.0641
 10
40.1283
 20
-40.1283
 10
39.0641
 20
-41.165
 10
37.9732
 20
-42.1735
 10
36.8562
 20
-43.153
 10
35.7139
 20
-44.103
 10
34.5472
 20
-45.0228
 10
33.3568
 20
-45.9117
 10
32.1436
 20
-46.7692
 10
30.9083
 20
-47.5946
 10
29.6518
 20
-48.3873
 10
28.375
 20
-49.1469
 10
27.0788
 20
-49.8729
 10
25.764
 20
-50.5646
 10
24.4315
 20
-51.2217
 10
23.0823
 20
-51.8437
 10
21.7173
 20
-52.4302
 10
20.3374
 20
-52.9807
 10
18.9435
 20
-53.4949
 10
17.5367
 20
-53.9725
 10
16.1179
 20
-54.413
 10
14.688
 20
-54.8163
 10
13.248
 20
-55.182
 10
11.799
 20
-55.5099
 10
10.3419
 20
-55.7997
 10
8.87766
 20
-56.0513
 10
7.40736
 20
-56.2645
 10
5.93199
 20
-56.4391
 10
4.45255
 20
-56.5751
 10
2.97007
 20
-56.6722
 10
1.48554
 20
-56.7306
 10
0
 20
-56.75
  0
ENDSEC
  0
EOF
