999
DXF from OpenSCAD
  0
SECTION
  2
HEADER
  9
$ACADVER
  1
AC1006
  9
$INSBASE
 10
0.0
 20
0.0
 30
0.0
  9
$EXTMIN
 10
-62.625
 20
-62.625
  9
$EXTMAX
 10
62.625
 20
62.625
  9
$LINMIN
 10
-62.625
 20
-62.625
  9
$LINMAX
 10
62.625
 20
62.625
  0
ENDSEC
  0
SECTION
  2
TABLES
  0
TABLE
  2
LTYPE
 70
1
  0
LTYPE
  2
CONTINUOUS
 70
64
  3
Solid line
 72
65
 73
0
 40
0.000000
  0
ENDTAB
  0
TABLE
  2
LAYER
 70
6
  0
LAYER
  2
0
 70
64
 62
7
  6
CONTINUOUS
  0
ENDTAB
  0
TABLE
  2
STYLE
 70
0
  0
ENDTAB
  0
ENDSEC
  0
SECTION
  2
BLOCKS
  0
ENDSEC
  0
SECTION
  2
ENTITIES
  0
LWPOLYLINE
100
AcDbEntity
  8
0
100
AcDbPolyline
 90
616
 70
1
 10
0.219232
 20
-62.6221
 10
0.438314
 20
-62.6135
 10
0.657095
 20
-62.5992
 10
0.875426
 20
-62.5791
 10
1.09316
 20
-62.5534
 10
1.31014
 20
-62.5219
 10
1.52622
 20
-62.4848
 10
1.74126
 20
-62.442
 10
1.9551
 20
-62.3936
 10
2.16761
 20
-62.3396
 10
2.37863
 20
-62.2801
 10
2.58802
 20
-62.2151
 10
2.79563
 20
-62.1446
 10
3.00133
 20
-62.0687
 10
3.20497
 20
-61.9875
 10
3.40642
 20
-61.9009
 10
3.60553
 20
-61.8092
 10
3.80217
 20
-61.7122
 10
3.9962
 20
-61.6101
 10
4.1875
 20
-61.503
 10
4.37593
 20
-61.3909
 10
4.56135
 20
-61.2739
 10
4.74365
 20
-61.1521
 10
4.9227
 20
-61.0255
 10
5.09838
 20
-60.8943
 10
5.27056
 20
-60.7586
 10
5.43913
 20
-60.6184
 10
5.60397
 20
-60.4738
 10
5.76497
 20
-60.325
 10
5.92202
 20
-60.172
 10
6.07501
 20
-60.015
 10
6.22384
 20
-59.854
 10
6.3684
 20
-59.6891
 10
6.5086
 20
-59.5206
 10
6.64433
 20
-59.3484
 10
6.77552
 20
-59.1727
 10
6.90206
 20
-58.9937
 10
7.02387
 20
-58.8114
 10
7.14086
 20
-58.6259
 10
7.25296
 20
-58.4375
 10
7.36009
 20
-58.2462
 10
7.46218
 20
-58.0522
 10
7.55915
 20
-57.8555
 10
7.65094
 20
-57.6564
 10
7.73749
 20
-57.455
 10
7.81874
 20
-57.2513
 10
7.89462
 20
-57.0456
 10
7.9651
 20
-56.838
 10
8.03012
 20
-56.6286
 10
8.08963
 20
-56.4176
 10
8.1436
 20
-56.2051
 10
8.15468
 20
-56.1561
 10
8.87766
 20
-56.0513
 10
10.3419
 20
-55.7997
 10
11.799
 20
-55.5099
 10
13.248
 20
-55.182
 10
14.688
 20
-54.8163
 10
16.1179
 20
-54.413
 10
17.5367
 20
-53.9725
 10
18.9435
 20
-53.4949
 10
20.3374
 20
-52.9807
 10
21.7173
 20
-52.4302
 10
23.0823
 20
-51.8437
 10
24.4315
 20
-51.2217
 10
25.764
 20
-50.5646
 10
27.0788
 20
-49.8729
 10
28.375
 20
-49.1469
 10
29.6518
 20
-48.3873
 10
30.9083
 20
-47.5946
 10
32.1436
 20
-46.7692
 10
33.3568
 20
-45.9117
 10
34.5472
 20
-45.0228
 10
35.7139
 20
-44.103
 10
36.8562
 20
-43.153
 10
37.9732
 20
-42.1735
 10
39.0641
 20
-41.165
 10
40.1283
 20
-40.1283
 10
41.165
 20
-39.0641
 10
42.1735
 20
-37.9732
 10
43.153
 20
-36.8562
 10
44.103
 20
-35.7139
 10
45.0228
 20
-34.5472
 10
45.9117
 20
-33.3568
 10
46.7692
 20
-32.1436
 10
47.5946
 20
-30.9083
 10
48.3873
 20
-29.6518
 10
49.1469
 20
-28.375
 10
49.8729
 20
-27.0788
 10
50.5646
 20
-25.764
 10
51.2217
 20
-24.4315
 10
51.8437
 20
-23.0823
 10
52.4302
 20
-21.7173
 10
52.9807
 20
-20.3374
 10
53.4949
 20
-18.9435
 10
53.9725
 20
-17.5367
 10
54.413
 20
-16.1179
 10
54.8163
 20
-14.688
 10
55.182
 20
-13.248
 10
55.5099
 20
-11.799
 10
55.7997
 20
-10.3419
 10
56.0513
 20
-8.87766
 10
56.1561
 20
-8.15468
 10
56.2051
 20
-8.1436
 10
56.4176
 20
-8.08963
 10
56.6286
 20
-8.03012
 10
56.838
 20
-7.9651
 10
57.0456
 20
-7.89462
 10
57.2513
 20
-7.81874
 10
57.455
 20
-7.73749
 10
57.6564
 20
-7.65094
 10
57.8555
 20
-7.55915
 10
58.0522
 20
-7.46218
 10
58.2462
 20
-7.36009
 10
58.4375
 20
-7.25296
 10
58.6259
 20
-7.14086
 10
58.8114
 20
-7.02387
 10
58.9937
 20
-6.90206
 10
59.1727
 20
-6.77552
 10
59.3484
 20
-6.64433
 10
59.5206
 20
-6.5086
 10
59.6891
 20
-6.3684
 10
59.854
 20
-6.22384
 10
60.015
 20
-6.07501
 10
60.172
 20
-5.92202
 10
60.325
 20
-5.76497
 10
60.4738
 20
-5.60397
 10
60.6184
 20
-5.43913
 10
60.7586
 20
-5.27056
 10
60.8943
 20
-5.09838
 10
61.0255
 20
-4.9227
 10
61.1521
 20
-4.74365
 10
61.2739
 20
-4.56135
 10
61.3909
 20
-4.37593
 10
61.503
 20
-4.1875
 10
61.6101
 20
-3.9962
 10
61.7122
 20
-3.80217
 10
61.8092
 20
-3.60553
 10
61.9009
 20
-3.40642
 10
61.9875
 20
-3.20497
 10
62.0687
 20
-3.00133
 10
62.1446
 20
-2.79563
 10
62.2151
 20
-2.58802
 10
62.2801
 20
-2.37863
 10
62.3396
 20
-2.16761
 10
62.3936
 20
-1.9551
 10
62.442
 20
-1.74126
 10
62.4848
 20
-1.52622
 10
62.5219
 20
-1.31014
 10
62.5534
 20
-1.09316
 10
62.5791
 20
-0.875426
 10
62.5992
 20
-0.657095
 10
62.6135
 20
-0.438314
 10
62.6221
 20
-0.219232
 10
62.625
 20
0
 10
62.6221
 20
0.219232
 10
62.6135
 20
0.438314
 10
62.5992
 20
0.657095
 10
62.5791
 20
0.875426
 10
62.5534
 20
1.09316
 10
62.5219
 20
1.31014
 10
62.4848
 20
1.52622
 10
62.442
 20
1.74126
 10
62.3936
 20
1.9551
 10
62.3396
 20
2.16761
 10
62.2801
 20
2.37863
 10
62.2151
 20
2.58802
 10
62.1446
 20
2.79563
 10
62.0687
 20
3.00133
 10
61.9875
 20
3.20497
 10
61.9009
 20
3.40642
 10
61.8092
 20
3.60553
 10
61.7122
 20
3.80217
 10
61.6101
 20
3.9962
 10
61.503
 20
4.1875
 10
61.3909
 20
4.37593
 10
61.2739
 20
4.56135
 10
61.1521
 20
4.74365
 10
61.0255
 20
4.9227
 10
60.8943
 20
5.09838
 10
60.7586
 20
5.27056
 10
60.6184
 20
5.43913
 10
60.4738
 20
5.60397
 10
60.325
 20
5.76497
 10
60.172
 20
5.92202
 10
60.015
 20
6.07501
 10
59.854
 20
6.22384
 10
59.6891
 20
6.3684
 10
59.5206
 20
6.5086
 10
59.3484
 20
6.64433
 10
59.1727
 20
6.77552
 10
58.9937
 20
6.90206
 10
58.8114
 20
7.02387
 10
58.6259
 20
7.14086
 10
58.4375
 20
7.25296
 10
58.2462
 20
7.36009
 10
58.0522
 20
7.46218
 10
57.8555
 20
7.55915
 10
57.6564
 20
7.65094
 10
57.455
 20
7.73749
 10
57.2513
 20
7.81874
 10
57.0456
 20
7.89462
 10
56.838
 20
7.9651
 10
56.6286
 20
8.03012
 10
56.4176
 20
8.08963
 10
56.2051
 20
8.1436
 10
56.1561
 20
8.15468
 10
56.0513
 20
8.87766
 10
55.7997
 20
10.3419
 10
55.5099
 20
11.799
 10
55.182
 20
13.248
 10
54.8163
 20
14.688
 10
54.413
 20
16.1179
 10
53.9725
 20
17.5367
 10
53.4949
 20
18.9435
 10
52.9807
 20
20.3374
 10
52.4302
 20
21.7173
 10
51.8437
 20
23.0823
 10
51.2217
 20
24.4315
 10
50.5646
 20
25.764
 10
49.8729
 20
27.0788
 10
49.1469
 20
28.375
 10
48.3873
 20
29.6518
 10
47.5946
 20
30.9083
 10
46.7692
 20
32.1436
 10
45.9117
 20
33.3568
 10
45.0228
 20
34.5472
 10
44.103
 20
35.7139
 10
43.153
 20
36.8562
 10
42.1735
 20
37.9732
 10
41.165
 20
39.0641
 10
40.1283
 20
40.1283
 10
39.0641
 20
41.165
 10
37.9732
 20
42.1735
 10
36.8562
 20
43.153
 10
35.7139
 20
44.103
 10
34.5472
 20
45.0228
 10
33.3568
 20
45.9117
 10
32.1436
 20
46.7692
 10
30.9083
 20
47.5946
 10
29.6518
 20
48.3873
 10
28.375
 20
49.1469
 10
27.0788
 20
49.8729
 10
25.764
 20
50.5646
 10
24.4315
 20
51.2217
 10
23.0823
 20
51.8437
 10
21.7173
 20
52.4302
 10
20.3374
 20
52.9807
 10
18.9435
 20
53.4949
 10
17.5367
 20
53.9725
 10
16.1179
 20
54.413
 10
14.688
 20
54.8163
 10
13.248
 20
55.182
 10
11.799
 20
55.5099
 10
10.3419
 20
55.7997
 10
8.87766
 20
56.0513
 10
8.15468
 20
56.1561
 10
8.1436
 20
56.2051
 10
8.08963
 20
56.4176
 10
8.03012
 20
56.6286
 10
7.9651
 20
56.838
 10
7.89462
 20
57.0456
 10
7.81874
 20
57.2513
 10
7.73749
 20
57.455
 10
7.65094
 20
57.6564
 10
7.55915
 20
57.8555
 10
7.46218
 20
58.0522
 10
7.36009
 20
58.2462
 10
7.25296
 20
58.4375
 10
7.14086
 20
58.6259
 10
7.02387
 20
58.8114
 10
6.90206
 20
58.9937
 10
6.77552
 20
59.1727
 10
6.64433
 20
59.3484
 10
6.5086
 20
59.5206
 10
6.3684
 20
59.6891
 10
6.22384
 20
59.854
 10
6.07501
 20
60.015
 10
5.92202
 20
60.172
 10
5.76497
 20
60.325
 10
5.60397
 20
60.4738
 10
5.43913
 20
60.6184
 10
5.27056
 20
60.7586
 10
5.09838
 20
60.8943
 10
4.9227
 20
61.0255
 10
4.74365
 20
61.1521
 10
4.56135
 20
61.2739
 10
4.37593
 20
61.3909
 10
4.1875
 20
61.503
 10
3.9962
 20
61.6101
 10
3.80217
 20
61.7122
 10
3.60553
 20
61.8092
 10
3.40642
 20
61.9009
 10
3.20497
 20
61.9875
 10
3.00133
 20
62.0687
 10
2.79563
 20
62.1446
 10
2.58802
 20
62.2151
 10
2.37863
 20
62.2801
 10
2.16761
 20
62.3396
 10
1.9551
 20
62.3936
 10
1.74126
 20
62.442
 10
1.52622
 20
62.4848
 10
1.31014
 20
62.5219
 10
1.09316
 20
62.5534
 10
0.875426
 20
62.5791
 10
0.657095
 20
62.5992
 10
0.438314
 20
62.6135
 10
0.219232
 20
62.6221
 10
0
 20
62.625
 10
-0.219232
 20
62.6221
 10
-0.438314
 20
62.6135
 10
-0.657095
 20
62.5992
 10
-0.875426
 20
62.5791
 10
-1.09316
 20
62.5534
 10
-1.31014
 20
62.5219
 10
-1.52622
 20
62.4848
 10
-1.74126
 20
62.442
 10
-1.9551
 20
62.3936
 10
-2.16761
 20
62.3396
 10
-2.37863
 20
62.2801
 10
-2.58802
 20
62.2151
 10
-2.79563
 20
62.1446
 10
-3.00133
 20
62.0687
 10
-3.20497
 20
61.9875
 10
-3.40642
 20
61.9009
 10
-3.60553
 20
61.8092
 10
-3.80217
 20
61.7122
 10
-3.9962
 20
61.6101
 10
-4.1875
 20
61.503
 10
-4.37593
 20
61.3909
 10
-4.56135
 20
61.2739
 10
-4.74365
 20
61.1521
 10
-4.9227
 20
61.0255
 10
-5.09838
 20
60.8943
 10
-5.27056
 20
60.7586
 10
-5.43913
 20
60.6184
 10
-5.60397
 20
60.4738
 10
-5.76497
 20
60.325
 10
-5.92202
 20
60.172
 10
-6.07501
 20
60.015
 10
-6.22384
 20
59.854
 10
-6.3684
 20
59.6891
 10
-6.5086
 20
59.5206
 10
-6.64433
 20
59.3484
 10
-6.77552
 20
59.1727
 10
-6.90206
 20
58.9937
 10
-7.02387
 20
58.8114
 10
-7.14086
 20
58.6259
 10
-7.25296
 20
58.4375
 10
-7.36009
 20
58.2462
 10
-7.46218
 20
58.0522
 10
-7.55915
 20
57.8555
 10
-7.65094
 20
57.6564
 10
-7.73749
 20
57.455
 10
-7.81874
 20
57.2513
 10
-7.89462
 20
57.0456
 10
-7.9651
 20
56.838
 10
-8.03012
 20
56.6286
 10
-8.08963
 20
56.4176
 10
-8.1436
 20
56.2051
 10
-8.15468
 20
56.1561
 10
-8.87766
 20
56.0513
 10
-10.3419
 20
55.7997
 10
-11.799
 20
55.5099
 10
-13.248
 20
55.182
 10
-14.688
 20
54.8163
 10
-16.1179
 20
54.413
 10
-17.5367
 20
53.9725
 10
-18.9435
 20
53.4949
 10
-20.3374
 20
52.9807
 10
-21.7173
 20
52.4302
 10
-23.0823
 20
51.8437
 10
-24.4315
 20
51.2217
 10
-25.764
 20
50.5646
 10
-27.0788
 20
49.8729
 10
-28.375
 20
49.1469
 10
-29.6518
 20
48.3873
 10
-30.9083
 20
47.5946
 10
-32.1436
 20
46.7692
 10
-33.3568
 20
45.9117
 10
-34.5472
 20
45.0228
 10
-35.7139
 20
44.103
 10
-36.8562
 20
43.153
 10
-37.9732
 20
42.1735
 10
-39.0641
 20
41.165
 10
-40.1283
 20
40.1283
 10
-41.165
 20
39.0641
 10
-42.1735
 20
37.9732
 10
-43.153
 20
36.8562
 10
-44.103
 20
35.7139
 10
-45.0228
 20
34.5472
 10
-45.9117
 20
33.3568
 10
-46.7692
 20
32.1436
 10
-47.5946
 20
30.9083
 10
-48.3873
 20
29.6518
 10
-49.1469
 20
28.375
 10
-49.8729
 20
27.0788
 10
-50.5646
 20
25.764
 10
-51.2217
 20
24.4315
 10
-51.8437
 20
23.0823
 10
-52.4302
 20
21.7173
 10
-52.9807
 20
20.3374
 10
-53.4949
 20
18.9435
 10
-53.9725
 20
17.5367
 10
-54.413
 20
16.1179
 10
-54.8163
 20
14.688
 10
-55.182
 20
13.248
 10
-55.5099
 20
11.799
 10
-55.7997
 20
10.3419
 10
-56.0513
 20
8.87766
 10
-56.1561
 20
8.15468
 10
-56.2051
 20
8.1436
 10
-56.4176
 20
8.08963
 10
-56.6286
 20
8.03012
 10
-56.838
 20
7.9651
 10
-57.0456
 20
7.89462
 10
-57.2513
 20
7.81874
 10
-57.455
 20
7.73749
 10
-57.6564
 20
7.65094
 10
-57.8555
 20
7.55915
 10
-58.0522
 20
7.46218
 10
-58.2462
 20
7.36009
 10
-58.4375
 20
7.25296
 10
-58.6259
 20
7.14086
 10
-58.8114
 20
7.02387
 10
-58.9937
 20
6.90206
 10
-59.1727
 20
6.77552
 10
-59.3484
 20
6.64433
 10
-59.5206
 20
6.5086
 10
-59.6891
 20
6.3684
 10
-59.854
 20
6.22384
 10
-60.015
 20
6.07501
 10
-60.172
 20
5.92202
 10
-60.325
 20
5.76497
 10
-60.4738
 20
5.60397
 10
-60.6184
 20
5.43913
 10
-60.7586
 20
5.27056
 10
-60.8943
 20
5.09838
 10
-61.0255
 20
4.9227
 10
-61.1521
 20
4.74365
 10
-61.2739
 20
4.56135
 10
-61.3909
 20
4.37593
 10
-61.503
 20
4.1875
 10
-61.6101
 20
3.9962
 10
-61.7122
 20
3.80217
 10
-61.8092
 20
3.60553
 10
-61.9009
 20
3.40642
 10
-61.9875
 20
3.20497
 10
-62.0687
 20
3.00133
 10
-62.1446
 20
2.79563
 10
-62.2151
 20
2.58802
 10
-62.2801
 20
2.37863
 10
-62.3396
 20
2.16761
 10
-62.3936
 20
1.9551
 10
-62.442
 20
1.74126
 10
-62.4848
 20
1.52622
 10
-62.5219
 20
1.31014
 10
-62.5534
 20
1.09316
 10
-62.5791
 20
0.875426
 10
-62.5992
 20
0.657095
 10
-62.6135
 20
0.438314
 10
-62.6221
 20
0.219232
 10
-62.625
 20
0
 10
-62.6221
 20
-0.219232
 10
-62.6135
 20
-0.438314
 10
-62.5992
 20
-0.657095
 10
-62.5791
 20
-0.875426
 10
-62.5534
 20
-1.09316
 10
-62.5219
 20
-1.31014
 10
-62.4848
 20
-1.52622
 10
-62.442
 20
-1.74126
 10
-62.3936
 20
-1.9551
 10
-62.3396
 20
-2.16761
 10
-62.2801
 20
-2.37863
 10
-62.2151
 20
-2.58802
 10
-62.1446
 20
-2.79563
 10
-62.0687
 20
-3.00133
 10
-61.9875
 20
-3.20497
 10
-61.9009
 20
-3.40642
 10
-61.8092
 20
-3.60553
 10
-61.7122
 20
-3.80217
 10
-61.6101
 20
-3.9962
 10
-61.503
 20
-4.1875
 10
-61.3909
 20
-4.37593
 10
-61.2739
 20
-4.56135
 10
-61.1521
 20
-4.74365
 10
-61.0255
 20
-4.9227
 10
-60.8943
 20
-5.09838
 10
-60.7586
 20
-5.27056
 10
-60.6184
 20
-5.43913
 10
-60.4738
 20
-5.60397
 10
-60.325
 20
-5.76497
 10
-60.172
 20
-5.92202
 10
-60.015
 20
-6.07501
 10
-59.854
 20
-6.22384
 10
-59.6891
 20
-6.3684
 10
-59.5206
 20
-6.5086
 10
-59.3484
 20
-6.64433
 10
-59.1727
 20
-6.77552
 10
-58.9937
 20
-6.90206
 10
-58.8114
 20
-7.02387
 10
-58.6259
 20
-7.14086
 10
-58.4375
 20
-7.25296
 10
-58.2462
 20
-7.36009
 10
-58.0522
 20
-7.46218
 10
-57.8555
 20
-7.55915
 10
-57.6564
 20
-7.65094
 10
-57.455
 20
-7.73749
 10
-57.2513
 20
-7.81874
 10
-57.0456
 20
-7.89462
 10
-56.838
 20
-7.9651
 10
-56.6286
 20
-8.03012
 10
-56.4176
 20
-8.08963
 10
-56.2051
 20
-8.1436
 10
-56.1561
 20
-8.15468
 10
-56.0513
 20
-8.87766
 10
-55.7997
 20
-10.3419
 10
-55.5099
 20
-11.799
 10
-55.182
 20
-13.248
 10
-54.8163
 20
-14.688
 10
-54.413
 20
-16.1179
 10
-53.9725
 20
-17.5367
 10
-53.4949
 20
-18.9435
 10
-52.9807
 20
-20.3374
 10
-52.4302
 20
-21.7173
 10
-51.8437
 20
-23.0823
 10
-51.2217
 20
-24.4315
 10
-50.5646
 20
-25.764
 10
-49.8729
 20
-27.0788
 10
-49.1469
 20
-28.375
 10
-48.3873
 20
-29.6518
 10
-47.5946
 20
-30.9083
 10
-46.7692
 20
-32.1436
 10
-45.9117
 20
-33.3568
 10
-45.0228
 20
-34.5472
 10
-44.103
 20
-35.7139
 10
-43.153
 20
-36.8562
 10
-42.1735
 20
-37.9732
 10
-41.165
 20
-39.0641
 10
-40.1283
 20
-40.1283
 10
-39.0641
 20
-41.165
 10
-37.9732
 20
-42.1735
 10
-36.8562
 20
-43.153
 10
-35.7139
 20
-44.103
 10
-34.5472
 20
-45.0228
 10
-33.3568
 20
-45.9117
 10
-32.1436
 20
-46.7692
 10
-30.9083
 20
-47.5946
 10
-29.6518
 20
-48.3873
 10
-28.375
 20
-49.1469
 10
-27.0788
 20
-49.8729
 10
-25.764
 20
-50.5646
 10
-24.4315
 20
-51.2217
 10
-23.0823
 20
-51.8437
 10
-21.7173
 20
-52.4302
 10
-20.3374
 20
-52.9807
 10
-18.9435
 20
-53.4949
 10
-17.5367
 20
-53.9725
 10
-16.1179
 20
-54.413
 10
-14.688
 20
-54.8163
 10
-13.248
 20
-55.182
 10
-11.799
 20
-55.5099
 10
-10.3419
 20
-55.7997
 10
-8.87766
 20
-56.0513
 10
-8.15468
 20
-56.1561
 10
-8.1436
 20
-56.2051
 10
-8.08963
 20
-56.4176
 10
-8.03012
 20
-56.6286
 10
-7.9651
 20
-56.838
 10
-7.89462
 20
-57.0456
 10
-7.81874
 20
-57.2513
 10
-7.73749
 20
-57.455
 10
-7.65094
 20
-57.6564
 10
-7.55915
 20
-57.8555
 10
-7.46218
 20
-58.0522
 10
-7.36009
 20
-58.2462
 10
-7.25296
 20
-58.4375
 10
-7.14086
 20
-58.6259
 10
-7.02387
 20
-58.8114
 10
-6.90206
 20
-58.9937
 10
-6.77552
 20
-59.1727
 10
-6.64433
 20
-59.3484
 10
-6.5086
 20
-59.5206
 10
-6.3684
 20
-59.6891
 10
-6.22384
 20
-59.854
 10
-6.07501
 20
-60.015
 10
-5.92202
 20
-60.172
 10
-5.76497
 20
-60.325
 10
-5.60397
 20
-60.4738
 10
-5.43913
 20
-60.6184
 10
-5.27056
 20
-60.7586
 10
-5.09838
 20
-60.8943
 10
-4.9227
 20
-61.0255
 10
-4.74365
 20
-61.1521
 10
-4.56135
 20
-61.2739
 10
-4.37593
 20
-61.3909
 10
-4.1875
 20
-61.503
 10
-3.9962
 20
-61.6101
 10
-3.80217
 20
-61.7122
 10
-3.60553
 20
-61.8092
 10
-3.40642
 20
-61.9009
 10
-3.20497
 20
-61.9875
 10
-3.00133
 20
-62.0687
 10
-2.79563
 20
-62.1446
 10
-2.58802
 20
-62.2151
 10
-2.37863
 20
-62.2801
 10
-2.16761
 20
-62.3396
 10
-1.9551
 20
-62.3936
 10
-1.74126
 20
-62.442
 10
-1.52622
 20
-62.4848
 10
-1.31014
 20
-62.5219
 10
-1.09316
 20
-62.5534
 10
-0.875426
 20
-62.5791
 10
-0.657095
 20
-62.5992
 10
-0.438314
 20
-62.6135
 10
-0.219232
 20
-62.6221
 10
0
 20
-62.625
  0
LWPOLYLINE
100
AcDbEntity
  8
0
100
AcDbPolyline
 90
64
 70
1
 10
1.48554
 20
56.7306
 10
0
 20
56.75
 10
-1.48554
 20
56.7306
 10
-2.32373
 20
56.6976
 10
-2.3232
 20
56.6981
 10
-2.25832
 20
56.7581
 10
-2.19189
 20
56.8164
 10
-2.12396
 20
56.8729
 10
-2.05457
 20
56.9276
 10
-1.98378
 20
56.9804
 10
-1.91162
 20
57.0314
 10
-1.83816
 20
57.0805
 10
-1.76343
 20
57.1277
 10
-1.6875
 20
57.1728
 10
-1.61041
 20
57.216
 10
-1.53222
 20
57.2571
 10
-1.45297
 20
57.2962
 10
-1.37274
 20
57.3332
 10
-1.29156
 20
57.3681
 10
-1.20949
 20
57.4008
 10
-1.1266
 20
57.4314
 10
-1.04293
 20
57.4598
 10
-0.958552
 20
57.486
 10
-0.873514
 20
57.51
 10
-0.787878
 20
57.5317
 10
-0.701702
 20
57.5512
 10
-0.615045
 20
57.5685
 10
-0.527966
 20
57.5834
 10
-0.440526
 20
57.5961
 10
-0.352784
 20
57.6065
 10
-0.264799
 20
57.6146
 10
-0.176634
 20
57.6204
 10
-0.0883472
 20
57.6238
 10
0
 20
57.625
 10
0.0883472
 20
57.6238
 10
0.176634
 20
57.6204
 10
0.264799
 20
57.6146
 10
0.352784
 20
57.6065
 10
0.440526
 20
57.5961
 10
0.527966
 20
57.5834
 10
0.615045
 20
57.5685
 10
0.701702
 20
57.5512
 10
0.787878
 20
57.5317
 10
0.873514
 20
57.51
 10
0.958552
 20
57.486
 10
1.04293
 20
57.4598
 10
1.1266
 20
57.4314
 10
1.20949
 20
57.4008
 10
1.29156
 20
57.3681
 10
1.37274
 20
57.3332
 10
1.45297
 20
57.2962
 10
1.53222
 20
57.2571
 10
1.61041
 20
57.216
 10
1.6875
 20
57.1728
 10
1.76343
 20
57.1277
 10
1.83816
 20
57.0805
 10
1.91162
 20
57.0314
 10
1.98378
 20
56.9804
 10
2.05457
 20
56.9276
 10
2.12396
 20
56.8729
 10
2.19189
 20
56.8164
 10
2.25832
 20
56.7581
 10
2.3232
 20
56.6981
 10
2.32373
 20
56.6976
  0
LWPOLYLINE
100
AcDbEntity
  8
0
100
AcDbPolyline
 90
240
 70
1
 10
-1.35466
 20
-51.7323
 10
-2.70839
 20
-51.6791
 10
-4.06026
 20
-51.5905
 10
-5.40935
 20
-51.4665
 10
-6.75473
 20
-51.3073
 10
-8.09548
 20
-51.1129
 10
-9.43069
 20
-50.8834
 10
-10.7594
 20
-50.6191
 10
-12.0808
 20
-50.3201
 10
-13.3939
 20
-49.9867
 10
-14.6978
 20
-49.6189
 10
-15.9916
 20
-49.2172
 10
-17.2745
 20
-48.7817
 10
-18.5455
 20
-48.3128
 10
-19.8039
 20
-47.8108
 10
-21.0486
 20
-47.276
 10
-22.2789
 20
-46.7088
 10
-23.494
 20
-46.1096
 10
-24.693
 20
-45.4788
 10
-25.875
 20
-44.8168
 10
-27.0393
 20
-44.1241
 10
-28.1851
 20
-43.4012
 10
-29.3115
 20
-42.6485
 10
-30.4179
 20
-41.8666
 10
-31.5034
 20
-41.056
 10
-32.5673
 20
-40.2173
 10
-33.6089
 20
-39.351
 10
-34.6275
 20
-38.4577
 10
-35.6223
 20
-37.5381
 10
-36.5928
 20
-36.5928
 10
-37.5381
 20
-35.6223
 10
-38.4577
 20
-34.6275
 10
-39.351
 20
-33.6089
 10
-40.2173
 20
-32.5673
 10
-41.056
 20
-31.5034
 10
-41.8666
 20
-30.4179
 10
-42.6485
 20
-29.3115
 10
-43.4012
 20
-28.1851
 10
-44.1241
 20
-27.0393
 10
-44.8168
 20
-25.875
 10
-45.4788
 20
-24.693
 10
-46.1096
 20
-23.494
 10
-46.7088
 20
-22.2789
 10
-47.276
 20
-21.0486
 10
-47.8108
 20
-19.8039
 10
-48.3128
 20
-18.5455
 10
-48.7817
 20
-17.2745
 10
-49.2172
 20
-15.9916
 10
-49.6189
 20
-14.6978
 10
-49.9867
 20
-13.3939
 10
-50.3201
 20
-12.0808
 10
-50.6191
 20
-10.7594
 10
-50.8834
 20
-9.43069
 10
-51.1129
 20
-8.09548
 10
-51.3073
 20
-6.75473
 10
-51.4665
 20
-5.40935
 10
-51.5905
 20
-4.06026
 10
-51.6791
 20
-2.70839
 10
-51.7323
 20
-1.35466
 10
-51.75
 20
0
 10
-51.7323
 20
1.35466
 10
-51.6791
 20
2.70839
 10
-51.5905
 20
4.06026
 10
-51.4665
 20
5.40935
 10
-51.3073
 20
6.75473
 10
-51.1129
 20
8.09548
 10
-50.8834
 20
9.43069
 10
-50.6191
 20
10.7594
 10
-50.3201
 20
12.0808
 10
-49.9867
 20
13.3939
 10
-49.6189
 20
14.6978
 10
-49.2172
 20
15.9916
 10
-48.7817
 20
17.2745
 10
-48.3128
 20
18.5455
 10
-47.8108
 20
19.8039
 10
-47.276
 20
21.0486
 10
-46.7088
 20
22.2789
 10
-46.1096
 20
23.494
 10
-45.4788
 20
24.693
 10
-44.8168
 20
25.875
 10
-44.1241
 20
27.0393
 10
-43.4012
 20
28.1851
 10
-42.6485
 20
29.3115
 10
-41.8666
 20
30.4179
 10
-41.056
 20
31.5034
 10
-40.2173
 20
32.5673
 10
-39.351
 20
33.6089
 10
-38.4577
 20
34.6275
 10
-37.5381
 20
35.6223
 10
-36.5928
 20
36.5928
 10
-35.6223
 20
37.5381
 10
-34.6275
 20
38.4577
 10
-33.6089
 20
39.351
 10
-32.5673
 20
40.2173
 10
-31.5034
 20
41.056
 10
-30.4179
 20
41.8666
 10
-29.3115
 20
42.6485
 10
-28.1851
 20
43.4012
 10
-27.0393
 20
44.1241
 10
-25.875
 20
44.8168
 10
-24.693
 20
45.4788
 10
-23.494
 20
46.1096
 10
-22.2789
 20
46.7088
 10
-21.0486
 20
47.276
 10
-19.8039
 20
47.8108
 10
-18.5455
 20
48.3128
 10
-17.2745
 20
48.7817
 10
-15.9916
 20
49.2172
 10
-14.6978
 20
49.6189
 10
-13.3939
 20
49.9867
 10
-12.0808
 20
50.3201
 10
-10.7594
 20
50.6191
 10
-9.43069
 20
50.8834
 10
-8.09548
 20
51.1129
 10
-6.75473
 20
51.3073
 10
-5.40935
 20
51.4665
 10
-4.06026
 20
51.5905
 10
-2.70839
 20
51.6791
 10
-1.35466
 20
51.7323
 10
0
 20
51.75
 10
1.35466
 20
51.7323
 10
2.70839
 20
51.6791
 10
4.06026
 20
51.5905
 10
5.40935
 20
51.4665
 10
6.75473
 20
51.3073
 10
8.09548
 20
51.1129
 10
9.43069
 20
50.8834
 10
10.7594
 20
50.6191
 10
12.0808
 20
50.3201
 10
13.3939
 20
49.9867
 10
14.6978
 20
49.6189
 10
15.9916
 20
49.2172
 10
17.2745
 20
48.7817
 10
18.5455
 20
48.3128
 10
19.8039
 20
47.8108
 10
21.0486
 20
47.276
 10
22.2789
 20
46.7088
 10
23.494
 20
46.1096
 10
24.693
 20
45.4788
 10
25.875
 20
44.8168
 10
27.0393
 20
44.1241
 10
28.1851
 20
43.4012
 10
29.3115
 20
42.6485
 10
30.4179
 20
41.8666
 10
31.5034
 20
41.056
 10
32.5673
 20
40.2173
 10
33.6089
 20
39.351
 10
34.6275
 20
38.4577
 10
35.6223
 20
37.5381
 10
36.5928
 20
36.5928
 10
37.5381
 20
35.6223
 10
38.4577
 20
34.6275
 10
39.351
 20
33.6089
 10
40.2173
 20
32.5673
 10
41.056
 20
31.5034
 10
41.8666
 20
30.4179
 10
42.6485
 20
29.3115
 10
43.4012
 20
28.1851
 10
44.1241
 20
27.0393
 10
44.8168
 20
25.875
 10
45.4788
 20
24.693
 10
46.1096
 20
23.494
 10
46.7088
 20
22.2789
 10
47.276
 20
21.0486
 10
47.8108
 20
19.8039
 10
48.3128
 20
18.5455
 10
48.7817
 20
17.2745
 10
49.2172
 20
15.9916
 10
49.6189
 20
14.6978
 10
49.9867
 20
13.3939
 10
50.3201
 20
12.0808
 10
50.6191
 20
10.7594
 10
50.8834
 20
9.43069
 10
51.1129
 20
8.09548
 10
51.3073
 20
6.75473
 10
51.4665
 20
5.40935
 10
51.5905
 20
4.06026
 10
51.6791
 20
2.70839
 10
51.7323
 20
1.35466
 10
51.75
 20
0
 10
51.7323
 20
-1.35466
 10
51.6791
 20
-2.70839
 10
51.5905
 20
-4.06026
 10
51.4665
 20
-5.40935
 10
51.3073
 20
-6.75473
 10
51.1129
 20
-8.09548
 10
50.8834
 20
-9.43069
 10
50.6191
 20
-10.7594
 10
50.3201
 20
-12.0808
 10
49.9867
 20
-13.3939
 10
49.6189
 20
-14.6978
 10
49.2172
 20
-15.9916
 10
48.7817
 20
-17.2745
 10
48.3128
 20
-18.5455
 10
47.8108
 20
-19.8039
 10
47.276
 20
-21.0486
 10
46.7088
 20
-22.2789
 10
46.1096
 20
-23.494
 10
45.4788
 20
-24.693
 10
44.8168
 20
-25.875
 10
44.1241
 20
-27.0393
 10
43.4012
 20
-28.1851
 10
42.6485
 20
-29.3115
 10
41.8666
 20
-30.4179
 10
41.056
 20
-31.5034
 10
40.2173
 20
-32.5673
 10
39.351
 20
-33.6089
 10
38.4577
 20
-34.6275
 10
37.5381
 20
-35.6223
 10
36.5928
 20
-36.5928
 10
35.6223
 20
-37.5381
 10
34.6275
 20
-38.4577
 10
33.6089
 20
-39.351
 10
32.5673
 20
-40.2173
 10
31.5034
 20
-41.056
 10
30.4179
 20
-41.8666
 10
29.3115
 20
-42.6485
 10
28.1851
 20
-43.4012
 10
27.0393
 20
-44.1241
 10
25.875
 20
-44.8168
 10
24.693
 20
-45.4788
 10
23.494
 20
-46.1096
 10
22.2789
 20
-46.7088
 10
21.0486
 20
-47.276
 10
19.8039
 20
-47.8108
 10
18.5455
 20
-48.3128
 10
17.2745
 20
-48.7817
 10
15.9916
 20
-49.2172
 10
14.6978
 20
-49.6189
 10
13.3939
 20
-49.9867
 10
12.0808
 20
-50.3201
 10
10.7594
 20
-50.6191
 10
9.43069
 20
-50.8834
 10
8.09548
 20
-51.1129
 10
6.75473
 20
-51.3073
 10
5.40935
 20
-51.4665
 10
4.06026
 20
-51.5905
 10
2.70839
 20
-51.6791
 10
1.35466
 20
-51.7323
 10
0
 20
-51.75
  0
LWPOLYLINE
100
AcDbEntity
  8
0
100
AcDbPolyline
 90
64
 70
1
 10
-56.6981
 20
-2.3232
 10
-56.7581
 20
-2.25832
 10
-56.8164
 20
-2.19189
 10
-56.8729
 20
-2.12396
 10
-56.9276
 20
-2.05457
 10
-56.9804
 20
-1.98378
 10
-57.0314
 20
-1.91162
 10
-57.0805
 20
-1.83816
 10
-57.1277
 20
-1.76343
 10
-57.1728
 20
-1.6875
 10
-57.216
 20
-1.61041
 10
-57.2571
 20
-1.53222
 10
-57.2962
 20
-1.45297
 10
-57.3332
 20
-1.37274
 10
-57.3681
 20
-1.29156
 10
-57.4008
 20
-1.20949
 10
-57.4314
 20
-1.1266
 10
-57.4598
 20
-1.04293
 10
-57.486
 20
-0.958552
 10
-57.51
 20
-0.873514
 10
-57.5317
 20
-0.787878
 10
-57.5512
 20
-0.701702
 10
-57.5685
 20
-0.615045
 10
-57.5834
 20
-0.527966
 10
-57.5961
 20
-0.440526
 10
-57.6065
 20
-0.352784
 10
-57.6146
 20
-0.264799
 10
-57.6204
 20
-0.176634
 10
-57.6238
 20
-0.0883472
 10
-57.625
 20
0
 10
-57.6238
 20
0.0883472
 10
-57.6204
 20
0.176634
 10
-57.6146
 20
0.264799
 10
-57.6065
 20
0.352784
 10
-57.5961
 20
0.440526
 10
-57.5834
 20
0.527966
 10
-57.5685
 20
0.615045
 10
-57.5512
 20
0.701702
 10
-57.5317
 20
0.787878
 10
-57.51
 20
0.873514
 10
-57.486
 20
0.958552
 10
-57.4598
 20
1.04293
 10
-57.4314
 20
1.1266
 10
-57.4008
 20
1.20949
 10
-57.3681
 20
1.29156
 10
-57.3332
 20
1.37274
 10
-57.2962
 20
1.45297
 10
-57.2571
 20
1.53222
 10
-57.216
 20
1.61041
 10
-57.1728
 20
1.6875
 10
-57.1277
 20
1.76343
 10
-57.0805
 20
1.83816
 10
-57.0314
 20
1.91162
 10
-56.9804
 20
1.98378
 10
-56.9276
 20
2.05457
 10
-56.8729
 20
2.12396
 10
-56.8164
 20
2.19189
 10
-56.7581
 20
2.25832
 10
-56.6981
 20
2.3232
 10
-56.6976
 20
2.32373
 10
-56.7306
 20
1.48554
 10
-56.75
 20
0
 10
-56.7306
 20
-1.48554
 10
-56.6976
 20
-2.32373
  0
LWPOLYLINE
100
AcDbEntity
  8
0
100
AcDbPolyline
 90
64
 70
1
 10
56.7306
 20
-1.48554
 10
56.75
 20
0
 10
56.7306
 20
1.48554
 10
56.6976
 20
2.32373
 10
56.6981
 20
2.3232
 10
56.7581
 20
2.25832
 10
56.8164
 20
2.19189
 10
56.8729
 20
2.12396
 10
56.9276
 20
2.05457
 10
56.9804
 20
1.98378
 10
57.0314
 20
1.91162
 10
57.0805
 20
1.83816
 10
57.1277
 20
1.76343
 10
57.1728
 20
1.6875
 10
57.216
 20
1.61041
 10
57.2571
 20
1.53222
 10
57.2962
 20
1.45297
 10
57.3332
 20
1.37274
 10
57.3681
 20
1.29156
 10
57.4008
 20
1.20949
 10
57.4314
 20
1.1266
 10
57.4598
 20
1.04293
 10
57.486
 20
0.958552
 10
57.51
 20
0.873514
 10
57.5317
 20
0.787878
 10
57.5512
 20
0.701702
 10
57.5685
 20
0.615045
 10
57.5834
 20
0.527966
 10
57.5961
 20
0.440526
 10
57.6065
 20
0.352784
 10
57.6146
 20
0.264799
 10
57.6204
 20
0.176634
 10
57.6238
 20
0.0883472
 10
57.625
 20
0
 10
57.6238
 20
-0.0883472
 10
57.6204
 20
-0.176634
 10
57.6146
 20
-0.264799
 10
57.6065
 20
-0.352784
 10
57.5961
 20
-0.440526
 10
57.5834
 20
-0.527966
 10
57.5685
 20
-0.615045
 10
57.5512
 20
-0.701702
 10
57.5317
 20
-0.787878
 10
57.51
 20
-0.873514
 10
57.486
 20
-0.958552
 10
57.4598
 20
-1.04293
 10
57.4314
 20
-1.1266
 10
57.4008
 20
-1.20949
 10
57.3681
 20
-1.29156
 10
57.3332
 20
-1.37274
 10
57.2962
 20
-1.45297
 10
57.2571
 20
-1.53222
 10
57.216
 20
-1.61041
 10
57.1728
 20
-1.6875
 10
57.1277
 20
-1.76343
 10
57.0805
 20
-1.83816
 10
57.0314
 20
-1.91162
 10
56.9804
 20
-1.98378
 10
56.9276
 20
-2.05457
 10
56.8729
 20
-2.12396
 10
56.8164
 20
-2.19189
 10
56.7581
 20
-2.25832
 10
56.6981
 20
-2.3232
 10
56.6976
 20
-2.32373
  0
LWPOLYLINE
100
AcDbEntity
  8
0
100
AcDbPolyline
 90
64
 70
1
 10
-0.0883472
 20
-57.6238
 10
-0.176634
 20
-57.6204
 10
-0.264799
 20
-57.6146
 10
-0.352784
 20
-57.6065
 10
-0.440526
 20
-57.5961
 10
-0.527966
 20
-57.5834
 10
-0.615045
 20
-57.5685
 10
-0.701702
 20
-57.5512
 10
-0.787878
 20
-57.5317
 10
-0.873514
 20
-57.51
 10
-0.958552
 20
-57.486
 10
-1.04293
 20
-57.4598
 10
-1.1266
 20
-57.4314
 10
-1.20949
 20
-57.4008
 10
-1.29156
 20
-57.3681
 10
-1.37274
 20
-57.3332
 10
-1.45297
 20
-57.2962
 10
-1.53222
 20
-57.2571
 10
-1.61041
 20
-57.216
 10
-1.6875
 20
-57.1728
 10
-1.76343
 20
-57.1277
 10
-1.83816
 20
-57.0805
 10
-1.91162
 20
-57.0314
 10
-1.98378
 20
-56.9804
 10
-2.05457
 20
-56.9276
 10
-2.12396
 20
-56.8729
 10
-2.19189
 20
-56.8164
 10
-2.25832
 20
-56.7581
 10
-2.3232
 20
-56.6981
 10
-2.32373
 20
-56.6976
 10
-1.48554
 20
-56.7306
 10
0
 20
-56.75
 10
1.48554
 20
-56.7306
 10
2.32373
 20
-56.6976
 10
2.3232
 20
-56.6981
 10
2.25832
 20
-56.7581
 10
2.19189
 20
-56.8164
 10
2.12396
 20
-56.8729
 10
2.05457
 20
-56.9276
 10
1.98378
 20
-56.9804
 10
1.91162
 20
-57.0314
 10
1.83816
 20
-57.0805
 10
1.76343
 20
-57.1277
 10
1.6875
 20
-57.1728
 10
1.61041
 20
-57.216
 10
1.53222
 20
-57.2571
 10
1.45297
 20
-57.2962
 10
1.37274
 20
-57.3332
 10
1.29156
 20
-57.3681
 10
1.20949
 20
-57.4008
 10
1.1266
 20
-57.4314
 10
1.04293
 20
-57.4598
 10
0.958552
 20
-57.486
 10
0.873514
 20
-57.51
 10
0.787878
 20
-57.5317
 10
0.701702
 20
-57.5512
 10
0.615045
 20
-57.5685
 10
0.527966
 20
-57.5834
 10
0.440526
 20
-57.5961
 10
0.352784
 20
-57.6065
 10
0.264799
 20
-57.6146
 10
0.176634
 20
-57.6204
 10
0.0883472
 20
-57.6238
 10
0
 20
-57.625
  0
ENDSEC
  0
EOF
