999
DXF from OpenSCAD
  0
SECTION
  2
HEADER
  9
$ACADVER
  1
AC1006
  9
$INSBASE
 10
0.0
 20
0.0
 30
0.0
  9
$EXTMIN
 10
-125.25
 20
-125.25
  9
$EXTMAX
 10
125.25
 20
125.25
  9
$LINMIN
 10
-125.25
 20
-125.25
  9
$LINMAX
 10
125.25
 20
125.25
  0
ENDSEC
  0
SECTION
  2
TABLES
  0
TABLE
  2
LTYPE
 70
1
  0
LTYPE
  2
CONTINUOUS
 70
64
  3
Solid line
 72
65
 73
0
 40
0.000000
  0
ENDTAB
  0
TABLE
  2
LAYER
 70
6
  0
LAYER
  2
0
 70
64
 62
7
  6
CONTINUOUS
  0
ENDTAB
  0
TABLE
  2
STYLE
 70
0
  0
ENDTAB
  0
ENDSEC
  0
SECTION
  2
BLOCKS
  0
ENDSEC
  0
SECTION
  2
ENTITIES
  0
LWPOLYLINE
100
AcDbEntity
  8
0
100
AcDbPolyline
 90
656
 70
1
 10
0.373022
 20
-125.245
 10
0.745787
 20
-125.23
 10
1.11804
 20
-125.206
 10
1.48953
 20
-125.172
 10
1.86
 20
-125.128
 10
2.22919
 20
-125.075
 10
2.59686
 20
-125.011
 10
2.96274
 20
-124.939
 10
3.3266
 20
-124.856
 10
3.68817
 20
-124.764
 10
4.04722
 20
-124.663
 10
4.40349
 20
-124.553
 10
4.75675
 20
-124.433
 10
5.10674
 20
-124.304
 10
5.45324
 20
-124.165
 10
5.796
 20
-124.018
 10
6.13478
 20
-123.862
 10
6.46936
 20
-123.697
 10
6.79951
 20
-123.523
 10
7.125
 20
-123.341
 10
7.4456
 20
-123.15
 10
7.76111
 20
-122.951
 10
8.07129
 20
-122.744
 10
8.37594
 20
-122.528
 10
8.67485
 20
-122.305
 10
8.96782
 20
-122.074
 10
9.25463
 20
-121.836
 10
9.53511
 20
-121.59
 10
9.80905
 20
-121.337
 10
10.0763
 20
-121.076
 10
10.3366
 20
-120.809
 10
10.5898
 20
-120.535
 10
10.8358
 20
-120.255
 10
11.0743
 20
-119.968
 10
11.3053
 20
-119.675
 10
11.5285
 20
-119.376
 10
11.7438
 20
-119.071
 10
11.9511
 20
-118.761
 10
12.1501
 20
-118.446
 10
12.3409
 20
-118.125
 10
12.5231
 20
-117.8
 10
12.6968
 20
-117.469
 10
12.8618
 20
-117.135
 10
13.018
 20
-116.796
 10
13.1653
 20
-116.453
 10
13.3035
 20
-116.107
 10
13.4326
 20
-115.757
 10
13.5526
 20
-115.403
 10
13.6632
 20
-115.047
 10
13.7644
 20
-114.688
 10
13.8563
 20
-114.327
 10
13.9386
 20
-113.963
 10
14.0114
 20
-113.597
 10
14.0746
 20
-113.229
 10
14.1281
 20
-112.86
 10
14.1581
 20
-112.607
 10
14.8147
 20
-112.529
 10
17.7553
 20
-112.103
 10
20.6837
 20
-111.599
 10
23.598
 20
-111.02
 10
26.496
 20
-110.364
 10
29.376
 20
-109.633
 10
32.2357
 20
-108.826
 10
35.0734
 20
-107.945
 10
37.8871
 20
-106.99
 10
40.6748
 20
-105.961
 10
43.4346
 20
-104.86
 10
46.1646
 20
-103.687
 10
48.863
 20
-102.443
 10
51.5279
 20
-101.129
 10
54.1575
 20
-99.7457
 10
56.75
 20
-98.2939
 10
59.3036
 20
-96.7747
 10
61.8165
 20
-95.1891
 10
64.2871
 20
-93.5383
 10
66.7136
 20
-91.8234
 10
69.0944
 20
-90.0456
 10
71.4279
 20
-88.2061
 10
73.7124
 20
-86.3061
 10
75.9463
 20
-84.3469
 10
78.1282
 20
-82.33
 10
80.2566
 20
-80.2566
 10
82.33
 20
-78.1282
 10
84.3469
 20
-75.9463
 10
86.3061
 20
-73.7124
 10
88.2061
 20
-71.4279
 10
90.0456
 20
-69.0944
 10
91.8234
 20
-66.7136
 10
93.5383
 20
-64.2871
 10
95.1891
 20
-61.8165
 10
96.7747
 20
-59.3036
 10
98.2939
 20
-56.75
 10
99.7457
 20
-54.1575
 10
101.129
 20
-51.5279
 10
102.443
 20
-48.863
 10
103.687
 20
-46.1646
 10
104.86
 20
-43.4346
 10
105.961
 20
-40.6748
 10
106.99
 20
-37.8871
 10
107.945
 20
-35.0734
 10
108.826
 20
-32.2357
 10
109.633
 20
-29.376
 10
110.364
 20
-26.496
 10
111.02
 20
-23.598
 10
111.599
 20
-20.6837
 10
112.103
 20
-17.7553
 10
112.529
 20
-14.8147
 10
112.607
 20
-14.1581
 10
112.86
 20
-14.1281
 10
113.229
 20
-14.0746
 10
113.597
 20
-14.0114
 10
113.963
 20
-13.9386
 10
114.327
 20
-13.8563
 10
114.688
 20
-13.7644
 10
115.047
 20
-13.6632
 10
115.403
 20
-13.5526
 10
115.757
 20
-13.4326
 10
116.107
 20
-13.3035
 10
116.453
 20
-13.1653
 10
116.796
 20
-13.018
 10
117.135
 20
-12.8618
 10
117.469
 20
-12.6968
 10
117.8
 20
-12.5231
 10
118.125
 20
-12.3409
 10
118.446
 20
-12.1501
 10
118.761
 20
-11.9511
 10
119.071
 20
-11.7438
 10
119.376
 20
-11.5285
 10
119.675
 20
-11.3053
 10
119.968
 20
-11.0743
 10
120.255
 20
-10.8358
 10
120.535
 20
-10.5898
 10
120.809
 20
-10.3366
 10
121.076
 20
-10.0763
 10
121.337
 20
-9.80905
 10
121.59
 20
-9.53511
 10
121.836
 20
-9.25463
 10
122.074
 20
-8.96782
 10
122.305
 20
-8.67485
 10
122.528
 20
-8.37594
 10
122.744
 20
-8.07129
 10
122.951
 20
-7.76111
 10
123.15
 20
-7.4456
 10
123.341
 20
-7.125
 10
123.523
 20
-6.79951
 10
123.697
 20
-6.46936
 10
123.862
 20
-6.13478
 10
124.018
 20
-5.796
 10
124.165
 20
-5.45324
 10
124.304
 20
-5.10674
 10
124.433
 20
-4.75675
 10
124.553
 20
-4.40349
 10
124.663
 20
-4.04722
 10
124.764
 20
-3.68817
 10
124.856
 20
-3.3266
 10
124.939
 20
-2.96274
 10
125.011
 20
-2.59686
 10
125.075
 20
-2.22919
 10
125.128
 20
-1.86
 10
125.172
 20
-1.48953
 10
125.206
 20
-1.11804
 10
125.23
 20
-0.745787
 10
125.245
 20
-0.373022
 10
125.25
 20
0
 10
125.245
 20
0.373022
 10
125.23
 20
0.745787
 10
125.206
 20
1.11804
 10
125.172
 20
1.48953
 10
125.128
 20
1.86
 10
125.075
 20
2.22919
 10
125.011
 20
2.59686
 10
124.939
 20
2.96274
 10
124.856
 20
3.3266
 10
124.764
 20
3.68817
 10
124.663
 20
4.04722
 10
124.553
 20
4.40349
 10
124.433
 20
4.75675
 10
124.304
 20
5.10674
 10
124.165
 20
5.45324
 10
124.018
 20
5.796
 10
123.862
 20
6.13478
 10
123.697
 20
6.46936
 10
123.523
 20
6.79951
 10
123.341
 20
7.125
 10
123.15
 20
7.4456
 10
122.951
 20
7.76111
 10
122.744
 20
8.07129
 10
122.528
 20
8.37594
 10
122.305
 20
8.67485
 10
122.074
 20
8.96782
 10
121.836
 20
9.25463
 10
121.59
 20
9.53511
 10
121.337
 20
9.80905
 10
121.076
 20
10.0763
 10
120.809
 20
10.3366
 10
120.535
 20
10.5898
 10
120.255
 20
10.8358
 10
119.968
 20
11.0743
 10
119.675
 20
11.3053
 10
119.376
 20
11.5285
 10
119.071
 20
11.7438
 10
118.761
 20
11.9511
 10
118.446
 20
12.1501
 10
118.125
 20
12.3409
 10
117.8
 20
12.5231
 10
117.469
 20
12.6968
 10
117.135
 20
12.8618
 10
116.796
 20
13.018
 10
116.453
 20
13.1653
 10
116.107
 20
13.3035
 10
115.757
 20
13.4326
 10
115.403
 20
13.5526
 10
115.047
 20
13.6632
 10
114.688
 20
13.7644
 10
114.327
 20
13.8563
 10
113.963
 20
13.9386
 10
113.597
 20
14.0114
 10
113.229
 20
14.0746
 10
112.86
 20
14.1281
 10
112.607
 20
14.1581
 10
112.529
 20
14.8147
 10
112.103
 20
17.7553
 10
111.599
 20
20.6837
 10
111.02
 20
23.598
 10
110.364
 20
26.496
 10
109.633
 20
29.376
 10
108.826
 20
32.2357
 10
107.945
 20
35.0734
 10
106.99
 20
37.8871
 10
105.961
 20
40.6748
 10
104.86
 20
43.4346
 10
103.687
 20
46.1646
 10
102.443
 20
48.863
 10
101.129
 20
51.5279
 10
99.7457
 20
54.1575
 10
98.2939
 20
56.75
 10
96.7747
 20
59.3036
 10
95.1891
 20
61.8165
 10
93.5383
 20
64.2871
 10
91.8234
 20
66.7136
 10
90.0456
 20
69.0944
 10
88.2061
 20
71.4279
 10
86.3061
 20
73.7124
 10
84.3469
 20
75.9463
 10
82.33
 20
78.1282
 10
80.2566
 20
80.2566
 10
78.1282
 20
82.33
 10
75.9463
 20
84.3469
 10
73.7124
 20
86.3061
 10
71.4279
 20
88.2061
 10
69.0944
 20
90.0456
 10
66.7136
 20
91.8234
 10
64.2871
 20
93.5383
 10
61.8165
 20
95.1891
 10
59.3036
 20
96.7747
 10
56.75
 20
98.2939
 10
54.1575
 20
99.7457
 10
51.5279
 20
101.129
 10
48.863
 20
102.443
 10
46.1646
 20
103.687
 10
43.4346
 20
104.86
 10
40.6748
 20
105.961
 10
37.8871
 20
106.99
 10
35.0734
 20
107.945
 10
32.2357
 20
108.826
 10
29.376
 20
109.633
 10
26.496
 20
110.364
 10
23.598
 20
111.02
 10
20.6837
 20
111.599
 10
17.7553
 20
112.103
 10
14.8147
 20
112.529
 10
14.1581
 20
112.607
 10
14.1281
 20
112.86
 10
14.0746
 20
113.229
 10
14.0114
 20
113.597
 10
13.9386
 20
113.963
 10
13.8563
 20
114.327
 10
13.7644
 20
114.688
 10
13.6632
 20
115.047
 10
13.5526
 20
115.403
 10
13.4326
 20
115.757
 10
13.3035
 20
116.107
 10
13.1653
 20
116.453
 10
13.018
 20
116.796
 10
12.8618
 20
117.135
 10
12.6968
 20
117.469
 10
12.5231
 20
117.8
 10
12.3409
 20
118.125
 10
12.1501
 20
118.446
 10
11.9511
 20
118.761
 10
11.7438
 20
119.071
 10
11.5285
 20
119.376
 10
11.3053
 20
119.675
 10
11.0743
 20
119.968
 10
10.8358
 20
120.255
 10
10.5898
 20
120.535
 10
10.3366
 20
120.809
 10
10.0763
 20
121.076
 10
9.80905
 20
121.337
 10
9.53511
 20
121.59
 10
9.25463
 20
121.836
 10
8.96782
 20
122.074
 10
8.67485
 20
122.305
 10
8.37594
 20
122.528
 10
8.07129
 20
122.744
 10
7.76111
 20
122.951
 10
7.4456
 20
123.15
 10
7.125
 20
123.341
 10
6.79951
 20
123.523
 10
6.46936
 20
123.697
 10
6.13478
 20
123.862
 10
5.796
 20
124.018
 10
5.45324
 20
124.165
 10
5.10674
 20
124.304
 10
4.75675
 20
124.433
 10
4.40349
 20
124.553
 10
4.04722
 20
124.663
 10
3.68817
 20
124.764
 10
3.3266
 20
124.856
 10
2.96274
 20
124.939
 10
2.59686
 20
125.011
 10
2.22919
 20
125.075
 10
1.86
 20
125.128
 10
1.48953
 20
125.172
 10
1.11804
 20
125.206
 10
0.745787
 20
125.23
 10
0.373022
 20
125.245
 10
0
 20
125.25
 10
-0.373022
 20
125.245
 10
-0.745787
 20
125.23
 10
-1.11804
 20
125.206
 10
-1.48953
 20
125.172
 10
-1.86
 20
125.128
 10
-2.22919
 20
125.075
 10
-2.59686
 20
125.011
 10
-2.96274
 20
124.939
 10
-3.3266
 20
124.856
 10
-3.68817
 20
124.764
 10
-4.04722
 20
124.663
 10
-4.40349
 20
124.553
 10
-4.75675
 20
124.433
 10
-5.10674
 20
124.304
 10
-5.45324
 20
124.165
 10
-5.796
 20
124.018
 10
-6.13478
 20
123.862
 10
-6.46936
 20
123.697
 10
-6.79951
 20
123.523
 10
-7.125
 20
123.341
 10
-7.4456
 20
123.15
 10
-7.76111
 20
122.951
 10
-8.07129
 20
122.744
 10
-8.37594
 20
122.528
 10
-8.67485
 20
122.305
 10
-8.96782
 20
122.074
 10
-9.25463
 20
121.836
 10
-9.53511
 20
121.59
 10
-9.80905
 20
121.337
 10
-10.0763
 20
121.076
 10
-10.3366
 20
120.809
 10
-10.5898
 20
120.535
 10
-10.8358
 20
120.255
 10
-11.0743
 20
119.968
 10
-11.3053
 20
119.675
 10
-11.5285
 20
119.376
 10
-11.7438
 20
119.071
 10
-11.9511
 20
118.761
 10
-12.1501
 20
118.446
 10
-12.3409
 20
118.125
 10
-12.5231
 20
117.8
 10
-12.6968
 20
117.469
 10
-12.8618
 20
117.135
 10
-13.018
 20
116.796
 10
-13.1653
 20
116.453
 10
-13.3035
 20
116.107
 10
-13.4326
 20
115.757
 10
-13.5526
 20
115.403
 10
-13.6632
 20
115.047
 10
-13.7644
 20
114.688
 10
-13.8563
 20
114.327
 10
-13.9386
 20
113.963
 10
-14.0114
 20
113.597
 10
-14.0746
 20
113.229
 10
-14.1281
 20
112.86
 10
-14.1581
 20
112.607
 10
-14.8147
 20
112.529
 10
-17.7553
 20
112.103
 10
-20.6837
 20
111.599
 10
-23.598
 20
111.02
 10
-26.496
 20
110.364
 10
-29.376
 20
109.633
 10
-32.2357
 20
108.826
 10
-35.0734
 20
107.945
 10
-37.8871
 20
106.99
 10
-40.6748
 20
105.961
 10
-43.4346
 20
104.86
 10
-46.1646
 20
103.687
 10
-48.863
 20
102.443
 10
-51.5279
 20
101.129
 10
-54.1575
 20
99.7457
 10
-56.75
 20
98.2939
 10
-59.3036
 20
96.7747
 10
-61.8165
 20
95.1891
 10
-64.2871
 20
93.5383
 10
-66.7136
 20
91.8234
 10
-69.0944
 20
90.0456
 10
-71.4279
 20
88.2061
 10
-73.7124
 20
86.3061
 10
-75.9463
 20
84.3469
 10
-78.1282
 20
82.33
 10
-80.2566
 20
80.2566
 10
-82.33
 20
78.1282
 10
-84.3469
 20
75.9463
 10
-86.3061
 20
73.7124
 10
-88.2061
 20
71.4279
 10
-90.0456
 20
69.0944
 10
-91.8234
 20
66.7136
 10
-93.5383
 20
64.2871
 10
-95.1891
 20
61.8165
 10
-96.7747
 20
59.3036
 10
-98.2939
 20
56.75
 10
-99.7457
 20
54.1575
 10
-101.129
 20
51.5279
 10
-102.443
 20
48.863
 10
-103.687
 20
46.1646
 10
-104.86
 20
43.4346
 10
-105.961
 20
40.6748
 10
-106.99
 20
37.8871
 10
-107.945
 20
35.0734
 10
-108.826
 20
32.2357
 10
-109.633
 20
29.376
 10
-110.364
 20
26.496
 10
-111.02
 20
23.598
 10
-111.599
 20
20.6837
 10
-112.103
 20
17.7553
 10
-112.529
 20
14.8147
 10
-112.607
 20
14.1581
 10
-112.86
 20
14.1281
 10
-113.229
 20
14.0746
 10
-113.597
 20
14.0114
 10
-113.963
 20
13.9386
 10
-114.327
 20
13.8563
 10
-114.688
 20
13.7644
 10
-115.047
 20
13.6632
 10
-115.403
 20
13.5526
 10
-115.757
 20
13.4326
 10
-116.107
 20
13.3035
 10
-116.453
 20
13.1653
 10
-116.796
 20
13.018
 10
-117.135
 20
12.8618
 10
-117.469
 20
12.6968
 10
-117.8
 20
12.5231
 10
-118.125
 20
12.3409
 10
-118.446
 20
12.1501
 10
-118.761
 20
11.9511
 10
-119.071
 20
11.7438
 10
-119.376
 20
11.5285
 10
-119.675
 20
11.3053
 10
-119.968
 20
11.0743
 10
-120.255
 20
10.8358
 10
-120.535
 20
10.5898
 10
-120.809
 20
10.3366
 10
-121.076
 20
10.0763
 10
-121.337
 20
9.80905
 10
-121.59
 20
9.53511
 10
-121.836
 20
9.25463
 10
-122.074
 20
8.96782
 10
-122.305
 20
8.67485
 10
-122.528
 20
8.37594
 10
-122.744
 20
8.07129
 10
-122.951
 20
7.76111
 10
-123.15
 20
7.4456
 10
-123.341
 20
7.125
 10
-123.523
 20
6.79951
 10
-123.697
 20
6.46936
 10
-123.862
 20
6.13478
 10
-124.018
 20
5.796
 10
-124.165
 20
5.45324
 10
-124.304
 20
5.10674
 10
-124.433
 20
4.75675
 10
-124.553
 20
4.40349
 10
-124.663
 20
4.04722
 10
-124.764
 20
3.68817
 10
-124.856
 20
3.3266
 10
-124.939
 20
2.96274
 10
-125.011
 20
2.59686
 10
-125.075
 20
2.22919
 10
-125.128
 20
1.86
 10
-125.172
 20
1.48953
 10
-125.206
 20
1.11804
 10
-125.23
 20
0.745787
 10
-125.245
 20
0.373022
 10
-125.25
 20
0
 10
-125.245
 20
-0.373022
 10
-125.23
 20
-0.745787
 10
-125.206
 20
-1.11804
 10
-125.172
 20
-1.48953
 10
-125.128
 20
-1.86
 10
-125.075
 20
-2.22919
 10
-125.011
 20
-2.59686
 10
-124.939
 20
-2.96274
 10
-124.856
 20
-3.3266
 10
-124.764
 20
-3.68817
 10
-124.663
 20
-4.04722
 10
-124.553
 20
-4.40349
 10
-124.433
 20
-4.75675
 10
-124.304
 20
-5.10674
 10
-124.165
 20
-5.45324
 10
-124.018
 20
-5.796
 10
-123.862
 20
-6.13478
 10
-123.697
 20
-6.46936
 10
-123.523
 20
-6.79951
 10
-123.341
 20
-7.125
 10
-123.15
 20
-7.4456
 10
-122.951
 20
-7.76111
 10
-122.744
 20
-8.07129
 10
-122.528
 20
-8.37594
 10
-122.305
 20
-8.67485
 10
-122.074
 20
-8.96782
 10
-121.836
 20
-9.25463
 10
-121.59
 20
-9.53511
 10
-121.337
 20
-9.80905
 10
-121.076
 20
-10.0763
 10
-120.809
 20
-10.3366
 10
-120.535
 20
-10.5898
 10
-120.255
 20
-10.8358
 10
-119.968
 20
-11.0743
 10
-119.675
 20
-11.3053
 10
-119.376
 20
-11.5285
 10
-119.071
 20
-11.7438
 10
-118.761
 20
-11.9511
 10
-118.446
 20
-12.1501
 10
-118.125
 20
-12.3409
 10
-117.8
 20
-12.5231
 10
-117.469
 20
-12.6968
 10
-117.135
 20
-12.8618
 10
-116.796
 20
-13.018
 10
-116.453
 20
-13.1653
 10
-116.107
 20
-13.3035
 10
-115.757
 20
-13.4326
 10
-115.403
 20
-13.5526
 10
-115.047
 20
-13.6632
 10
-114.688
 20
-13.7644
 10
-114.327
 20
-13.8563
 10
-113.963
 20
-13.9386
 10
-113.597
 20
-14.0114
 10
-113.229
 20
-14.0746
 10
-112.86
 20
-14.1281
 10
-112.607
 20
-14.1581
 10
-112.529
 20
-14.8147
 10
-112.103
 20
-17.7553
 10
-111.599
 20
-20.6837
 10
-111.02
 20
-23.598
 10
-110.364
 20
-26.496
 10
-109.633
 20
-29.376
 10
-108.826
 20
-32.2357
 10
-107.945
 20
-35.0734
 10
-106.99
 20
-37.8871
 10
-105.961
 20
-40.6748
 10
-104.86
 20
-43.4346
 10
-103.687
 20
-46.1646
 10
-102.443
 20
-48.863
 10
-101.129
 20
-51.5279
 10
-99.7457
 20
-54.1575
 10
-98.2939
 20
-56.75
 10
-96.7747
 20
-59.3036
 10
-95.1891
 20
-61.8165
 10
-93.5383
 20
-64.2871
 10
-91.8234
 20
-66.7136
 10
-90.0456
 20
-69.0944
 10
-88.2061
 20
-71.4279
 10
-86.3061
 20
-73.7124
 10
-84.3469
 20
-75.9463
 10
-82.33
 20
-78.1282
 10
-80.2566
 20
-80.2566
 10
-78.1282
 20
-82.33
 10
-75.9463
 20
-84.3469
 10
-73.7124
 20
-86.3061
 10
-71.4279
 20
-88.2061
 10
-69.0944
 20
-90.0456
 10
-66.7136
 20
-91.8234
 10
-64.2871
 20
-93.5383
 10
-61.8165
 20
-95.1891
 10
-59.3036
 20
-96.7747
 10
-56.75
 20
-98.2939
 10
-54.1575
 20
-99.7457
 10
-51.5279
 20
-101.129
 10
-48.863
 20
-102.443
 10
-46.1646
 20
-103.687
 10
-43.4346
 20
-104.86
 10
-40.6748
 20
-105.961
 10
-37.8871
 20
-106.99
 10
-35.0734
 20
-107.945
 10
-32.2357
 20
-108.826
 10
-29.376
 20
-109.633
 10
-26.496
 20
-110.364
 10
-23.598
 20
-111.02
 10
-20.6837
 20
-111.599
 10
-17.7553
 20
-112.103
 10
-14.8147
 20
-112.529
 10
-14.1581
 20
-112.607
 10
-14.1281
 20
-112.86
 10
-14.0746
 20
-113.229
 10
-14.0114
 20
-113.597
 10
-13.9386
 20
-113.963
 10
-13.8563
 20
-114.327
 10
-13.7644
 20
-114.688
 10
-13.6632
 20
-115.047
 10
-13.5526
 20
-115.403
 10
-13.4326
 20
-115.757
 10
-13.3035
 20
-116.107
 10
-13.1653
 20
-116.453
 10
-13.018
 20
-116.796
 10
-12.8618
 20
-117.135
 10
-12.6968
 20
-117.469
 10
-12.5231
 20
-117.8
 10
-12.3409
 20
-118.125
 10
-12.1501
 20
-118.446
 10
-11.9511
 20
-118.761
 10
-11.7438
 20
-119.071
 10
-11.5285
 20
-119.376
 10
-11.3053
 20
-119.675
 10
-11.0743
 20
-119.968
 10
-10.8358
 20
-120.255
 10
-10.5898
 20
-120.535
 10
-10.3366
 20
-120.809
 10
-10.0763
 20
-121.076
 10
-9.80905
 20
-121.337
 10
-9.53511
 20
-121.59
 10
-9.25463
 20
-121.836
 10
-8.96782
 20
-122.074
 10
-8.67485
 20
-122.305
 10
-8.37594
 20
-122.528
 10
-8.07129
 20
-122.744
 10
-7.76111
 20
-122.951
 10
-7.4456
 20
-123.15
 10
-7.125
 20
-123.341
 10
-6.79951
 20
-123.523
 10
-6.46936
 20
-123.697
 10
-6.13478
 20
-123.862
 10
-5.796
 20
-124.018
 10
-5.45324
 20
-124.165
 10
-5.10674
 20
-124.304
 10
-4.75675
 20
-124.433
 10
-4.40349
 20
-124.553
 10
-4.04722
 20
-124.663
 10
-3.68817
 20
-124.764
 10
-3.3266
 20
-124.856
 10
-2.96274
 20
-124.939
 10
-2.59686
 20
-125.011
 10
-2.22919
 20
-125.075
 10
-1.86
 20
-125.128
 10
-1.48953
 20
-125.172
 10
-1.11804
 20
-125.206
 10
-0.745787
 20
-125.23
 10
-0.373022
 20
-125.245
 10
0
 20
-125.25
  0
LWPOLYLINE
100
AcDbEntity
  8
0
100
AcDbPolyline
 90
112
 70
1
 10
8.90511
 20
113.15
 10
5.94013
 20
113.344
 10
2.97108
 20
113.461
 10
0
 20
113.5
 10
-2.97108
 20
113.461
 10
-5.94013
 20
113.344
 10
-8.90511
 20
113.15
 10
-8.99846
 20
113.142
 10
-8.99442
 20
113.159
 10
-8.93481
 20
113.394
 10
-8.86908
 20
113.627
 10
-8.79727
 20
113.858
 10
-8.71943
 20
114.088
 10
-8.63562
 20
114.315
 10
-8.54589
 20
114.54
 10
-8.4503
 20
114.762
 10
-8.34891
 20
114.982
 10
-8.24181
 20
115.199
 10
-8.12906
 20
115.414
 10
-8.01073
 20
115.625
 10
-7.88692
 20
115.833
 10
-7.7577
 20
116.038
 10
-7.62317
 20
116.239
 10
-7.48341
 20
116.437
 10
-7.33852
 20
116.631
 10
-7.1886
 20
116.821
 10
-7.03376
 20
117.007
 10
-6.87409
 20
117.189
 10
-6.70971
 20
117.367
 10
-6.54074
 20
117.541
 10
-6.36728
 20
117.71
 10
-6.18946
 20
117.874
 10
-6.00739
 20
118.034
 10
-5.82121
 20
118.189
 10
-5.63104
 20
118.339
 10
-5.43701
 20
118.483
 10
-5.23926
 20
118.623
 10
-5.03791
 20
118.758
 10
-4.83311
 20
118.887
 10
-4.625
 20
119.011
 10
-4.41372
 20
119.129
 10
-4.19941
 20
119.242
 10
-3.98223
 20
119.349
 10
-3.76231
 20
119.45
 10
-3.53982
 20
119.546
 10
-3.3149
 20
119.636
 10
-3.08771
 20
119.719
 10
-2.85841
 20
119.797
 10
-2.62714
 20
119.869
 10
-2.39408
 20
119.935
 10
-2.15937
 20
119.994
 10
-1.92318
 20
120.048
 10
-1.68568
 20
120.095
 10
-1.44702
 20
120.136
 10
-1.20737
 20
120.171
 10
-0.966888
 20
120.199
 10
-0.725747
 20
120.221
 10
-0.484108
 20
120.237
 10
-0.242137
 20
120.247
 10
0
 20
120.25
 10
0.242137
 20
120.247
 10
0.484108
 20
120.237
 10
0.725747
 20
120.221
 10
0.966888
 20
120.199
 10
1.20737
 20
120.171
 10
1.44702
 20
120.136
 10
1.68568
 20
120.095
 10
1.92318
 20
120.048
 10
2.15937
 20
119.994
 10
2.39408
 20
119.935
 10
2.62714
 20
119.869
 10
2.85841
 20
119.797
 10
3.08771
 20
119.719
 10
3.3149
 20
119.636
 10
3.53982
 20
119.546
 10
3.76231
 20
119.45
 10
3.98223
 20
119.349
 10
4.19941
 20
119.242
 10
4.41372
 20
119.129
 10
4.625
 20
119.011
 10
4.83311
 20
118.887
 10
5.03791
 20
118.758
 10
5.23926
 20
118.623
 10
5.43701
 20
118.483
 10
5.63104
 20
118.339
 10
5.82121
 20
118.189
 10
6.00739
 20
118.034
 10
6.18946
 20
117.874
 10
6.36728
 20
117.71
 10
6.54074
 20
117.541
 10
6.70971
 20
117.367
 10
6.87409
 20
117.189
 10
7.03376
 20
117.007
 10
7.1886
 20
116.821
 10
7.33852
 20
116.631
 10
7.48341
 20
116.437
 10
7.62317
 20
116.239
 10
7.7577
 20
116.038
 10
7.88692
 20
115.833
 10
8.01073
 20
115.625
 10
8.12906
 20
115.414
 10
8.24181
 20
115.199
 10
8.34891
 20
114.982
 10
8.4503
 20
114.762
 10
8.54589
 20
114.54
 10
8.63562
 20
114.315
 10
8.71943
 20
114.088
 10
8.79727
 20
113.858
 10
8.86908
 20
113.627
 10
8.93481
 20
113.394
 10
8.99442
 20
113.159
 10
8.99846
 20
113.142
  0
LWPOLYLINE
100
AcDbEntity
  8
0
100
AcDbPolyline
 90
240
 70
1
 10
-2.8402
 20
-108.463
 10
-5.67845
 20
-108.351
 10
-8.51281
 20
-108.166
 10
-11.3413
 20
-107.906
 10
-14.1621
 20
-107.572
 10
-16.9731
 20
-107.164
 10
-19.7726
 20
-106.683
 10
-22.5584
 20
-106.129
 10
-25.3288
 20
-105.502
 10
-28.0819
 20
-104.803
 10
-30.8157
 20
-104.032
 10
-33.5283
 20
-103.19
 10
-36.218
 20
-102.277
 10
-38.8829
 20
-101.293
 10
-41.5212
 20
-100.241
 10
-44.1309
 20
-99.1197
 10
-46.7105
 20
-97.9305
 10
-49.258
 20
-96.6742
 10
-51.7717
 20
-95.3517
 10
-54.25
 20
-93.9638
 10
-56.6911
 20
-92.5115
 10
-59.0933
 20
-90.9958
 10
-61.4551
 20
-89.4177
 10
-63.7747
 20
-87.7783
 10
-66.0506
 20
-86.0788
 10
-68.2813
 20
-84.3203
 10
-70.4651
 20
-82.504
 10
-72.6007
 20
-80.6312
 10
-74.6865
 20
-78.7031
 10
-76.7211
 20
-76.7211
 10
-78.7031
 20
-74.6865
 10
-80.6312
 20
-72.6007
 10
-82.504
 20
-70.4651
 10
-84.3203
 20
-68.2813
 10
-86.0788
 20
-66.0506
 10
-87.7783
 20
-63.7747
 10
-89.4177
 20
-61.4551
 10
-90.9958
 20
-59.0933
 10
-92.5115
 20
-56.6911
 10
-93.9638
 20
-54.25
 10
-95.3517
 20
-51.7717
 10
-96.6742
 20
-49.258
 10
-97.9305
 20
-46.7105
 10
-99.1197
 20
-44.1309
 10
-100.241
 20
-41.5212
 10
-101.293
 20
-38.8829
 10
-102.277
 20
-36.218
 10
-103.19
 20
-33.5283
 10
-104.032
 20
-30.8157
 10
-104.803
 20
-28.0819
 10
-105.502
 20
-25.3288
 10
-106.129
 20
-22.5584
 10
-106.683
 20
-19.7726
 10
-107.164
 20
-16.9731
 10
-107.572
 20
-14.1621
 10
-107.906
 20
-11.3413
 10
-108.166
 20
-8.51281
 10
-108.351
 20
-5.67845
 10
-108.463
 20
-2.8402
 10
-108.5
 20
0
 10
-108.463
 20
2.8402
 10
-108.351
 20
5.67845
 10
-108.166
 20
8.51281
 10
-107.906
 20
11.3413
 10
-107.572
 20
14.1621
 10
-107.164
 20
16.9731
 10
-106.683
 20
19.7726
 10
-106.129
 20
22.5584
 10
-105.502
 20
25.3288
 10
-104.803
 20
28.0819
 10
-104.032
 20
30.8157
 10
-103.19
 20
33.5283
 10
-102.277
 20
36.218
 10
-101.293
 20
38.8829
 10
-100.241
 20
41.5212
 10
-99.1197
 20
44.1309
 10
-97.9305
 20
46.7105
 10
-96.6742
 20
49.258
 10
-95.3517
 20
51.7717
 10
-93.9638
 20
54.25
 10
-92.5115
 20
56.6911
 10
-90.9958
 20
59.0933
 10
-89.4177
 20
61.4551
 10
-87.7783
 20
63.7747
 10
-86.0788
 20
66.0506
 10
-84.3203
 20
68.2813
 10
-82.504
 20
70.4651
 10
-80.6312
 20
72.6007
 10
-78.7031
 20
74.6865
 10
-76.7211
 20
76.7211
 10
-74.6865
 20
78.7031
 10
-72.6007
 20
80.6312
 10
-70.4651
 20
82.504
 10
-68.2813
 20
84.3203
 10
-66.0506
 20
86.0788
 10
-63.7747
 20
87.7783
 10
-61.4551
 20
89.4177
 10
-59.0933
 20
90.9958
 10
-56.6911
 20
92.5115
 10
-54.25
 20
93.9638
 10
-51.7717
 20
95.3517
 10
-49.258
 20
96.6742
 10
-46.7105
 20
97.9305
 10
-44.1309
 20
99.1197
 10
-41.5212
 20
100.241
 10
-38.8829
 20
101.293
 10
-36.218
 20
102.277
 10
-33.5283
 20
103.19
 10
-30.8157
 20
104.032
 10
-28.0819
 20
104.803
 10
-25.3288
 20
105.502
 10
-22.5584
 20
106.129
 10
-19.7726
 20
106.683
 10
-16.9731
 20
107.164
 10
-14.1621
 20
107.572
 10
-11.3413
 20
107.906
 10
-8.51281
 20
108.166
 10
-5.67845
 20
108.351
 10
-2.8402
 20
108.463
 10
0
 20
108.5
 10
2.8402
 20
108.463
 10
5.67845
 20
108.351
 10
8.51281
 20
108.166
 10
11.3413
 20
107.906
 10
14.1621
 20
107.572
 10
16.9731
 20
107.164
 10
19.7726
 20
106.683
 10
22.5584
 20
106.129
 10
25.3288
 20
105.502
 10
28.0819
 20
104.803
 10
30.8157
 20
104.032
 10
33.5283
 20
103.19
 10
36.218
 20
102.277
 10
38.8829
 20
101.293
 10
41.5212
 20
100.241
 10
44.1309
 20
99.1197
 10
46.7105
 20
97.9305
 10
49.258
 20
96.6742
 10
51.7717
 20
95.3517
 10
54.25
 20
93.9638
 10
56.6911
 20
92.5115
 10
59.0933
 20
90.9958
 10
61.4551
 20
89.4177
 10
63.7747
 20
87.7783
 10
66.0506
 20
86.0788
 10
68.2813
 20
84.3203
 10
70.4651
 20
82.504
 10
72.6007
 20
80.6312
 10
74.6865
 20
78.7031
 10
76.7211
 20
76.7211
 10
78.7031
 20
74.6865
 10
80.6312
 20
72.6007
 10
82.504
 20
70.4651
 10
84.3203
 20
68.2813
 10
86.0788
 20
66.0506
 10
87.7783
 20
63.7747
 10
89.4177
 20
61.4551
 10
90.9958
 20
59.0933
 10
92.5115
 20
56.6911
 10
93.9638
 20
54.25
 10
95.3517
 20
51.7717
 10
96.6742
 20
49.258
 10
97.9305
 20
46.7105
 10
99.1197
 20
44.1309
 10
100.241
 20
41.5212
 10
101.293
 20
38.8829
 10
102.277
 20
36.218
 10
103.19
 20
33.5283
 10
104.032
 20
30.8157
 10
104.803
 20
28.0819
 10
105.502
 20
25.3288
 10
106.129
 20
22.5584
 10
106.683
 20
19.7726
 10
107.164
 20
16.9731
 10
107.572
 20
14.1621
 10
107.906
 20
11.3413
 10
108.166
 20
8.51281
 10
108.351
 20
5.67845
 10
108.463
 20
2.8402
 10
108.5
 20
0
 10
108.463
 20
-2.8402
 10
108.351
 20
-5.67845
 10
108.166
 20
-8.51281
 10
107.906
 20
-11.3413
 10
107.572
 20
-14.1621
 10
107.164
 20
-16.9731
 10
106.683
 20
-19.7726
 10
106.129
 20
-22.5584
 10
105.502
 20
-25.3288
 10
104.803
 20
-28.0819
 10
104.032
 20
-30.8157
 10
103.19
 20
-33.5283
 10
102.277
 20
-36.218
 10
101.293
 20
-38.8829
 10
100.241
 20
-41.5212
 10
99.1197
 20
-44.1309
 10
97.9305
 20
-46.7105
 10
96.6742
 20
-49.258
 10
95.3517
 20
-51.7717
 10
93.9638
 20
-54.25
 10
92.5115
 20
-56.6911
 10
90.9958
 20
-59.0933
 10
89.4177
 20
-61.4551
 10
87.7783
 20
-63.7747
 10
86.0788
 20
-66.0506
 10
84.3203
 20
-68.2813
 10
82.504
 20
-70.4651
 10
80.6312
 20
-72.6007
 10
78.7031
 20
-74.6865
 10
76.7211
 20
-76.7211
 10
74.6865
 20
-78.7031
 10
72.6007
 20
-80.6312
 10
70.4651
 20
-82.504
 10
68.2813
 20
-84.3203
 10
66.0506
 20
-86.0788
 10
63.7747
 20
-87.7783
 10
61.4551
 20
-89.4177
 10
59.0933
 20
-90.9958
 10
56.6911
 20
-92.5115
 10
54.25
 20
-93.9638
 10
51.7717
 20
-95.3517
 10
49.258
 20
-96.6742
 10
46.7105
 20
-97.9305
 10
44.1309
 20
-99.1197
 10
41.5212
 20
-100.241
 10
38.8829
 20
-101.293
 10
36.218
 20
-102.277
 10
33.5283
 20
-103.19
 10
30.8157
 20
-104.032
 10
28.0819
 20
-104.803
 10
25.3288
 20
-105.502
 10
22.5584
 20
-106.129
 10
19.7726
 20
-106.683
 10
16.9731
 20
-107.164
 10
14.1621
 20
-107.572
 10
11.3413
 20
-107.906
 10
8.51281
 20
-108.166
 10
5.67845
 20
-108.351
 10
2.8402
 20
-108.463
 10
0
 20
-108.5
  0
LWPOLYLINE
100
AcDbEntity
  8
0
100
AcDbPolyline
 90
112
 70
1
 10
-113.159
 20
-8.99442
 10
-113.394
 20
-8.93481
 10
-113.627
 20
-8.86908
 10
-113.858
 20
-8.79727
 10
-114.088
 20
-8.71943
 10
-114.315
 20
-8.63562
 10
-114.54
 20
-8.54589
 10
-114.762
 20
-8.4503
 10
-114.982
 20
-8.34891
 10
-115.199
 20
-8.24181
 10
-115.414
 20
-8.12906
 10
-115.625
 20
-8.01073
 10
-115.833
 20
-7.88692
 10
-116.038
 20
-7.7577
 10
-116.239
 20
-7.62317
 10
-116.437
 20
-7.48341
 10
-116.631
 20
-7.33852
 10
-116.821
 20
-7.1886
 10
-117.007
 20
-7.03376
 10
-117.189
 20
-6.87409
 10
-117.367
 20
-6.70971
 10
-117.541
 20
-6.54074
 10
-117.71
 20
-6.36728
 10
-117.874
 20
-6.18946
 10
-118.034
 20
-6.00739
 10
-118.189
 20
-5.82121
 10
-118.339
 20
-5.63104
 10
-118.483
 20
-5.43701
 10
-118.623
 20
-5.23926
 10
-118.758
 20
-5.03791
 10
-118.887
 20
-4.83311
 10
-119.011
 20
-4.625
 10
-119.129
 20
-4.41372
 10
-119.242
 20
-4.19941
 10
-119.349
 20
-3.98223
 10
-119.45
 20
-3.76231
 10
-119.546
 20
-3.53982
 10
-119.636
 20
-3.3149
 10
-119.719
 20
-3.08771
 10
-119.797
 20
-2.85841
 10
-119.869
 20
-2.62714
 10
-119.935
 20
-2.39408
 10
-119.994
 20
-2.15937
 10
-120.048
 20
-1.92318
 10
-120.095
 20
-1.68568
 10
-120.136
 20
-1.44702
 10
-120.171
 20
-1.20737
 10
-120.199
 20
-0.966888
 10
-120.221
 20
-0.725747
 10
-120.237
 20
-0.484108
 10
-120.247
 20
-0.242137
 10
-120.25
 20
0
 10
-120.247
 20
0.242137
 10
-120.237
 20
0.484108
 10
-120.221
 20
0.725747
 10
-120.199
 20
0.966888
 10
-120.171
 20
1.20737
 10
-120.136
 20
1.44702
 10
-120.095
 20
1.68568
 10
-120.048
 20
1.92318
 10
-119.994
 20
2.15937
 10
-119.935
 20
2.39408
 10
-119.869
 20
2.62714
 10
-119.797
 20
2.85841
 10
-119.719
 20
3.08771
 10
-119.636
 20
3.3149
 10
-119.546
 20
3.53982
 10
-119.45
 20
3.76231
 10
-119.349
 20
3.98223
 10
-119.242
 20
4.19941
 10
-119.129
 20
4.41372
 10
-119.011
 20
4.625
 10
-118.887
 20
4.83311
 10
-118.758
 20
5.03791
 10
-118.623
 20
5.23926
 10
-118.483
 20
5.43701
 10
-118.339
 20
5.63104
 10
-118.189
 20
5.82121
 10
-118.034
 20
6.00739
 10
-117.874
 20
6.18946
 10
-117.71
 20
6.36728
 10
-117.541
 20
6.54074
 10
-117.367
 20
6.70971
 10
-117.189
 20
6.87409
 10
-117.007
 20
7.03376
 10
-116.821
 20
7.1886
 10
-116.631
 20
7.33852
 10
-116.437
 20
7.48341
 10
-116.239
 20
7.62317
 10
-116.038
 20
7.7577
 10
-115.833
 20
7.88692
 10
-115.625
 20
8.01073
 10
-115.414
 20
8.12906
 10
-115.199
 20
8.24181
 10
-114.982
 20
8.34891
 10
-114.762
 20
8.4503
 10
-114.54
 20
8.54589
 10
-114.315
 20
8.63562
 10
-114.088
 20
8.71943
 10
-113.858
 20
8.79727
 10
-113.627
 20
8.86908
 10
-113.394
 20
8.93481
 10
-113.159
 20
8.99442
 10
-113.142
 20
8.99846
 10
-113.15
 20
8.90511
 10
-113.344
 20
5.94013
 10
-113.461
 20
2.97108
 10
-113.5
 20
0
 10
-113.461
 20
-2.97108
 10
-113.344
 20
-5.94013
 10
-113.15
 20
-8.90511
 10
-113.142
 20
-8.99846
  0
LWPOLYLINE
100
AcDbEntity
  8
0
100
AcDbPolyline
 90
112
 70
1
 10
113.15
 20
-8.90511
 10
113.344
 20
-5.94013
 10
113.461
 20
-2.97108
 10
113.5
 20
0
 10
113.461
 20
2.97108
 10
113.344
 20
5.94013
 10
113.15
 20
8.90511
 10
113.142
 20
8.99846
 10
113.159
 20
8.99442
 10
113.394
 20
8.93481
 10
113.627
 20
8.86908
 10
113.858
 20
8.79727
 10
114.088
 20
8.71943
 10
114.315
 20
8.63562
 10
114.54
 20
8.54589
 10
114.762
 20
8.4503
 10
114.982
 20
8.34891
 10
115.199
 20
8.24181
 10
115.414
 20
8.12906
 10
115.625
 20
8.01073
 10
115.833
 20
7.88692
 10
116.038
 20
7.7577
 10
116.239
 20
7.62317
 10
116.437
 20
7.48341
 10
116.631
 20
7.33852
 10
116.821
 20
7.1886
 10
117.007
 20
7.03376
 10
117.189
 20
6.87409
 10
117.367
 20
6.70971
 10
117.541
 20
6.54074
 10
117.71
 20
6.36728
 10
117.874
 20
6.18946
 10
118.034
 20
6.00739
 10
118.189
 20
5.82121
 10
118.339
 20
5.63104
 10
118.483
 20
5.43701
 10
118.623
 20
5.23926
 10
118.758
 20
5.03791
 10
118.887
 20
4.83311
 10
119.011
 20
4.625
 10
119.129
 20
4.41372
 10
119.242
 20
4.19941
 10
119.349
 20
3.98223
 10
119.45
 20
3.76231
 10
119.546
 20
3.53982
 10
119.636
 20
3.3149
 10
119.719
 20
3.08771
 10
119.797
 20
2.85841
 10
119.869
 20
2.62714
 10
119.935
 20
2.39408
 10
119.994
 20
2.15937
 10
120.048
 20
1.92318
 10
120.095
 20
1.68568
 10
120.136
 20
1.44702
 10
120.171
 20
1.20737
 10
120.199
 20
0.966888
 10
120.221
 20
0.725747
 10
120.237
 20
0.484108
 10
120.247
 20
0.242137
 10
120.25
 20
0
 10
120.247
 20
-0.242137
 10
120.237
 20
-0.484108
 10
120.221
 20
-0.725747
 10
120.199
 20
-0.966888
 10
120.171
 20
-1.20737
 10
120.136
 20
-1.44702
 10
120.095
 20
-1.68568
 10
120.048
 20
-1.92318
 10
119.994
 20
-2.15937
 10
119.935
 20
-2.39408
 10
119.869
 20
-2.62714
 10
119.797
 20
-2.85841
 10
119.719
 20
-3.08771
 10
119.636
 20
-3.3149
 10
119.546
 20
-3.53982
 10
119.45
 20
-3.76231
 10
119.349
 20
-3.98223
 10
119.242
 20
-4.19941
 10
119.129
 20
-4.41372
 10
119.011
 20
-4.625
 10
118.887
 20
-4.83311
 10
118.758
 20
-5.03791
 10
118.623
 20
-5.23926
 10
118.483
 20
-5.43701
 10
118.339
 20
-5.63104
 10
118.189
 20
-5.82121
 10
118.034
 20
-6.00739
 10
117.874
 20
-6.18946
 10
117.71
 20
-6.36728
 10
117.541
 20
-6.54074
 10
117.367
 20
-6.70971
 10
117.189
 20
-6.87409
 10
117.007
 20
-7.03376
 10
116.821
 20
-7.1886
 10
116.631
 20
-7.33852
 10
116.437
 20
-7.48341
 10
116.239
 20
-7.62317
 10
116.038
 20
-7.7577
 10
115.833
 20
-7.88692
 10
115.625
 20
-8.01073
 10
115.414
 20
-8.12906
 10
115.199
 20
-8.24181
 10
114.982
 20
-8.34891
 10
114.762
 20
-8.4503
 10
114.54
 20
-8.54589
 10
114.315
 20
-8.63562
 10
114.088
 20
-8.71943
 10
113.858
 20
-8.79727
 10
113.627
 20
-8.86908
 10
113.394
 20
-8.93481
 10
113.159
 20
-8.99442
 10
113.142
 20
-8.99846
  0
LWPOLYLINE
100
AcDbEntity
  8
0
100
AcDbPolyline
 90
112
 70
1
 10
-0.242137
 20
-120.247
 10
-0.484108
 20
-120.237
 10
-0.725747
 20
-120.221
 10
-0.966888
 20
-120.199
 10
-1.20737
 20
-120.171
 10
-1.44702
 20
-120.136
 10
-1.68568
 20
-120.095
 10
-1.92318
 20
-120.048
 10
-2.15937
 20
-119.994
 10
-2.39408
 20
-119.935
 10
-2.62714
 20
-119.869
 10
-2.85841
 20
-119.797
 10
-3.08771
 20
-119.719
 10
-3.3149
 20
-119.636
 10
-3.53982
 20
-119.546
 10
-3.76231
 20
-119.45
 10
-3.98223
 20
-119.349
 10
-4.19941
 20
-119.242
 10
-4.41372
 20
-119.129
 10
-4.625
 20
-119.011
 10
-4.83311
 20
-118.887
 10
-5.03791
 20
-118.758
 10
-5.23926
 20
-118.623
 10
-5.43701
 20
-118.483
 10
-5.63104
 20
-118.339
 10
-5.82121
 20
-118.189
 10
-6.00739
 20
-118.034
 10
-6.18946
 20
-117.874
 10
-6.36728
 20
-117.71
 10
-6.54074
 20
-117.541
 10
-6.70971
 20
-117.367
 10
-6.87409
 20
-117.189
 10
-7.03376
 20
-117.007
 10
-7.1886
 20
-116.821
 10
-7.33852
 20
-116.631
 10
-7.48341
 20
-116.437
 10
-7.62317
 20
-116.239
 10
-7.7577
 20
-116.038
 10
-7.88692
 20
-115.833
 10
-8.01073
 20
-115.625
 10
-8.12906
 20
-115.414
 10
-8.24181
 20
-115.199
 10
-8.34891
 20
-114.982
 10
-8.4503
 20
-114.762
 10
-8.54589
 20
-114.54
 10
-8.63562
 20
-114.315
 10
-8.71943
 20
-114.088
 10
-8.79727
 20
-113.858
 10
-8.86908
 20
-113.627
 10
-8.93481
 20
-113.394
 10
-8.99442
 20
-113.159
 10
-8.99846
 20
-113.142
 10
-8.90511
 20
-113.15
 10
-5.94013
 20
-113.344
 10
-2.97108
 20
-113.461
 10
0
 20
-113.5
 10
2.97108
 20
-113.461
 10
5.94013
 20
-113.344
 10
8.90511
 20
-113.15
 10
8.99846
 20
-113.142
 10
8.99442
 20
-113.159
 10
8.93481
 20
-113.394
 10
8.86908
 20
-113.627
 10
8.79727
 20
-113.858
 10
8.71943
 20
-114.088
 10
8.63562
 20
-114.315
 10
8.54589
 20
-114.54
 10
8.4503
 20
-114.762
 10
8.34891
 20
-114.982
 10
8.24181
 20
-115.199
 10
8.12906
 20
-115.414
 10
8.01073
 20
-115.625
 10
7.88692
 20
-115.833
 10
7.7577
 20
-116.038
 10
7.62317
 20
-116.239
 10
7.48341
 20
-116.437
 10
7.33852
 20
-116.631
 10
7.1886
 20
-116.821
 10
7.03376
 20
-117.007
 10
6.87409
 20
-117.189
 10
6.70971
 20
-117.367
 10
6.54074
 20
-117.541
 10
6.36728
 20
-117.71
 10
6.18946
 20
-117.874
 10
6.00739
 20
-118.034
 10
5.82121
 20
-118.189
 10
5.63104
 20
-118.339
 10
5.43701
 20
-118.483
 10
5.23926
 20
-118.623
 10
5.03791
 20
-118.758
 10
4.83311
 20
-118.887
 10
4.625
 20
-119.011
 10
4.41372
 20
-119.129
 10
4.19941
 20
-119.242
 10
3.98223
 20
-119.349
 10
3.76231
 20
-119.45
 10
3.53982
 20
-119.546
 10
3.3149
 20
-119.636
 10
3.08771
 20
-119.719
 10
2.85841
 20
-119.797
 10
2.62714
 20
-119.869
 10
2.39408
 20
-119.935
 10
2.15937
 20
-119.994
 10
1.92318
 20
-120.048
 10
1.68568
 20
-120.095
 10
1.44702
 20
-120.136
 10
1.20737
 20
-120.171
 10
0.966888
 20
-120.199
 10
0.725747
 20
-120.221
 10
0.484108
 20
-120.237
 10
0.242137
 20
-120.247
 10
0
 20
-120.25
  0
ENDSEC
  0
EOF
