999
DXF from OpenSCAD
  0
SECTION
  2
HEADER
  9
$ACADVER
  1
AC1006
  9
$INSBASE
 10
0.0
 20
0.0
 30
0.0
  9
$EXTMIN
 10
-68.125
 20
-68.125
  9
$EXTMAX
 10
68.125
 20
68.125
  9
$LINMIN
 10
-68.125
 20
-68.125
  9
$LINMAX
 10
68.125
 20
68.125
  0
ENDSEC
  0
SECTION
  2
TABLES
  0
TABLE
  2
LTYPE
 70
1
  0
LTYPE
  2
CONTINUOUS
 70
64
  3
Solid line
 72
65
 73
0
 40
0.000000
  0
ENDTAB
  0
TABLE
  2
LAYER
 70
6
  0
LAYER
  2
0
 70
64
 62
7
  6
CONTINUOUS
  0
ENDTAB
  0
TABLE
  2
STYLE
 70
0
  0
ENDTAB
  0
ENDSEC
  0
SECTION
  2
BLOCKS
  0
ENDSEC
  0
SECTION
  2
ENTITIES
  0
LWPOLYLINE
100
AcDbEntity
  8
0
100
AcDbPolyline
 90
640
 70
1
 10
0.261769
 20
-68.1216
 10
0.52336
 20
-68.1113
 10
0.784591
 20
-68.0942
 10
1.04528
 20
-68.0702
 10
1.30526
 20
-68.0394
 10
1.56434
 20
-68.0019
 10
1.82236
 20
-67.9575
 10
2.07912
 20
-67.9065
 10
2.33445
 20
-67.8487
 10
2.58819
 20
-67.7843
 10
2.84015
 20
-67.7132
 10
3.09017
 20
-67.6356
 10
3.33807
 20
-67.5514
 10
3.58368
 20
-67.4608
 10
3.82683
 20
-67.3638
 10
4.06737
 20
-67.2605
 10
4.30511
 20
-67.1509
 10
4.5399
 20
-67.0351
 10
4.77159
 20
-66.9132
 10
5
 20
-66.7853
 10
5.22499
 20
-66.6514
 10
5.44639
 20
-66.5117
 10
5.66406
 20
-66.3663
 10
5.87785
 20
-66.2152
 10
6.08761
 20
-66.0585
 10
6.2932
 20
-65.8965
 10
6.49448
 20
-65.7291
 10
6.69131
 20
-65.5564
 10
6.88355
 20
-65.3787
 10
7.07107
 20
-65.1961
 10
7.25374
 20
-65.0085
 10
7.43145
 20
-64.8163
 10
7.60406
 20
-64.6195
 10
7.77146
 20
-64.4182
 10
7.93353
 20
-64.2126
 10
8.09017
 20
-64.0029
 10
8.24126
 20
-63.7891
 10
8.38671
 20
-63.5714
 10
8.5264
 20
-63.35
 10
8.66025
 20
-63.125
 10
8.78817
 20
-62.8966
 10
8.91007
 20
-62.6649
 10
9.02585
 20
-62.4301
 10
9.13545
 20
-62.1924
 10
9.2388
 20
-61.9518
 10
9.3358
 20
-61.7087
 10
9.42641
 20
-61.4631
 10
9.51057
 20
-61.2152
 10
9.5882
 20
-60.9652
 10
9.65926
 20
-60.7132
 10
9.7237
 20
-60.4595
 10
9.78148
 20
-60.2041
 10
9.83255
 20
-59.9474
 10
9.87688
 20
-59.6893
 10
9.91445
 20
-59.4303
 10
9.91519
 20
-59.424
 10
10.9797
 20
-59.2411
 10
12.5267
 20
-58.9334
 10
14.0651
 20
-58.5853
 10
15.5938
 20
-58.197
 10
17.1119
 20
-57.7689
 10
18.6183
 20
-57.3012
 10
20.1119
 20
-56.7941
 10
21.5917
 20
-56.2482
 10
23.0567
 20
-55.6637
 10
24.5059
 20
-55.0411
 10
25.9383
 20
-54.3808
 10
27.3529
 20
-53.6831
 10
28.7488
 20
-52.9487
 10
30.125
 20
-52.178
 10
31.4805
 20
-51.3716
 10
32.8145
 20
-50.5299
 10
34.126
 20
-49.6536
 10
35.4141
 20
-48.7433
 10
36.6779
 20
-47.7995
 10
37.9166
 20
-46.823
 10
39.1292
 20
-45.8145
 10
40.3151
 20
-44.7745
 10
41.4734
 20
-43.7038
 10
42.6032
 20
-42.6032
 10
43.7038
 20
-41.4734
 10
44.7745
 20
-40.3151
 10
45.8145
 20
-39.1292
 10
46.823
 20
-37.9166
 10
47.7995
 20
-36.6779
 10
48.7433
 20
-35.4141
 10
49.6536
 20
-34.126
 10
50.5299
 20
-32.8145
 10
51.3716
 20
-31.4805
 10
52.178
 20
-30.125
 10
52.9487
 20
-28.7488
 10
53.6831
 20
-27.3529
 10
54.3808
 20
-25.9383
 10
55.0411
 20
-24.5059
 10
55.6637
 20
-23.0567
 10
56.2482
 20
-21.5917
 10
56.7941
 20
-20.1119
 10
57.3012
 20
-18.6183
 10
57.7689
 20
-17.1119
 10
58.197
 20
-15.5938
 10
58.5853
 20
-14.0651
 10
58.9334
 20
-12.5267
 10
59.2411
 20
-10.9797
 10
59.424
 20
-9.91519
 10
59.4303
 20
-9.91445
 10
59.6893
 20
-9.87688
 10
59.9474
 20
-9.83255
 10
60.2041
 20
-9.78148
 10
60.4595
 20
-9.7237
 10
60.7132
 20
-9.65926
 10
60.9652
 20
-9.5882
 10
61.2152
 20
-9.51057
 10
61.4631
 20
-9.42641
 10
61.7087
 20
-9.3358
 10
61.9518
 20
-9.2388
 10
62.1924
 20
-9.13545
 10
62.4301
 20
-9.02585
 10
62.6649
 20
-8.91007
 10
62.8966
 20
-8.78817
 10
63.125
 20
-8.66025
 10
63.35
 20
-8.5264
 10
63.5714
 20
-8.38671
 10
63.7891
 20
-8.24126
 10
64.0029
 20
-8.09017
 10
64.2126
 20
-7.93353
 10
64.4182
 20
-7.77146
 10
64.6195
 20
-7.60406
 10
64.8163
 20
-7.43145
 10
65.0085
 20
-7.25374
 10
65.1961
 20
-7.07107
 10
65.3787
 20
-6.88355
 10
65.5564
 20
-6.69131
 10
65.7291
 20
-6.49448
 10
65.8965
 20
-6.2932
 10
66.0585
 20
-6.08761
 10
66.2152
 20
-5.87785
 10
66.3663
 20
-5.66406
 10
66.5117
 20
-5.44639
 10
66.6514
 20
-5.22499
 10
66.7853
 20
-5
 10
66.9132
 20
-4.77159
 10
67.0351
 20
-4.5399
 10
67.1509
 20
-4.30511
 10
67.2605
 20
-4.06737
 10
67.3638
 20
-3.82683
 10
67.4608
 20
-3.58368
 10
67.5514
 20
-3.33807
 10
67.6356
 20
-3.09017
 10
67.7132
 20
-2.84015
 10
67.7843
 20
-2.58819
 10
67.8487
 20
-2.33445
 10
67.9065
 20
-2.07912
 10
67.9575
 20
-1.82236
 10
68.0019
 20
-1.56434
 10
68.0394
 20
-1.30526
 10
68.0702
 20
-1.04528
 10
68.0942
 20
-0.784591
 10
68.1113
 20
-0.52336
 10
68.1216
 20
-0.261769
 10
68.125
 20
0
 10
68.1216
 20
0.261769
 10
68.1113
 20
0.52336
 10
68.0942
 20
0.784591
 10
68.0702
 20
1.04528
 10
68.0394
 20
1.30526
 10
68.0019
 20
1.56434
 10
67.9575
 20
1.82236
 10
67.9065
 20
2.07912
 10
67.8487
 20
2.33445
 10
67.7843
 20
2.58819
 10
67.7132
 20
2.84015
 10
67.6356
 20
3.09017
 10
67.5514
 20
3.33807
 10
67.4608
 20
3.58368
 10
67.3638
 20
3.82683
 10
67.2605
 20
4.06737
 10
67.1509
 20
4.30511
 10
67.0351
 20
4.5399
 10
66.9132
 20
4.77159
 10
66.7853
 20
5
 10
66.6514
 20
5.22499
 10
66.5117
 20
5.44639
 10
66.3663
 20
5.66406
 10
66.2152
 20
5.87785
 10
66.0585
 20
6.08761
 10
65.8965
 20
6.2932
 10
65.7291
 20
6.49448
 10
65.5564
 20
6.69131
 10
65.3787
 20
6.88355
 10
65.1961
 20
7.07107
 10
65.0085
 20
7.25374
 10
64.8163
 20
7.43145
 10
64.6195
 20
7.60406
 10
64.4182
 20
7.77146
 10
64.2126
 20
7.93353
 10
64.0029
 20
8.09017
 10
63.7891
 20
8.24126
 10
63.5714
 20
8.38671
 10
63.35
 20
8.5264
 10
63.125
 20
8.66025
 10
62.8966
 20
8.78817
 10
62.6649
 20
8.91007
 10
62.4301
 20
9.02585
 10
62.1924
 20
9.13545
 10
61.9518
 20
9.2388
 10
61.7087
 20
9.3358
 10
61.4631
 20
9.42641
 10
61.2152
 20
9.51057
 10
60.9652
 20
9.5882
 10
60.7132
 20
9.65926
 10
60.4595
 20
9.7237
 10
60.2041
 20
9.78148
 10
59.9474
 20
9.83255
 10
59.6893
 20
9.87688
 10
59.4303
 20
9.91445
 10
59.424
 20
9.91519
 10
59.2411
 20
10.9797
 10
58.9334
 20
12.5267
 10
58.5853
 20
14.0651
 10
58.197
 20
15.5938
 10
57.7689
 20
17.1119
 10
57.3012
 20
18.6183
 10
56.7941
 20
20.1119
 10
56.2482
 20
21.5917
 10
55.6637
 20
23.0567
 10
55.0411
 20
24.5059
 10
54.3808
 20
25.9383
 10
53.6831
 20
27.3529
 10
52.9487
 20
28.7488
 10
52.178
 20
30.125
 10
51.3716
 20
31.4805
 10
50.5299
 20
32.8145
 10
49.6536
 20
34.126
 10
48.7433
 20
35.4141
 10
47.7995
 20
36.6779
 10
46.823
 20
37.9166
 10
45.8145
 20
39.1292
 10
44.7745
 20
40.3151
 10
43.7038
 20
41.4734
 10
42.6032
 20
42.6032
 10
41.4734
 20
43.7038
 10
40.3151
 20
44.7745
 10
39.1292
 20
45.8145
 10
37.9166
 20
46.823
 10
36.6779
 20
47.7995
 10
35.4141
 20
48.7433
 10
34.126
 20
49.6536
 10
32.8145
 20
50.5299
 10
31.4805
 20
51.3716
 10
30.125
 20
52.178
 10
28.7488
 20
52.9487
 10
27.3529
 20
53.6831
 10
25.9383
 20
54.3808
 10
24.5059
 20
55.0411
 10
23.0567
 20
55.6637
 10
21.5917
 20
56.2482
 10
20.1119
 20
56.7941
 10
18.6183
 20
57.3012
 10
17.1119
 20
57.7689
 10
15.5938
 20
58.197
 10
14.0651
 20
58.5853
 10
12.5267
 20
58.9334
 10
10.9797
 20
59.2411
 10
9.91519
 20
59.424
 10
9.91445
 20
59.4303
 10
9.87688
 20
59.6893
 10
9.83255
 20
59.9474
 10
9.78148
 20
60.2041
 10
9.7237
 20
60.4595
 10
9.65926
 20
60.7132
 10
9.5882
 20
60.9652
 10
9.51057
 20
61.2152
 10
9.42641
 20
61.4631
 10
9.3358
 20
61.7087
 10
9.2388
 20
61.9518
 10
9.13545
 20
62.1924
 10
9.02585
 20
62.4301
 10
8.91007
 20
62.6649
 10
8.78817
 20
62.8966
 10
8.66025
 20
63.125
 10
8.5264
 20
63.35
 10
8.38671
 20
63.5714
 10
8.24126
 20
63.7891
 10
8.09017
 20
64.0029
 10
7.93353
 20
64.2126
 10
7.77146
 20
64.4182
 10
7.60406
 20
64.6195
 10
7.43145
 20
64.8163
 10
7.25374
 20
65.0085
 10
7.07107
 20
65.1961
 10
6.88355
 20
65.3787
 10
6.69131
 20
65.5564
 10
6.49448
 20
65.7291
 10
6.2932
 20
65.8965
 10
6.08761
 20
66.0585
 10
5.87785
 20
66.2152
 10
5.66406
 20
66.3663
 10
5.44639
 20
66.5117
 10
5.22499
 20
66.6514
 10
5
 20
66.7853
 10
4.77159
 20
66.9132
 10
4.5399
 20
67.0351
 10
4.30511
 20
67.1509
 10
4.06737
 20
67.2605
 10
3.82683
 20
67.3638
 10
3.58368
 20
67.4608
 10
3.33807
 20
67.5514
 10
3.09017
 20
67.6356
 10
2.84015
 20
67.7132
 10
2.58819
 20
67.7843
 10
2.33445
 20
67.8487
 10
2.07912
 20
67.9065
 10
1.82236
 20
67.9575
 10
1.56434
 20
68.0019
 10
1.30526
 20
68.0394
 10
1.04528
 20
68.0702
 10
0.784591
 20
68.0942
 10
0.52336
 20
68.1113
 10
0.261769
 20
68.1216
 10
0
 20
68.125
 10
-0.261769
 20
68.1216
 10
-0.52336
 20
68.1113
 10
-0.784591
 20
68.0942
 10
-1.04528
 20
68.0702
 10
-1.30526
 20
68.0394
 10
-1.56434
 20
68.0019
 10
-1.82236
 20
67.9575
 10
-2.07912
 20
67.9065
 10
-2.33445
 20
67.8487
 10
-2.58819
 20
67.7843
 10
-2.84015
 20
67.7132
 10
-3.09017
 20
67.6356
 10
-3.33807
 20
67.5514
 10
-3.58368
 20
67.4608
 10
-3.82683
 20
67.3638
 10
-4.06737
 20
67.2605
 10
-4.30511
 20
67.1509
 10
-4.5399
 20
67.0351
 10
-4.77159
 20
66.9132
 10
-5
 20
66.7853
 10
-5.22499
 20
66.6514
 10
-5.44639
 20
66.5117
 10
-5.66406
 20
66.3663
 10
-5.87785
 20
66.2152
 10
-6.08761
 20
66.0585
 10
-6.2932
 20
65.8965
 10
-6.49448
 20
65.7291
 10
-6.69131
 20
65.5564
 10
-6.88355
 20
65.3787
 10
-7.07107
 20
65.1961
 10
-7.25374
 20
65.0085
 10
-7.43145
 20
64.8163
 10
-7.60406
 20
64.6195
 10
-7.77146
 20
64.4182
 10
-7.93353
 20
64.2126
 10
-8.09017
 20
64.0029
 10
-8.24126
 20
63.7891
 10
-8.38671
 20
63.5714
 10
-8.5264
 20
63.35
 10
-8.66025
 20
63.125
 10
-8.78817
 20
62.8966
 10
-8.91007
 20
62.6649
 10
-9.02585
 20
62.4301
 10
-9.13545
 20
62.1924
 10
-9.2388
 20
61.9518
 10
-9.3358
 20
61.7087
 10
-9.42641
 20
61.4631
 10
-9.51057
 20
61.2152
 10
-9.5882
 20
60.9652
 10
-9.65926
 20
60.7132
 10
-9.7237
 20
60.4595
 10
-9.78148
 20
60.2041
 10
-9.83255
 20
59.9474
 10
-9.87688
 20
59.6893
 10
-9.91445
 20
59.4303
 10
-9.91519
 20
59.424
 10
-10.9797
 20
59.2411
 10
-12.5267
 20
58.9334
 10
-14.0651
 20
58.5853
 10
-15.5938
 20
58.197
 10
-17.1119
 20
57.7689
 10
-18.6183
 20
57.3012
 10
-20.1119
 20
56.7941
 10
-21.5917
 20
56.2482
 10
-23.0567
 20
55.6637
 10
-24.5059
 20
55.0411
 10
-25.9383
 20
54.3808
 10
-27.3529
 20
53.6831
 10
-28.7488
 20
52.9487
 10
-30.125
 20
52.178
 10
-31.4805
 20
51.3716
 10
-32.8145
 20
50.5299
 10
-34.126
 20
49.6536
 10
-35.4141
 20
48.7433
 10
-36.6779
 20
47.7995
 10
-37.9166
 20
46.823
 10
-39.1292
 20
45.8145
 10
-40.3151
 20
44.7745
 10
-41.4734
 20
43.7038
 10
-42.6032
 20
42.6032
 10
-43.7038
 20
41.4734
 10
-44.7745
 20
40.3151
 10
-45.8145
 20
39.1292
 10
-46.823
 20
37.9166
 10
-47.7995
 20
36.6779
 10
-48.7433
 20
35.4141
 10
-49.6536
 20
34.126
 10
-50.5299
 20
32.8145
 10
-51.3716
 20
31.4805
 10
-52.178
 20
30.125
 10
-52.9487
 20
28.7488
 10
-53.6831
 20
27.3529
 10
-54.3808
 20
25.9383
 10
-55.0411
 20
24.5059
 10
-55.6637
 20
23.0567
 10
-56.2482
 20
21.5917
 10
-56.7941
 20
20.1119
 10
-57.3012
 20
18.6183
 10
-57.7689
 20
17.1119
 10
-58.197
 20
15.5938
 10
-58.5853
 20
14.0651
 10
-58.9334
 20
12.5267
 10
-59.2411
 20
10.9797
 10
-59.424
 20
9.91519
 10
-59.4303
 20
9.91445
 10
-59.6893
 20
9.87688
 10
-59.9474
 20
9.83255
 10
-60.2041
 20
9.78148
 10
-60.4595
 20
9.7237
 10
-60.7132
 20
9.65926
 10
-60.9652
 20
9.5882
 10
-61.2152
 20
9.51057
 10
-61.4631
 20
9.42641
 10
-61.7087
 20
9.3358
 10
-61.9518
 20
9.2388
 10
-62.1924
 20
9.13545
 10
-62.4301
 20
9.02585
 10
-62.6649
 20
8.91007
 10
-62.8966
 20
8.78817
 10
-63.125
 20
8.66025
 10
-63.35
 20
8.5264
 10
-63.5714
 20
8.38671
 10
-63.7891
 20
8.24126
 10
-64.0029
 20
8.09017
 10
-64.2126
 20
7.93353
 10
-64.4182
 20
7.77146
 10
-64.6195
 20
7.60406
 10
-64.8163
 20
7.43145
 10
-65.0085
 20
7.25374
 10
-65.1961
 20
7.07107
 10
-65.3787
 20
6.88355
 10
-65.5564
 20
6.69131
 10
-65.7291
 20
6.49448
 10
-65.8965
 20
6.2932
 10
-66.0585
 20
6.08761
 10
-66.2152
 20
5.87785
 10
-66.3663
 20
5.66406
 10
-66.5117
 20
5.44639
 10
-66.6514
 20
5.22499
 10
-66.7853
 20
5
 10
-66.9132
 20
4.77159
 10
-67.0351
 20
4.5399
 10
-67.1509
 20
4.30511
 10
-67.2605
 20
4.06737
 10
-67.3638
 20
3.82683
 10
-67.4608
 20
3.58368
 10
-67.5514
 20
3.33807
 10
-67.6356
 20
3.09017
 10
-67.7132
 20
2.84015
 10
-67.7843
 20
2.58819
 10
-67.8487
 20
2.33445
 10
-67.9065
 20
2.07912
 10
-67.9575
 20
1.82236
 10
-68.0019
 20
1.56434
 10
-68.0394
 20
1.30526
 10
-68.0702
 20
1.04528
 10
-68.0942
 20
0.784591
 10
-68.1113
 20
0.52336
 10
-68.1216
 20
0.261769
 10
-68.125
 20
0
 10
-68.1216
 20
-0.261769
 10
-68.1113
 20
-0.52336
 10
-68.0942
 20
-0.784591
 10
-68.0702
 20
-1.04528
 10
-68.0394
 20
-1.30526
 10
-68.0019
 20
-1.56434
 10
-67.9575
 20
-1.82236
 10
-67.9065
 20
-2.07912
 10
-67.8487
 20
-2.33445
 10
-67.7843
 20
-2.58819
 10
-67.7132
 20
-2.84015
 10
-67.6356
 20
-3.09017
 10
-67.5514
 20
-3.33807
 10
-67.4608
 20
-3.58368
 10
-67.3638
 20
-3.82683
 10
-67.2605
 20
-4.06737
 10
-67.1509
 20
-4.30511
 10
-67.0351
 20
-4.5399
 10
-66.9132
 20
-4.77159
 10
-66.7853
 20
-5
 10
-66.6514
 20
-5.22499
 10
-66.5117
 20
-5.44639
 10
-66.3663
 20
-5.66406
 10
-66.2152
 20
-5.87785
 10
-66.0585
 20
-6.08761
 10
-65.8965
 20
-6.2932
 10
-65.7291
 20
-6.49448
 10
-65.5564
 20
-6.69131
 10
-65.3787
 20
-6.88355
 10
-65.1961
 20
-7.07107
 10
-65.0085
 20
-7.25374
 10
-64.8163
 20
-7.43145
 10
-64.6195
 20
-7.60406
 10
-64.4182
 20
-7.77146
 10
-64.2126
 20
-7.93353
 10
-64.0029
 20
-8.09017
 10
-63.7891
 20
-8.24126
 10
-63.5714
 20
-8.38671
 10
-63.35
 20
-8.5264
 10
-63.125
 20
-8.66025
 10
-62.8966
 20
-8.78817
 10
-62.6649
 20
-8.91007
 10
-62.4301
 20
-9.02585
 10
-62.1924
 20
-9.13545
 10
-61.9518
 20
-9.2388
 10
-61.7087
 20
-9.3358
 10
-61.4631
 20
-9.42641
 10
-61.2152
 20
-9.51057
 10
-60.9652
 20
-9.5882
 10
-60.7132
 20
-9.65926
 10
-60.4595
 20
-9.7237
 10
-60.2041
 20
-9.78148
 10
-59.9474
 20
-9.83255
 10
-59.6893
 20
-9.87688
 10
-59.4303
 20
-9.91445
 10
-59.424
 20
-9.91519
 10
-59.2411
 20
-10.9797
 10
-58.9334
 20
-12.5267
 10
-58.5853
 20
-14.0651
 10
-58.197
 20
-15.5938
 10
-57.7689
 20
-17.1119
 10
-57.3012
 20
-18.6183
 10
-56.7941
 20
-20.1119
 10
-56.2482
 20
-21.5917
 10
-55.6637
 20
-23.0567
 10
-55.0411
 20
-24.5059
 10
-54.3808
 20
-25.9383
 10
-53.6831
 20
-27.3529
 10
-52.9487
 20
-28.7488
 10
-52.178
 20
-30.125
 10
-51.3716
 20
-31.4805
 10
-50.5299
 20
-32.8145
 10
-49.6536
 20
-34.126
 10
-48.7433
 20
-35.4141
 10
-47.7995
 20
-36.6779
 10
-46.823
 20
-37.9166
 10
-45.8145
 20
-39.1292
 10
-44.7745
 20
-40.3151
 10
-43.7038
 20
-41.4734
 10
-42.6032
 20
-42.6032
 10
-41.4734
 20
-43.7038
 10
-40.3151
 20
-44.7745
 10
-39.1292
 20
-45.8145
 10
-37.9166
 20
-46.823
 10
-36.6779
 20
-47.7995
 10
-35.4141
 20
-48.7433
 10
-34.126
 20
-49.6536
 10
-32.8145
 20
-50.5299
 10
-31.4805
 20
-51.3716
 10
-30.125
 20
-52.178
 10
-28.7488
 20
-52.9487
 10
-27.3529
 20
-53.6831
 10
-25.9383
 20
-54.3808
 10
-24.5059
 20
-55.0411
 10
-23.0567
 20
-55.6637
 10
-21.5917
 20
-56.2482
 10
-20.1119
 20
-56.7941
 10
-18.6183
 20
-57.3012
 10
-17.1119
 20
-57.7689
 10
-15.5938
 20
-58.197
 10
-14.0651
 20
-58.5853
 10
-12.5267
 20
-58.9334
 10
-10.9797
 20
-59.2411
 10
-9.91519
 20
-59.424
 10
-9.91445
 20
-59.4303
 10
-9.87688
 20
-59.6893
 10
-9.83255
 20
-59.9474
 10
-9.78148
 20
-60.2041
 10
-9.7237
 20
-60.4595
 10
-9.65926
 20
-60.7132
 10
-9.5882
 20
-60.9652
 10
-9.51057
 20
-61.2152
 10
-9.42641
 20
-61.4631
 10
-9.3358
 20
-61.7087
 10
-9.2388
 20
-61.9518
 10
-9.13545
 20
-62.1924
 10
-9.02585
 20
-62.4301
 10
-8.91007
 20
-62.6649
 10
-8.78817
 20
-62.8966
 10
-8.66025
 20
-63.125
 10
-8.5264
 20
-63.35
 10
-8.38671
 20
-63.5714
 10
-8.24126
 20
-63.7891
 10
-8.09017
 20
-64.0029
 10
-7.93353
 20
-64.2126
 10
-7.77146
 20
-64.4182
 10
-7.60406
 20
-64.6195
 10
-7.43145
 20
-64.8163
 10
-7.25374
 20
-65.0085
 10
-7.07107
 20
-65.1961
 10
-6.88355
 20
-65.3787
 10
-6.69131
 20
-65.5564
 10
-6.49448
 20
-65.7291
 10
-6.2932
 20
-65.8965
 10
-6.08761
 20
-66.0585
 10
-5.87785
 20
-66.2152
 10
-5.66406
 20
-66.3663
 10
-5.44639
 20
-66.5117
 10
-5.22499
 20
-66.6514
 10
-5
 20
-66.7853
 10
-4.77159
 20
-66.9132
 10
-4.5399
 20
-67.0351
 10
-4.30511
 20
-67.1509
 10
-4.06737
 20
-67.2605
 10
-3.82683
 20
-67.3638
 10
-3.58368
 20
-67.4608
 10
-3.33807
 20
-67.5514
 10
-3.09017
 20
-67.6356
 10
-2.84015
 20
-67.7132
 10
-2.58819
 20
-67.7843
 10
-2.33445
 20
-67.8487
 10
-2.07912
 20
-67.9065
 10
-1.82236
 20
-67.9575
 10
-1.56434
 20
-68.0019
 10
-1.30526
 20
-68.0394
 10
-1.04528
 20
-68.0702
 10
-0.784591
 20
-68.0942
 10
-0.52336
 20
-68.1113
 10
-0.261769
 20
-68.1216
 10
0
 20
-68.125
  0
LWPOLYLINE
100
AcDbEntity
  8
0
100
AcDbPolyline
 90
240
 70
1
 10
-1.46591
 20
-55.9808
 10
-2.93081
 20
-55.9233
 10
-4.39371
 20
-55.8274
 10
-5.85359
 20
-55.6932
 10
-7.30947
 20
-55.5209
 10
-8.76033
 20
-55.3105
 10
-10.2052
 20
-55.0623
 10
-11.6431
 20
-54.7763
 10
-13.0729
 20
-54.4527
 10
-14.4939
 20
-54.0918
 10
-15.9049
 20
-53.6939
 10
-17.305
 20
-53.2592
 10
-18.6932
 20
-52.7879
 10
-20.0686
 20
-52.2805
 10
-21.4303
 20
-51.7373
 10
-22.7773
 20
-51.1585
 10
-24.1086
 20
-50.5448
 10
-25.4235
 20
-49.8964
 10
-26.7209
 20
-49.2138
 10
-28
 20
-48.4974
 10
-29.2599
 20
-47.7478
 10
-30.4998
 20
-46.9656
 10
-31.7187
 20
-46.1511
 10
-32.916
 20
-45.305
 10
-34.0906
 20
-44.4278
 10
-35.2419
 20
-43.5202
 10
-36.3691
 20
-42.5827
 10
-37.4713
 20
-41.6161
 10
-38.5479
 20
-40.621
 10
-39.598
 20
-39.598
 10
-40.621
 20
-38.5479
 10
-41.6161
 20
-37.4713
 10
-42.5827
 20
-36.3691
 10
-43.5202
 20
-35.2419
 10
-44.4278
 20
-34.0906
 10
-45.305
 20
-32.916
 10
-46.1511
 20
-31.7187
 10
-46.9656
 20
-30.4998
 10
-47.7478
 20
-29.2599
 10
-48.4974
 20
-28
 10
-49.2138
 20
-26.7209
 10
-49.8964
 20
-25.4235
 10
-50.5448
 20
-24.1086
 10
-51.1585
 20
-22.7773
 10
-51.7373
 20
-21.4303
 10
-52.2805
 20
-20.0686
 10
-52.7879
 20
-18.6932
 10
-53.2592
 20
-17.305
 10
-53.6939
 20
-15.9049
 10
-54.0918
 20
-14.4939
 10
-54.4527
 20
-13.0729
 10
-54.7763
 20
-11.6431
 10
-55.0623
 20
-10.2052
 10
-55.3105
 20
-8.76033
 10
-55.5209
 20
-7.30947
 10
-55.6932
 20
-5.85359
 10
-55.8274
 20
-4.39371
 10
-55.9233
 20
-2.93081
 10
-55.9808
 20
-1.46591
 10
-56
 20
0
 10
-55.9808
 20
1.46591
 10
-55.9233
 20
2.93081
 10
-55.8274
 20
4.39371
 10
-55.6932
 20
5.85359
 10
-55.5209
 20
7.30947
 10
-55.3105
 20
8.76033
 10
-55.0623
 20
10.2052
 10
-54.7763
 20
11.6431
 10
-54.4527
 20
13.0729
 10
-54.0918
 20
14.4939
 10
-53.6939
 20
15.9049
 10
-53.2592
 20
17.305
 10
-52.7879
 20
18.6932
 10
-52.2805
 20
20.0686
 10
-51.7373
 20
21.4303
 10
-51.1585
 20
22.7773
 10
-50.5448
 20
24.1086
 10
-49.8964
 20
25.4235
 10
-49.2138
 20
26.7209
 10
-48.4974
 20
28
 10
-47.7478
 20
29.2599
 10
-46.9656
 20
30.4998
 10
-46.1511
 20
31.7187
 10
-45.305
 20
32.916
 10
-44.4278
 20
34.0906
 10
-43.5202
 20
35.2419
 10
-42.5827
 20
36.3691
 10
-41.6161
 20
37.4713
 10
-40.621
 20
38.5479
 10
-39.598
 20
39.598
 10
-38.5479
 20
40.621
 10
-37.4713
 20
41.6161
 10
-36.3691
 20
42.5827
 10
-35.2419
 20
43.5202
 10
-34.0906
 20
44.4278
 10
-32.916
 20
45.305
 10
-31.7187
 20
46.1511
 10
-30.4998
 20
46.9656
 10
-29.2599
 20
47.7478
 10
-28
 20
48.4974
 10
-26.7209
 20
49.2138
 10
-25.4235
 20
49.8964
 10
-24.1086
 20
50.5448
 10
-22.7773
 20
51.1585
 10
-21.4303
 20
51.7373
 10
-20.0686
 20
52.2805
 10
-18.6932
 20
52.7879
 10
-17.305
 20
53.2592
 10
-15.9049
 20
53.6939
 10
-14.4939
 20
54.0918
 10
-13.0729
 20
54.4527
 10
-11.6431
 20
54.7763
 10
-10.2052
 20
55.0623
 10
-8.76033
 20
55.3105
 10
-7.30947
 20
55.5209
 10
-5.85359
 20
55.6932
 10
-4.39371
 20
55.8274
 10
-2.93081
 20
55.9233
 10
-1.46591
 20
55.9808
 10
0
 20
56
 10
1.46591
 20
55.9808
 10
2.93081
 20
55.9233
 10
4.39371
 20
55.8274
 10
5.85359
 20
55.6932
 10
7.30947
 20
55.5209
 10
8.76033
 20
55.3105
 10
10.2052
 20
55.0623
 10
11.6431
 20
54.7763
 10
13.0729
 20
54.4527
 10
14.4939
 20
54.0918
 10
15.9049
 20
53.6939
 10
17.305
 20
53.2592
 10
18.6932
 20
52.7879
 10
20.0686
 20
52.2805
 10
21.4303
 20
51.7373
 10
22.7773
 20
51.1585
 10
24.1086
 20
50.5448
 10
25.4235
 20
49.8964
 10
26.7209
 20
49.2138
 10
28
 20
48.4974
 10
29.2599
 20
47.7478
 10
30.4998
 20
46.9656
 10
31.7187
 20
46.1511
 10
32.916
 20
45.305
 10
34.0906
 20
44.4278
 10
35.2419
 20
43.5202
 10
36.3691
 20
42.5827
 10
37.4713
 20
41.6161
 10
38.5479
 20
40.621
 10
39.598
 20
39.598
 10
40.621
 20
38.5479
 10
41.6161
 20
37.4713
 10
42.5827
 20
36.3691
 10
43.5202
 20
35.2419
 10
44.4278
 20
34.0906
 10
45.305
 20
32.916
 10
46.1511
 20
31.7187
 10
46.9656
 20
30.4998
 10
47.7478
 20
29.2599
 10
48.4974
 20
28
 10
49.2138
 20
26.7209
 10
49.8964
 20
25.4235
 10
50.5448
 20
24.1086
 10
51.1585
 20
22.7773
 10
51.7373
 20
21.4303
 10
52.2805
 20
20.0686
 10
52.7879
 20
18.6932
 10
53.2592
 20
17.305
 10
53.6939
 20
15.9049
 10
54.0918
 20
14.4939
 10
54.4527
 20
13.0729
 10
54.7763
 20
11.6431
 10
55.0623
 20
10.2052
 10
55.3105
 20
8.76033
 10
55.5209
 20
7.30947
 10
55.6932
 20
5.85359
 10
55.8274
 20
4.39371
 10
55.9233
 20
2.93081
 10
55.9808
 20
1.46591
 10
56
 20
0
 10
55.9808
 20
-1.46591
 10
55.9233
 20
-2.93081
 10
55.8274
 20
-4.39371
 10
55.6932
 20
-5.85359
 10
55.5209
 20
-7.30947
 10
55.3105
 20
-8.76033
 10
55.0623
 20
-10.2052
 10
54.7763
 20
-11.6431
 10
54.4527
 20
-13.0729
 10
54.0918
 20
-14.4939
 10
53.6939
 20
-15.9049
 10
53.2592
 20
-17.305
 10
52.7879
 20
-18.6932
 10
52.2805
 20
-20.0686
 10
51.7373
 20
-21.4303
 10
51.1585
 20
-22.7773
 10
50.5448
 20
-24.1086
 10
49.8964
 20
-25.4235
 10
49.2138
 20
-26.7209
 10
48.4974
 20
-28
 10
47.7478
 20
-29.2599
 10
46.9656
 20
-30.4998
 10
46.1511
 20
-31.7187
 10
45.305
 20
-32.916
 10
44.4278
 20
-34.0906
 10
43.5202
 20
-35.2419
 10
42.5827
 20
-36.3691
 10
41.6161
 20
-37.4713
 10
40.621
 20
-38.5479
 10
39.598
 20
-39.598
 10
38.5479
 20
-40.621
 10
37.4713
 20
-41.6161
 10
36.3691
 20
-42.5827
 10
35.2419
 20
-43.5202
 10
34.0906
 20
-44.4278
 10
32.916
 20
-45.305
 10
31.7187
 20
-46.1511
 10
30.4998
 20
-46.9656
 10
29.2599
 20
-47.7478
 10
28
 20
-48.4974
 10
26.7209
 20
-49.2138
 10
25.4235
 20
-49.8964
 10
24.1086
 20
-50.5448
 10
22.7773
 20
-51.1585
 10
21.4303
 20
-51.7373
 10
20.0686
 20
-52.2805
 10
18.6932
 20
-52.7879
 10
17.305
 20
-53.2592
 10
15.9049
 20
-53.6939
 10
14.4939
 20
-54.0918
 10
13.0729
 20
-54.4527
 10
11.6431
 20
-54.7763
 10
10.2052
 20
-55.0623
 10
8.76033
 20
-55.3105
 10
7.30947
 20
-55.5209
 10
5.85359
 20
-55.6932
 10
4.39371
 20
-55.8274
 10
2.93081
 20
-55.9233
 10
1.46591
 20
-55.9808
 10
0
 20
-56
  0
ENDSEC
  0
EOF
