999
DXF from OpenSCAD
  0
SECTION
  2
HEADER
  9
$ACADVER
  1
AC1006
  9
$INSBASE
 10
0.0
 20
0.0
 30
0.0
  9
$EXTMIN
 10
-65.125
 20
-65.125
  9
$EXTMAX
 10
65.125
 20
65.125
  9
$LINMIN
 10
-65.125
 20
-65.125
  9
$LINMAX
 10
65.125
 20
65.125
  0
ENDSEC
  0
SECTION
  2
TABLES
  0
TABLE
  2
LTYPE
 70
1
  0
LTYPE
  2
CONTINUOUS
 70
64
  3
Solid line
 72
65
 73
0
 40
0.000000
  0
ENDTAB
  0
TABLE
  2
LAYER
 70
6
  0
LAYER
  2
0
 70
64
 62
7
  6
CONTINUOUS
  0
ENDTAB
  0
TABLE
  2
STYLE
 70
0
  0
ENDTAB
  0
ENDSEC
  0
SECTION
  2
BLOCKS
  0
ENDSEC
  0
SECTION
  2
ENTITIES
  0
LWPOLYLINE
100
AcDbEntity
  8
0
100
AcDbPolyline
 90
616
 70
1
 10
0.219232
 20
-65.1221
 10
0.438314
 20
-65.1135
 10
0.657095
 20
-65.0992
 10
0.875426
 20
-65.0791
 10
1.09316
 20
-65.0534
 10
1.31014
 20
-65.0219
 10
1.52622
 20
-64.9848
 10
1.74126
 20
-64.942
 10
1.9551
 20
-64.8936
 10
2.16761
 20
-64.8396
 10
2.37863
 20
-64.7801
 10
2.58802
 20
-64.7151
 10
2.79563
 20
-64.6446
 10
3.00133
 20
-64.5687
 10
3.20497
 20
-64.4875
 10
3.40642
 20
-64.4009
 10
3.60553
 20
-64.3092
 10
3.80217
 20
-64.2122
 10
3.9962
 20
-64.1101
 10
4.1875
 20
-64.003
 10
4.37593
 20
-63.8909
 10
4.56135
 20
-63.7739
 10
4.74365
 20
-63.6521
 10
4.9227
 20
-63.5255
 10
5.09838
 20
-63.3943
 10
5.27056
 20
-63.2586
 10
5.43913
 20
-63.1184
 10
5.60397
 20
-62.9738
 10
5.76497
 20
-62.825
 10
5.92202
 20
-62.672
 10
6.07501
 20
-62.515
 10
6.22384
 20
-62.354
 10
6.3684
 20
-62.1891
 10
6.5086
 20
-62.0206
 10
6.64433
 20
-61.8484
 10
6.77552
 20
-61.6727
 10
6.90206
 20
-61.4937
 10
7.02387
 20
-61.3114
 10
7.14086
 20
-61.1259
 10
7.25296
 20
-60.9375
 10
7.36009
 20
-60.7462
 10
7.46218
 20
-60.5522
 10
7.55915
 20
-60.3555
 10
7.65094
 20
-60.1564
 10
7.73749
 20
-59.955
 10
7.81874
 20
-59.7513
 10
7.89462
 20
-59.5456
 10
7.9651
 20
-59.338
 10
8.03012
 20
-59.1286
 10
8.08963
 20
-58.9176
 10
8.1436
 20
-58.7051
 10
8.14861
 20
-58.6829
 10
9.26874
 20
-58.5205
 10
10.7975
 20
-58.2579
 10
12.3188
 20
-57.9552
 10
13.8316
 20
-57.6129
 10
15.335
 20
-57.2311
 10
16.8279
 20
-56.8101
 10
18.3093
 20
-56.3501
 10
19.7781
 20
-55.8515
 10
21.2333
 20
-55.3146
 10
22.674
 20
-54.7399
 10
24.0991
 20
-54.1276
 10
25.5078
 20
-53.4782
 10
26.8989
 20
-52.7921
 10
28.2717
 20
-52.0699
 10
29.625
 20
-51.312
 10
30.958
 20
-50.5189
 10
32.2699
 20
-49.6912
 10
33.5596
 20
-48.8295
 10
34.8263
 20
-47.9343
 10
36.0691
 20
-47.0062
 10
37.2872
 20
-46.0459
 10
38.4798
 20
-45.0541
 10
39.646
 20
-44.0313
 10
40.785
 20
-42.9784
 10
41.8961
 20
-41.8961
 10
42.9784
 20
-40.785
 10
44.0313
 20
-39.646
 10
45.0541
 20
-38.4798
 10
46.0459
 20
-37.2872
 10
47.0062
 20
-36.0691
 10
47.9343
 20
-34.8263
 10
48.8295
 20
-33.5596
 10
49.6912
 20
-32.2699
 10
50.5189
 20
-30.958
 10
51.312
 20
-29.625
 10
52.0699
 20
-28.2717
 10
52.7921
 20
-26.8989
 10
53.4782
 20
-25.5078
 10
54.1276
 20
-24.0991
 10
54.7399
 20
-22.674
 10
55.3146
 20
-21.2333
 10
55.8515
 20
-19.7781
 10
56.3501
 20
-18.3093
 10
56.8101
 20
-16.8279
 10
57.2311
 20
-15.335
 10
57.6129
 20
-13.8316
 10
57.9552
 20
-12.3188
 10
58.2579
 20
-10.7975
 10
58.5205
 20
-9.26874
 10
58.6829
 20
-8.14861
 10
58.7051
 20
-8.1436
 10
58.9176
 20
-8.08963
 10
59.1286
 20
-8.03012
 10
59.338
 20
-7.9651
 10
59.5456
 20
-7.89462
 10
59.7513
 20
-7.81874
 10
59.955
 20
-7.73749
 10
60.1564
 20
-7.65094
 10
60.3555
 20
-7.55915
 10
60.5522
 20
-7.46218
 10
60.7462
 20
-7.36009
 10
60.9375
 20
-7.25296
 10
61.1259
 20
-7.14086
 10
61.3114
 20
-7.02387
 10
61.4937
 20
-6.90206
 10
61.6727
 20
-6.77552
 10
61.8484
 20
-6.64433
 10
62.0206
 20
-6.5086
 10
62.1891
 20
-6.3684
 10
62.354
 20
-6.22384
 10
62.515
 20
-6.07501
 10
62.672
 20
-5.92202
 10
62.825
 20
-5.76497
 10
62.9738
 20
-5.60397
 10
63.1184
 20
-5.43913
 10
63.2586
 20
-5.27056
 10
63.3943
 20
-5.09838
 10
63.5255
 20
-4.9227
 10
63.6521
 20
-4.74365
 10
63.7739
 20
-4.56135
 10
63.8909
 20
-4.37593
 10
64.003
 20
-4.1875
 10
64.1101
 20
-3.9962
 10
64.2122
 20
-3.80217
 10
64.3092
 20
-3.60553
 10
64.4009
 20
-3.40642
 10
64.4875
 20
-3.20497
 10
64.5687
 20
-3.00133
 10
64.6446
 20
-2.79563
 10
64.7151
 20
-2.58802
 10
64.7801
 20
-2.37863
 10
64.8396
 20
-2.16761
 10
64.8936
 20
-1.9551
 10
64.942
 20
-1.74126
 10
64.9848
 20
-1.52622
 10
65.0219
 20
-1.31014
 10
65.0534
 20
-1.09316
 10
65.0791
 20
-0.875426
 10
65.0992
 20
-0.657095
 10
65.1135
 20
-0.438314
 10
65.1221
 20
-0.219232
 10
65.125
 20
0
 10
65.1221
 20
0.219232
 10
65.1135
 20
0.438314
 10
65.0992
 20
0.657095
 10
65.0791
 20
0.875426
 10
65.0534
 20
1.09316
 10
65.0219
 20
1.31014
 10
64.9848
 20
1.52622
 10
64.942
 20
1.74126
 10
64.8936
 20
1.9551
 10
64.8396
 20
2.16761
 10
64.7801
 20
2.37863
 10
64.7151
 20
2.58802
 10
64.6446
 20
2.79563
 10
64.5687
 20
3.00133
 10
64.4875
 20
3.20497
 10
64.4009
 20
3.40642
 10
64.3092
 20
3.60553
 10
64.2122
 20
3.80217
 10
64.1101
 20
3.9962
 10
64.003
 20
4.1875
 10
63.8909
 20
4.37593
 10
63.7739
 20
4.56135
 10
63.6521
 20
4.74365
 10
63.5255
 20
4.9227
 10
63.3943
 20
5.09838
 10
63.2586
 20
5.27056
 10
63.1184
 20
5.43913
 10
62.9738
 20
5.60397
 10
62.825
 20
5.76497
 10
62.672
 20
5.92202
 10
62.515
 20
6.07501
 10
62.354
 20
6.22384
 10
62.1891
 20
6.3684
 10
62.0206
 20
6.5086
 10
61.8484
 20
6.64433
 10
61.6727
 20
6.77552
 10
61.4937
 20
6.90206
 10
61.3114
 20
7.02387
 10
61.1259
 20
7.14086
 10
60.9375
 20
7.25296
 10
60.7462
 20
7.36009
 10
60.5522
 20
7.46218
 10
60.3555
 20
7.55915
 10
60.1564
 20
7.65094
 10
59.955
 20
7.73749
 10
59.7513
 20
7.81874
 10
59.5456
 20
7.89462
 10
59.338
 20
7.9651
 10
59.1286
 20
8.03012
 10
58.9176
 20
8.08963
 10
58.7051
 20
8.1436
 10
58.6829
 20
8.14861
 10
58.5205
 20
9.26874
 10
58.2579
 20
10.7975
 10
57.9552
 20
12.3188
 10
57.6129
 20
13.8316
 10
57.2311
 20
15.335
 10
56.8101
 20
16.8279
 10
56.3501
 20
18.3093
 10
55.8515
 20
19.7781
 10
55.3146
 20
21.2333
 10
54.7399
 20
22.674
 10
54.1276
 20
24.0991
 10
53.4782
 20
25.5078
 10
52.7921
 20
26.8989
 10
52.0699
 20
28.2717
 10
51.312
 20
29.625
 10
50.5189
 20
30.958
 10
49.6912
 20
32.2699
 10
48.8295
 20
33.5596
 10
47.9343
 20
34.8263
 10
47.0062
 20
36.0691
 10
46.0459
 20
37.2872
 10
45.0541
 20
38.4798
 10
44.0313
 20
39.646
 10
42.9784
 20
40.785
 10
41.8961
 20
41.8961
 10
40.785
 20
42.9784
 10
39.646
 20
44.0313
 10
38.4798
 20
45.0541
 10
37.2872
 20
46.0459
 10
36.0691
 20
47.0062
 10
34.8263
 20
47.9343
 10
33.5596
 20
48.8295
 10
32.2699
 20
49.6912
 10
30.958
 20
50.5189
 10
29.625
 20
51.312
 10
28.2717
 20
52.0699
 10
26.8989
 20
52.7921
 10
25.5078
 20
53.4782
 10
24.0991
 20
54.1276
 10
22.674
 20
54.7399
 10
21.2333
 20
55.3146
 10
19.7781
 20
55.8515
 10
18.3093
 20
56.3501
 10
16.8279
 20
56.8101
 10
15.335
 20
57.2311
 10
13.8316
 20
57.6129
 10
12.3188
 20
57.9552
 10
10.7975
 20
58.2579
 10
9.26874
 20
58.5205
 10
8.14861
 20
58.6829
 10
8.1436
 20
58.7051
 10
8.08963
 20
58.9176
 10
8.03012
 20
59.1286
 10
7.9651
 20
59.338
 10
7.89462
 20
59.5456
 10
7.81874
 20
59.7513
 10
7.73749
 20
59.955
 10
7.65094
 20
60.1564
 10
7.55915
 20
60.3555
 10
7.46218
 20
60.5522
 10
7.36009
 20
60.7462
 10
7.25296
 20
60.9375
 10
7.14086
 20
61.1259
 10
7.02387
 20
61.3114
 10
6.90206
 20
61.4937
 10
6.77552
 20
61.6727
 10
6.64433
 20
61.8484
 10
6.5086
 20
62.0206
 10
6.3684
 20
62.1891
 10
6.22384
 20
62.354
 10
6.07501
 20
62.515
 10
5.92202
 20
62.672
 10
5.76497
 20
62.825
 10
5.60397
 20
62.9738
 10
5.43913
 20
63.1184
 10
5.27056
 20
63.2586
 10
5.09838
 20
63.3943
 10
4.9227
 20
63.5255
 10
4.74365
 20
63.6521
 10
4.56135
 20
63.7739
 10
4.37593
 20
63.8909
 10
4.1875
 20
64.003
 10
3.9962
 20
64.1101
 10
3.80217
 20
64.2122
 10
3.60553
 20
64.3092
 10
3.40642
 20
64.4009
 10
3.20497
 20
64.4875
 10
3.00133
 20
64.5687
 10
2.79563
 20
64.6446
 10
2.58802
 20
64.7151
 10
2.37863
 20
64.7801
 10
2.16761
 20
64.8396
 10
1.9551
 20
64.8936
 10
1.74126
 20
64.942
 10
1.52622
 20
64.9848
 10
1.31014
 20
65.0219
 10
1.09316
 20
65.0534
 10
0.875426
 20
65.0791
 10
0.657095
 20
65.0992
 10
0.438314
 20
65.1135
 10
0.219232
 20
65.1221
 10
0
 20
65.125
 10
-0.219232
 20
65.1221
 10
-0.438314
 20
65.1135
 10
-0.657095
 20
65.0992
 10
-0.875426
 20
65.0791
 10
-1.09316
 20
65.0534
 10
-1.31014
 20
65.0219
 10
-1.52622
 20
64.9848
 10
-1.74126
 20
64.942
 10
-1.9551
 20
64.8936
 10
-2.16761
 20
64.8396
 10
-2.37863
 20
64.7801
 10
-2.58802
 20
64.7151
 10
-2.79563
 20
64.6446
 10
-3.00133
 20
64.5687
 10
-3.20497
 20
64.4875
 10
-3.40642
 20
64.4009
 10
-3.60553
 20
64.3092
 10
-3.80217
 20
64.2122
 10
-3.9962
 20
64.1101
 10
-4.1875
 20
64.003
 10
-4.37593
 20
63.8909
 10
-4.56135
 20
63.7739
 10
-4.74365
 20
63.6521
 10
-4.9227
 20
63.5255
 10
-5.09838
 20
63.3943
 10
-5.27056
 20
63.2586
 10
-5.43913
 20
63.1184
 10
-5.60397
 20
62.9738
 10
-5.76497
 20
62.825
 10
-5.92202
 20
62.672
 10
-6.07501
 20
62.515
 10
-6.22384
 20
62.354
 10
-6.3684
 20
62.1891
 10
-6.5086
 20
62.0206
 10
-6.64433
 20
61.8484
 10
-6.77552
 20
61.6727
 10
-6.90206
 20
61.4937
 10
-7.02387
 20
61.3114
 10
-7.14086
 20
61.1259
 10
-7.25296
 20
60.9375
 10
-7.36009
 20
60.7462
 10
-7.46218
 20
60.5522
 10
-7.55915
 20
60.3555
 10
-7.65094
 20
60.1564
 10
-7.73749
 20
59.955
 10
-7.81874
 20
59.7513
 10
-7.89462
 20
59.5456
 10
-7.9651
 20
59.338
 10
-8.03012
 20
59.1286
 10
-8.08963
 20
58.9176
 10
-8.1436
 20
58.7051
 10
-8.14861
 20
58.6829
 10
-9.26874
 20
58.5205
 10
-10.7975
 20
58.2579
 10
-12.3188
 20
57.9552
 10
-13.8316
 20
57.6129
 10
-15.335
 20
57.2311
 10
-16.8279
 20
56.8101
 10
-18.3093
 20
56.3501
 10
-19.7781
 20
55.8515
 10
-21.2333
 20
55.3146
 10
-22.674
 20
54.7399
 10
-24.0991
 20
54.1276
 10
-25.5078
 20
53.4782
 10
-26.8989
 20
52.7921
 10
-28.2717
 20
52.0699
 10
-29.625
 20
51.312
 10
-30.958
 20
50.5189
 10
-32.2699
 20
49.6912
 10
-33.5596
 20
48.8295
 10
-34.8263
 20
47.9343
 10
-36.0691
 20
47.0062
 10
-37.2872
 20
46.0459
 10
-38.4798
 20
45.0541
 10
-39.646
 20
44.0313
 10
-40.785
 20
42.9784
 10
-41.8961
 20
41.8961
 10
-42.9784
 20
40.785
 10
-44.0313
 20
39.646
 10
-45.0541
 20
38.4798
 10
-46.0459
 20
37.2872
 10
-47.0062
 20
36.0691
 10
-47.9343
 20
34.8263
 10
-48.8295
 20
33.5596
 10
-49.6912
 20
32.2699
 10
-50.5189
 20
30.958
 10
-51.312
 20
29.625
 10
-52.0699
 20
28.2717
 10
-52.7921
 20
26.8989
 10
-53.4782
 20
25.5078
 10
-54.1276
 20
24.0991
 10
-54.7399
 20
22.674
 10
-55.3146
 20
21.2333
 10
-55.8515
 20
19.7781
 10
-56.3501
 20
18.3093
 10
-56.8101
 20
16.8279
 10
-57.2311
 20
15.335
 10
-57.6129
 20
13.8316
 10
-57.9552
 20
12.3188
 10
-58.2579
 20
10.7975
 10
-58.5205
 20
9.26874
 10
-58.6829
 20
8.14861
 10
-58.7051
 20
8.1436
 10
-58.9176
 20
8.08963
 10
-59.1286
 20
8.03012
 10
-59.338
 20
7.9651
 10
-59.5456
 20
7.89462
 10
-59.7513
 20
7.81874
 10
-59.955
 20
7.73749
 10
-60.1564
 20
7.65094
 10
-60.3555
 20
7.55915
 10
-60.5522
 20
7.46218
 10
-60.7462
 20
7.36009
 10
-60.9375
 20
7.25296
 10
-61.1259
 20
7.14086
 10
-61.3114
 20
7.02387
 10
-61.4937
 20
6.90206
 10
-61.6727
 20
6.77552
 10
-61.8484
 20
6.64433
 10
-62.0206
 20
6.5086
 10
-62.1891
 20
6.3684
 10
-62.354
 20
6.22384
 10
-62.515
 20
6.07501
 10
-62.672
 20
5.92202
 10
-62.825
 20
5.76497
 10
-62.9738
 20
5.60397
 10
-63.1184
 20
5.43913
 10
-63.2586
 20
5.27056
 10
-63.3943
 20
5.09838
 10
-63.5255
 20
4.9227
 10
-63.6521
 20
4.74365
 10
-63.7739
 20
4.56135
 10
-63.8909
 20
4.37593
 10
-64.003
 20
4.1875
 10
-64.1101
 20
3.9962
 10
-64.2122
 20
3.80217
 10
-64.3092
 20
3.60553
 10
-64.4009
 20
3.40642
 10
-64.4875
 20
3.20497
 10
-64.5687
 20
3.00133
 10
-64.6446
 20
2.79563
 10
-64.7151
 20
2.58802
 10
-64.7801
 20
2.37863
 10
-64.8396
 20
2.16761
 10
-64.8936
 20
1.9551
 10
-64.942
 20
1.74126
 10
-64.9848
 20
1.52622
 10
-65.0219
 20
1.31014
 10
-65.0534
 20
1.09316
 10
-65.0791
 20
0.875426
 10
-65.0992
 20
0.657095
 10
-65.1135
 20
0.438314
 10
-65.1221
 20
0.219232
 10
-65.125
 20
0
 10
-65.1221
 20
-0.219232
 10
-65.1135
 20
-0.438314
 10
-65.0992
 20
-0.657095
 10
-65.0791
 20
-0.875426
 10
-65.0534
 20
-1.09316
 10
-65.0219
 20
-1.31014
 10
-64.9848
 20
-1.52622
 10
-64.942
 20
-1.74126
 10
-64.8936
 20
-1.9551
 10
-64.8396
 20
-2.16761
 10
-64.7801
 20
-2.37863
 10
-64.7151
 20
-2.58802
 10
-64.6446
 20
-2.79563
 10
-64.5687
 20
-3.00133
 10
-64.4875
 20
-3.20497
 10
-64.4009
 20
-3.40642
 10
-64.3092
 20
-3.60553
 10
-64.2122
 20
-3.80217
 10
-64.1101
 20
-3.9962
 10
-64.003
 20
-4.1875
 10
-63.8909
 20
-4.37593
 10
-63.7739
 20
-4.56135
 10
-63.6521
 20
-4.74365
 10
-63.5255
 20
-4.9227
 10
-63.3943
 20
-5.09838
 10
-63.2586
 20
-5.27056
 10
-63.1184
 20
-5.43913
 10
-62.9738
 20
-5.60397
 10
-62.825
 20
-5.76497
 10
-62.672
 20
-5.92202
 10
-62.515
 20
-6.07501
 10
-62.354
 20
-6.22384
 10
-62.1891
 20
-6.3684
 10
-62.0206
 20
-6.5086
 10
-61.8484
 20
-6.64433
 10
-61.6727
 20
-6.77552
 10
-61.4937
 20
-6.90206
 10
-61.3114
 20
-7.02387
 10
-61.1259
 20
-7.14086
 10
-60.9375
 20
-7.25296
 10
-60.7462
 20
-7.36009
 10
-60.5522
 20
-7.46218
 10
-60.3555
 20
-7.55915
 10
-60.1564
 20
-7.65094
 10
-59.955
 20
-7.73749
 10
-59.7513
 20
-7.81874
 10
-59.5456
 20
-7.89462
 10
-59.338
 20
-7.9651
 10
-59.1286
 20
-8.03012
 10
-58.9176
 20
-8.08963
 10
-58.7051
 20
-8.1436
 10
-58.6829
 20
-8.14861
 10
-58.5205
 20
-9.26874
 10
-58.2579
 20
-10.7975
 10
-57.9552
 20
-12.3188
 10
-57.6129
 20
-13.8316
 10
-57.2311
 20
-15.335
 10
-56.8101
 20
-16.8279
 10
-56.3501
 20
-18.3093
 10
-55.8515
 20
-19.7781
 10
-55.3146
 20
-21.2333
 10
-54.7399
 20
-22.674
 10
-54.1276
 20
-24.0991
 10
-53.4782
 20
-25.5078
 10
-52.7921
 20
-26.8989
 10
-52.0699
 20
-28.2717
 10
-51.312
 20
-29.625
 10
-50.5189
 20
-30.958
 10
-49.6912
 20
-32.2699
 10
-48.8295
 20
-33.5596
 10
-47.9343
 20
-34.8263
 10
-47.0062
 20
-36.0691
 10
-46.0459
 20
-37.2872
 10
-45.0541
 20
-38.4798
 10
-44.0313
 20
-39.646
 10
-42.9784
 20
-40.785
 10
-41.8961
 20
-41.8961
 10
-40.785
 20
-42.9784
 10
-39.646
 20
-44.0313
 10
-38.4798
 20
-45.0541
 10
-37.2872
 20
-46.0459
 10
-36.0691
 20
-47.0062
 10
-34.8263
 20
-47.9343
 10
-33.5596
 20
-48.8295
 10
-32.2699
 20
-49.6912
 10
-30.958
 20
-50.5189
 10
-29.625
 20
-51.312
 10
-28.2717
 20
-52.0699
 10
-26.8989
 20
-52.7921
 10
-25.5078
 20
-53.4782
 10
-24.0991
 20
-54.1276
 10
-22.674
 20
-54.7399
 10
-21.2333
 20
-55.3146
 10
-19.7781
 20
-55.8515
 10
-18.3093
 20
-56.3501
 10
-16.8279
 20
-56.8101
 10
-15.335
 20
-57.2311
 10
-13.8316
 20
-57.6129
 10
-12.3188
 20
-57.9552
 10
-10.7975
 20
-58.2579
 10
-9.26874
 20
-58.5205
 10
-8.14861
 20
-58.6829
 10
-8.1436
 20
-58.7051
 10
-8.08963
 20
-58.9176
 10
-8.03012
 20
-59.1286
 10
-7.9651
 20
-59.338
 10
-7.89462
 20
-59.5456
 10
-7.81874
 20
-59.7513
 10
-7.73749
 20
-59.955
 10
-7.65094
 20
-60.1564
 10
-7.55915
 20
-60.3555
 10
-7.46218
 20
-60.5522
 10
-7.36009
 20
-60.7462
 10
-7.25296
 20
-60.9375
 10
-7.14086
 20
-61.1259
 10
-7.02387
 20
-61.3114
 10
-6.90206
 20
-61.4937
 10
-6.77552
 20
-61.6727
 10
-6.64433
 20
-61.8484
 10
-6.5086
 20
-62.0206
 10
-6.3684
 20
-62.1891
 10
-6.22384
 20
-62.354
 10
-6.07501
 20
-62.515
 10
-5.92202
 20
-62.672
 10
-5.76497
 20
-62.825
 10
-5.60397
 20
-62.9738
 10
-5.43913
 20
-63.1184
 10
-5.27056
 20
-63.2586
 10
-5.09838
 20
-63.3943
 10
-4.9227
 20
-63.5255
 10
-4.74365
 20
-63.6521
 10
-4.56135
 20
-63.7739
 10
-4.37593
 20
-63.8909
 10
-4.1875
 20
-64.003
 10
-3.9962
 20
-64.1101
 10
-3.80217
 20
-64.2122
 10
-3.60553
 20
-64.3092
 10
-3.40642
 20
-64.4009
 10
-3.20497
 20
-64.4875
 10
-3.00133
 20
-64.5687
 10
-2.79563
 20
-64.6446
 10
-2.58802
 20
-64.7151
 10
-2.37863
 20
-64.7801
 10
-2.16761
 20
-64.8396
 10
-1.9551
 20
-64.8936
 10
-1.74126
 20
-64.942
 10
-1.52622
 20
-64.9848
 10
-1.31014
 20
-65.0219
 10
-1.09316
 20
-65.0534
 10
-0.875426
 20
-65.0791
 10
-0.657095
 20
-65.0992
 10
-0.438314
 20
-65.1135
 10
-0.219232
 20
-65.1221
 10
0
 20
-65.125
  0
LWPOLYLINE
100
AcDbEntity
  8
0
100
AcDbPolyline
 90
62
 70
1
 10
1.55098
 20
59.2297
 10
0
 20
59.25
 10
-1.55098
 20
59.2297
 10
-2.32182
 20
59.1994
 10
-2.25832
 20
59.2581
 10
-2.19189
 20
59.3164
 10
-2.12396
 20
59.3729
 10
-2.05457
 20
59.4276
 10
-1.98378
 20
59.4804
 10
-1.91162
 20
59.5314
 10
-1.83816
 20
59.5805
 10
-1.76343
 20
59.6277
 10
-1.6875
 20
59.6728
 10
-1.61041
 20
59.716
 10
-1.53222
 20
59.7571
 10
-1.45297
 20
59.7962
 10
-1.37274
 20
59.8332
 10
-1.29156
 20
59.8681
 10
-1.20949
 20
59.9008
 10
-1.1266
 20
59.9314
 10
-1.04293
 20
59.9598
 10
-0.958552
 20
59.986
 10
-0.873514
 20
60.01
 10
-0.787878
 20
60.0317
 10
-0.701702
 20
60.0512
 10
-0.615045
 20
60.0685
 10
-0.527966
 20
60.0834
 10
-0.440526
 20
60.0961
 10
-0.352784
 20
60.1065
 10
-0.264799
 20
60.1146
 10
-0.176634
 20
60.1204
 10
-0.0883472
 20
60.1238
 10
0
 20
60.125
 10
0.0883472
 20
60.1238
 10
0.176634
 20
60.1204
 10
0.264799
 20
60.1146
 10
0.352784
 20
60.1065
 10
0.440526
 20
60.0961
 10
0.527966
 20
60.0834
 10
0.615045
 20
60.0685
 10
0.701702
 20
60.0512
 10
0.787878
 20
60.0317
 10
0.873514
 20
60.01
 10
0.958552
 20
59.986
 10
1.04293
 20
59.9598
 10
1.1266
 20
59.9314
 10
1.20949
 20
59.9008
 10
1.29156
 20
59.8681
 10
1.37274
 20
59.8332
 10
1.45297
 20
59.7962
 10
1.53222
 20
59.7571
 10
1.61041
 20
59.716
 10
1.6875
 20
59.6728
 10
1.76343
 20
59.6277
 10
1.83816
 20
59.5805
 10
1.91162
 20
59.5314
 10
1.98378
 20
59.4804
 10
2.05457
 20
59.4276
 10
2.12396
 20
59.3729
 10
2.19189
 20
59.3164
 10
2.25832
 20
59.2581
 10
2.32182
 20
59.1994
  0
LWPOLYLINE
100
AcDbEntity
  8
0
100
AcDbPolyline
 90
240
 70
1
 10
-1.4201
 20
-54.2314
 10
-2.83923
 20
-54.1757
 10
-4.25641
 20
-54.0828
 10
-5.67067
 20
-53.9528
 10
-7.08105
 20
-53.7859
 10
-8.48657
 20
-53.5821
 10
-9.88628
 20
-53.3416
 10
-11.2792
 20
-53.0645
 10
-12.6644
 20
-52.7511
 10
-14.0409
 20
-52.4015
 10
-15.4078
 20
-52.016
 10
-16.7642
 20
-51.5948
 10
-18.109
 20
-51.1383
 10
-19.4415
 20
-50.6467
 10
-20.7606
 20
-50.1205
 10
-22.0655
 20
-49.5598
 10
-23.3552
 20
-48.9653
 10
-24.629
 20
-48.3371
 10
-25.8859
 20
-47.6758
 10
-27.125
 20
-46.9819
 10
-28.3455
 20
-46.2557
 10
-29.5467
 20
-45.4979
 10
-30.7275
 20
-44.7088
 10
-31.8873
 20
-43.8892
 10
-33.0253
 20
-43.0394
 10
-34.1406
 20
-42.1602
 10
-35.2326
 20
-41.252
 10
-36.3003
 20
-40.3156
 10
-37.3432
 20
-39.3516
 10
-38.3605
 20
-38.3605
 10
-39.3516
 20
-37.3432
 10
-40.3156
 20
-36.3003
 10
-41.252
 20
-35.2326
 10
-42.1602
 20
-34.1406
 10
-43.0394
 20
-33.0253
 10
-43.8892
 20
-31.8873
 10
-44.7088
 20
-30.7275
 10
-45.4979
 20
-29.5467
 10
-46.2557
 20
-28.3455
 10
-46.9819
 20
-27.125
 10
-47.6758
 20
-25.8859
 10
-48.3371
 20
-24.629
 10
-48.9653
 20
-23.3552
 10
-49.5598
 20
-22.0655
 10
-50.1205
 20
-20.7606
 10
-50.6467
 20
-19.4415
 10
-51.1383
 20
-18.109
 10
-51.5948
 20
-16.7642
 10
-52.016
 20
-15.4078
 10
-52.4015
 20
-14.0409
 10
-52.7511
 20
-12.6644
 10
-53.0645
 20
-11.2792
 10
-53.3416
 20
-9.88628
 10
-53.5821
 20
-8.48657
 10
-53.7859
 20
-7.08105
 10
-53.9528
 20
-5.67067
 10
-54.0828
 20
-4.25641
 10
-54.1757
 20
-2.83923
 10
-54.2314
 20
-1.4201
 10
-54.25
 20
0
 10
-54.2314
 20
1.4201
 10
-54.1757
 20
2.83923
 10
-54.0828
 20
4.25641
 10
-53.9528
 20
5.67067
 10
-53.7859
 20
7.08105
 10
-53.5821
 20
8.48657
 10
-53.3416
 20
9.88628
 10
-53.0645
 20
11.2792
 10
-52.7511
 20
12.6644
 10
-52.4015
 20
14.0409
 10
-52.016
 20
15.4078
 10
-51.5948
 20
16.7642
 10
-51.1383
 20
18.109
 10
-50.6467
 20
19.4415
 10
-50.1205
 20
20.7606
 10
-49.5598
 20
22.0655
 10
-48.9653
 20
23.3552
 10
-48.3371
 20
24.629
 10
-47.6758
 20
25.8859
 10
-46.9819
 20
27.125
 10
-46.2557
 20
28.3455
 10
-45.4979
 20
29.5467
 10
-44.7088
 20
30.7275
 10
-43.8892
 20
31.8873
 10
-43.0394
 20
33.0253
 10
-42.1602
 20
34.1406
 10
-41.252
 20
35.2326
 10
-40.3156
 20
36.3003
 10
-39.3516
 20
37.3432
 10
-38.3605
 20
38.3605
 10
-37.3432
 20
39.3516
 10
-36.3003
 20
40.3156
 10
-35.2326
 20
41.252
 10
-34.1406
 20
42.1602
 10
-33.0253
 20
43.0394
 10
-31.8873
 20
43.8892
 10
-30.7275
 20
44.7088
 10
-29.5467
 20
45.4979
 10
-28.3455
 20
46.2557
 10
-27.125
 20
46.9819
 10
-25.8859
 20
47.6758
 10
-24.629
 20
48.3371
 10
-23.3552
 20
48.9653
 10
-22.0655
 20
49.5598
 10
-20.7606
 20
50.1205
 10
-19.4415
 20
50.6467
 10
-18.109
 20
51.1383
 10
-16.7642
 20
51.5948
 10
-15.4078
 20
52.016
 10
-14.0409
 20
52.4015
 10
-12.6644
 20
52.7511
 10
-11.2792
 20
53.0645
 10
-9.88628
 20
53.3416
 10
-8.48657
 20
53.5821
 10
-7.08105
 20
53.7859
 10
-5.67067
 20
53.9528
 10
-4.25641
 20
54.0828
 10
-2.83923
 20
54.1757
 10
-1.4201
 20
54.2314
 10
0
 20
54.25
 10
1.4201
 20
54.2314
 10
2.83923
 20
54.1757
 10
4.25641
 20
54.0828
 10
5.67067
 20
53.9528
 10
7.08105
 20
53.7859
 10
8.48657
 20
53.5821
 10
9.88628
 20
53.3416
 10
11.2792
 20
53.0645
 10
12.6644
 20
52.7511
 10
14.0409
 20
52.4015
 10
15.4078
 20
52.016
 10
16.7642
 20
51.5948
 10
18.109
 20
51.1383
 10
19.4415
 20
50.6467
 10
20.7606
 20
50.1205
 10
22.0655
 20
49.5598
 10
23.3552
 20
48.9653
 10
24.629
 20
48.3371
 10
25.8859
 20
47.6758
 10
27.125
 20
46.9819
 10
28.3455
 20
46.2557
 10
29.5467
 20
45.4979
 10
30.7275
 20
44.7088
 10
31.8873
 20
43.8892
 10
33.0253
 20
43.0394
 10
34.1406
 20
42.1602
 10
35.2326
 20
41.252
 10
36.3003
 20
40.3156
 10
37.3432
 20
39.3516
 10
38.3605
 20
38.3605
 10
39.3516
 20
37.3432
 10
40.3156
 20
36.3003
 10
41.252
 20
35.2326
 10
42.1602
 20
34.1406
 10
43.0394
 20
33.0253
 10
43.8892
 20
31.8873
 10
44.7088
 20
30.7275
 10
45.4979
 20
29.5467
 10
46.2557
 20
28.3455
 10
46.9819
 20
27.125
 10
47.6758
 20
25.8859
 10
48.3371
 20
24.629
 10
48.9653
 20
23.3552
 10
49.5598
 20
22.0655
 10
50.1205
 20
20.7606
 10
50.6467
 20
19.4415
 10
51.1383
 20
18.109
 10
51.5948
 20
16.7642
 10
52.016
 20
15.4078
 10
52.4015
 20
14.0409
 10
52.7511
 20
12.6644
 10
53.0645
 20
11.2792
 10
53.3416
 20
9.88628
 10
53.5821
 20
8.48657
 10
53.7859
 20
7.08105
 10
53.9528
 20
5.67067
 10
54.0828
 20
4.25641
 10
54.1757
 20
2.83923
 10
54.2314
 20
1.4201
 10
54.25
 20
0
 10
54.2314
 20
-1.4201
 10
54.1757
 20
-2.83923
 10
54.0828
 20
-4.25641
 10
53.9528
 20
-5.67067
 10
53.7859
 20
-7.08105
 10
53.5821
 20
-8.48657
 10
53.3416
 20
-9.88628
 10
53.0645
 20
-11.2792
 10
52.7511
 20
-12.6644
 10
52.4015
 20
-14.0409
 10
52.016
 20
-15.4078
 10
51.5948
 20
-16.7642
 10
51.1383
 20
-18.109
 10
50.6467
 20
-19.4415
 10
50.1205
 20
-20.7606
 10
49.5598
 20
-22.0655
 10
48.9653
 20
-23.3552
 10
48.3371
 20
-24.629
 10
47.6758
 20
-25.8859
 10
46.9819
 20
-27.125
 10
46.2557
 20
-28.3455
 10
45.4979
 20
-29.5467
 10
44.7088
 20
-30.7275
 10
43.8892
 20
-31.8873
 10
43.0394
 20
-33.0253
 10
42.1602
 20
-34.1406
 10
41.252
 20
-35.2326
 10
40.3156
 20
-36.3003
 10
39.3516
 20
-37.3432
 10
38.3605
 20
-38.3605
 10
37.3432
 20
-39.3516
 10
36.3003
 20
-40.3156
 10
35.2326
 20
-41.252
 10
34.1406
 20
-42.1602
 10
33.0253
 20
-43.0394
 10
31.8873
 20
-43.8892
 10
30.7275
 20
-44.7088
 10
29.5467
 20
-45.4979
 10
28.3455
 20
-46.2557
 10
27.125
 20
-46.9819
 10
25.8859
 20
-47.6758
 10
24.629
 20
-48.3371
 10
23.3552
 20
-48.9653
 10
22.0655
 20
-49.5598
 10
20.7606
 20
-50.1205
 10
19.4415
 20
-50.6467
 10
18.109
 20
-51.1383
 10
16.7642
 20
-51.5948
 10
15.4078
 20
-52.016
 10
14.0409
 20
-52.4015
 10
12.6644
 20
-52.7511
 10
11.2792
 20
-53.0645
 10
9.88628
 20
-53.3416
 10
8.48657
 20
-53.5821
 10
7.08105
 20
-53.7859
 10
5.67067
 20
-53.9528
 10
4.25641
 20
-54.0828
 10
2.83923
 20
-54.1757
 10
1.4201
 20
-54.2314
 10
0
 20
-54.25
  0
LWPOLYLINE
100
AcDbEntity
  8
0
100
AcDbPolyline
 90
62
 70
1
 10
-59.2581
 20
-2.25832
 10
-59.3164
 20
-2.19189
 10
-59.3729
 20
-2.12396
 10
-59.4276
 20
-2.05457
 10
-59.4804
 20
-1.98378
 10
-59.5314
 20
-1.91162
 10
-59.5805
 20
-1.83816
 10
-59.6277
 20
-1.76343
 10
-59.6728
 20
-1.6875
 10
-59.716
 20
-1.61041
 10
-59.7571
 20
-1.53222
 10
-59.7962
 20
-1.45297
 10
-59.8332
 20
-1.37274
 10
-59.8681
 20
-1.29156
 10
-59.9008
 20
-1.20949
 10
-59.9314
 20
-1.1266
 10
-59.9598
 20
-1.04293
 10
-59.986
 20
-0.958552
 10
-60.01
 20
-0.873514
 10
-60.0317
 20
-0.787878
 10
-60.0512
 20
-0.701702
 10
-60.0685
 20
-0.615045
 10
-60.0834
 20
-0.527966
 10
-60.0961
 20
-0.440526
 10
-60.1065
 20
-0.352784
 10
-60.1146
 20
-0.264799
 10
-60.1204
 20
-0.176634
 10
-60.1238
 20
-0.0883472
 10
-60.125
 20
0
 10
-60.1238
 20
0.0883472
 10
-60.1204
 20
0.176634
 10
-60.1146
 20
0.264799
 10
-60.1065
 20
0.352784
 10
-60.0961
 20
0.440526
 10
-60.0834
 20
0.527966
 10
-60.0685
 20
0.615045
 10
-60.0512
 20
0.701702
 10
-60.0317
 20
0.787878
 10
-60.01
 20
0.873514
 10
-59.986
 20
0.958552
 10
-59.9598
 20
1.04293
 10
-59.9314
 20
1.1266
 10
-59.9008
 20
1.20949
 10
-59.8681
 20
1.29156
 10
-59.8332
 20
1.37274
 10
-59.7962
 20
1.45297
 10
-59.7571
 20
1.53222
 10
-59.716
 20
1.61041
 10
-59.6728
 20
1.6875
 10
-59.6277
 20
1.76343
 10
-59.5805
 20
1.83816
 10
-59.5314
 20
1.91162
 10
-59.4804
 20
1.98378
 10
-59.4276
 20
2.05457
 10
-59.3729
 20
2.12396
 10
-59.3164
 20
2.19189
 10
-59.2581
 20
2.25832
 10
-59.1994
 20
2.32182
 10
-59.2297
 20
1.55098
 10
-59.25
 20
0
 10
-59.2297
 20
-1.55098
 10
-59.1994
 20
-2.32182
  0
LWPOLYLINE
100
AcDbEntity
  8
0
100
AcDbPolyline
 90
62
 70
1
 10
59.2297
 20
-1.55098
 10
59.25
 20
0
 10
59.2297
 20
1.55098
 10
59.1994
 20
2.32182
 10
59.2581
 20
2.25832
 10
59.3164
 20
2.19189
 10
59.3729
 20
2.12396
 10
59.4276
 20
2.05457
 10
59.4804
 20
1.98378
 10
59.5314
 20
1.91162
 10
59.5805
 20
1.83816
 10
59.6277
 20
1.76343
 10
59.6728
 20
1.6875
 10
59.716
 20
1.61041
 10
59.7571
 20
1.53222
 10
59.7962
 20
1.45297
 10
59.8332
 20
1.37274
 10
59.8681
 20
1.29156
 10
59.9008
 20
1.20949
 10
59.9314
 20
1.1266
 10
59.9598
 20
1.04293
 10
59.986
 20
0.958552
 10
60.01
 20
0.873514
 10
60.0317
 20
0.787878
 10
60.0512
 20
0.701702
 10
60.0685
 20
0.615045
 10
60.0834
 20
0.527966
 10
60.0961
 20
0.440526
 10
60.1065
 20
0.352784
 10
60.1146
 20
0.264799
 10
60.1204
 20
0.176634
 10
60.1238
 20
0.0883472
 10
60.125
 20
0
 10
60.1238
 20
-0.0883472
 10
60.1204
 20
-0.176634
 10
60.1146
 20
-0.264799
 10
60.1065
 20
-0.352784
 10
60.0961
 20
-0.440526
 10
60.0834
 20
-0.527966
 10
60.0685
 20
-0.615045
 10
60.0512
 20
-0.701702
 10
60.0317
 20
-0.787878
 10
60.01
 20
-0.873514
 10
59.986
 20
-0.958552
 10
59.9598
 20
-1.04293
 10
59.9314
 20
-1.1266
 10
59.9008
 20
-1.20949
 10
59.8681
 20
-1.29156
 10
59.8332
 20
-1.37274
 10
59.7962
 20
-1.45297
 10
59.7571
 20
-1.53222
 10
59.716
 20
-1.61041
 10
59.6728
 20
-1.6875
 10
59.6277
 20
-1.76343
 10
59.5805
 20
-1.83816
 10
59.5314
 20
-1.91162
 10
59.4804
 20
-1.98378
 10
59.4276
 20
-2.05457
 10
59.3729
 20
-2.12396
 10
59.3164
 20
-2.19189
 10
59.2581
 20
-2.25832
 10
59.1994
 20
-2.32182
  0
LWPOLYLINE
100
AcDbEntity
  8
0
100
AcDbPolyline
 90
62
 70
1
 10
-0.0883472
 20
-60.1238
 10
-0.176634
 20
-60.1204
 10
-0.264799
 20
-60.1146
 10
-0.352784
 20
-60.1065
 10
-0.440526
 20
-60.0961
 10
-0.527966
 20
-60.0834
 10
-0.615045
 20
-60.0685
 10
-0.701702
 20
-60.0512
 10
-0.787878
 20
-60.0317
 10
-0.873514
 20
-60.01
 10
-0.958552
 20
-59.986
 10
-1.04293
 20
-59.9598
 10
-1.1266
 20
-59.9314
 10
-1.20949
 20
-59.9008
 10
-1.29156
 20
-59.8681
 10
-1.37274
 20
-59.8332
 10
-1.45297
 20
-59.7962
 10
-1.53222
 20
-59.7571
 10
-1.61041
 20
-59.716
 10
-1.6875
 20
-59.6728
 10
-1.76343
 20
-59.6277
 10
-1.83816
 20
-59.5805
 10
-1.91162
 20
-59.5314
 10
-1.98378
 20
-59.4804
 10
-2.05457
 20
-59.4276
 10
-2.12396
 20
-59.3729
 10
-2.19189
 20
-59.3164
 10
-2.25832
 20
-59.2581
 10
-2.32182
 20
-59.1994
 10
-1.55098
 20
-59.2297
 10
0
 20
-59.25
 10
1.55098
 20
-59.2297
 10
2.32182
 20
-59.1994
 10
2.25832
 20
-59.2581
 10
2.19189
 20
-59.3164
 10
2.12396
 20
-59.3729
 10
2.05457
 20
-59.4276
 10
1.98378
 20
-59.4804
 10
1.91162
 20
-59.5314
 10
1.83816
 20
-59.5805
 10
1.76343
 20
-59.6277
 10
1.6875
 20
-59.6728
 10
1.61041
 20
-59.716
 10
1.53222
 20
-59.7571
 10
1.45297
 20
-59.7962
 10
1.37274
 20
-59.8332
 10
1.29156
 20
-59.8681
 10
1.20949
 20
-59.9008
 10
1.1266
 20
-59.9314
 10
1.04293
 20
-59.9598
 10
0.958552
 20
-59.986
 10
0.873514
 20
-60.01
 10
0.787878
 20
-60.0317
 10
0.701702
 20
-60.0512
 10
0.615045
 20
-60.0685
 10
0.527966
 20
-60.0834
 10
0.440526
 20
-60.0961
 10
0.352784
 20
-60.1065
 10
0.264799
 20
-60.1146
 10
0.176634
 20
-60.1204
 10
0.0883472
 20
-60.1238
 10
0
 20
-60.125
  0
ENDSEC
  0
EOF
