999
DXF from OpenSCAD
  0
SECTION
  2
HEADER
  9
$ACADVER
  1
AC1006
  9
$INSBASE
 10
0.0
 20
0.0
 30
0.0
  9
$EXTMIN
 10
-66.5
 20
-66.5
  9
$EXTMAX
 10
66.5
 20
66.5
  9
$LINMIN
 10
-66.5
 20
-66.5
  9
$LINMAX
 10
66.5
 20
66.5
  0
ENDSEC
  0
SECTION
  2
TABLES
  0
TABLE
  2
LTYPE
 70
1
  0
LTYPE
  2
CONTINUOUS
 70
64
  3
Solid line
 72
65
 73
0
 40
0.000000
  0
ENDTAB
  0
TABLE
  2
LAYER
 70
6
  0
LAYER
  2
0
 70
64
 62
7
  6
CONTINUOUS
  0
ENDTAB
  0
TABLE
  2
STYLE
 70
0
  0
ENDTAB
  0
ENDSEC
  0
SECTION
  2
BLOCKS
  0
ENDSEC
  0
SECTION
  2
ENTITIES
  0
LWPOLYLINE
100
AcDbEntity
  8
0
100
AcDbPolyline
 90
592
 70
1
 10
0.255225
 20
-66.4967
 10
0.510276
 20
-66.4866
 10
0.764976
 20
-66.4699
 10
1.01915
 20
-66.4466
 10
1.27263
 20
-66.4166
 10
1.52524
 20
-66.38
 10
1.7768
 20
-66.3367
 10
2.02714
 20
-66.2869
 10
2.27609
 20
-66.2306
 10
2.52349
 20
-66.1678
 10
2.76915
 20
-66.0985
 10
3.01292
 20
-66.0228
 10
3.25462
 20
-65.9408
 10
3.49409
 20
-65.8524
 10
3.73116
 20
-65.7578
 10
3.96568
 20
-65.6571
 10
4.19748
 20
-65.5502
 10
4.42641
 20
-65.4373
 10
4.6523
 20
-65.3185
 10
4.875
 20
-65.1937
 10
5.09436
 20
-65.0632
 10
5.31023
 20
-64.927
 10
5.52246
 20
-64.7852
 10
5.73091
 20
-64.6379
 10
5.93542
 20
-64.4852
 10
6.13587
 20
-64.3272
 10
6.33212
 20
-64.164
 10
6.52402
 20
-63.9957
 10
6.71146
 20
-63.8224
 10
6.89429
 20
-63.6443
 10
7.0724
 20
-63.4615
 10
7.24566
 20
-63.274
 10
7.41396
 20
-63.0821
 10
7.57717
 20
-62.8859
 10
7.7352
 20
-62.6854
 10
7.88792
 20
-62.4809
 10
8.03523
 20
-62.2725
 10
8.17704
 20
-62.0602
 10
8.31324
 20
-61.8444
 10
8.44375
 20
-61.625
 10
8.56847
 20
-61.4023
 10
8.68731
 20
-61.1764
 10
8.80021
 20
-60.9475
 10
8.90707
 20
-60.7157
 10
9.00783
 20
-60.4812
 10
9.10241
 20
-60.2441
 10
9.19075
 20
-60.0046
 10
9.2728
 20
-59.7629
 10
9.34843
 20
-59.5194
 10
9.42518
 20
-59.5082
 10
10.9797
 20
-59.2411
 10
12.5267
 20
-58.9334
 10
14.0651
 20
-58.5853
 10
15.5938
 20
-58.197
 10
17.1119
 20
-57.7689
 10
18.6183
 20
-57.3012
 10
20.1119
 20
-56.7941
 10
21.5917
 20
-56.2482
 10
23.0567
 20
-55.6637
 10
24.5059
 20
-55.0411
 10
25.9383
 20
-54.3808
 10
27.3529
 20
-53.6831
 10
28.7488
 20
-52.9487
 10
30.125
 20
-52.178
 10
31.4805
 20
-51.3716
 10
32.8145
 20
-50.5299
 10
34.126
 20
-49.6536
 10
35.4141
 20
-48.7433
 10
36.6779
 20
-47.7995
 10
37.9166
 20
-46.823
 10
39.1292
 20
-45.8145
 10
40.3151
 20
-44.7745
 10
41.4734
 20
-43.7038
 10
42.6032
 20
-42.6032
 10
43.7038
 20
-41.4734
 10
44.7745
 20
-40.3151
 10
45.8145
 20
-39.1292
 10
46.823
 20
-37.9166
 10
47.7995
 20
-36.6779
 10
48.7433
 20
-35.4141
 10
49.6536
 20
-34.126
 10
50.5299
 20
-32.8145
 10
51.3716
 20
-31.4805
 10
52.178
 20
-30.125
 10
52.9487
 20
-28.7488
 10
53.6831
 20
-27.3529
 10
54.3808
 20
-25.9383
 10
55.0411
 20
-24.5059
 10
55.6637
 20
-23.0567
 10
56.2482
 20
-21.5917
 10
56.7941
 20
-20.1119
 10
57.3012
 20
-18.6183
 10
57.7689
 20
-17.1119
 10
58.197
 20
-15.5938
 10
58.5853
 20
-14.0651
 10
58.9334
 20
-12.5267
 10
59.2411
 20
-10.9797
 10
59.5082
 20
-9.42518
 10
59.5194
 20
-9.34843
 10
59.7629
 20
-9.2728
 10
60.0046
 20
-9.19075
 10
60.2441
 20
-9.10241
 10
60.4812
 20
-9.00783
 10
60.7157
 20
-8.90707
 10
60.9475
 20
-8.80021
 10
61.1764
 20
-8.68731
 10
61.4023
 20
-8.56847
 10
61.625
 20
-8.44375
 10
61.8444
 20
-8.31324
 10
62.0602
 20
-8.17704
 10
62.2725
 20
-8.03523
 10
62.4809
 20
-7.88792
 10
62.6854
 20
-7.7352
 10
62.8859
 20
-7.57717
 10
63.0821
 20
-7.41396
 10
63.274
 20
-7.24566
 10
63.4615
 20
-7.0724
 10
63.6443
 20
-6.89429
 10
63.8224
 20
-6.71146
 10
63.9957
 20
-6.52402
 10
64.164
 20
-6.33212
 10
64.3272
 20
-6.13587
 10
64.4852
 20
-5.93542
 10
64.6379
 20
-5.73091
 10
64.7852
 20
-5.52246
 10
64.927
 20
-5.31023
 10
65.0632
 20
-5.09436
 10
65.1937
 20
-4.875
 10
65.3185
 20
-4.6523
 10
65.4373
 20
-4.42641
 10
65.5502
 20
-4.19748
 10
65.6571
 20
-3.96568
 10
65.7578
 20
-3.73116
 10
65.8524
 20
-3.49409
 10
65.9408
 20
-3.25462
 10
66.0228
 20
-3.01292
 10
66.0985
 20
-2.76915
 10
66.1678
 20
-2.52349
 10
66.2306
 20
-2.27609
 10
66.2869
 20
-2.02714
 10
66.3367
 20
-1.7768
 10
66.38
 20
-1.52524
 10
66.4166
 20
-1.27263
 10
66.4466
 20
-1.01915
 10
66.4699
 20
-0.764976
 10
66.4866
 20
-0.510276
 10
66.4967
 20
-0.255225
 10
66.5
 20
0
 10
66.4967
 20
0.255225
 10
66.4866
 20
0.510276
 10
66.4699
 20
0.764976
 10
66.4466
 20
1.01915
 10
66.4166
 20
1.27263
 10
66.38
 20
1.52524
 10
66.3367
 20
1.7768
 10
66.2869
 20
2.02714
 10
66.2306
 20
2.27609
 10
66.1678
 20
2.52349
 10
66.0985
 20
2.76915
 10
66.0228
 20
3.01292
 10
65.9408
 20
3.25462
 10
65.8524
 20
3.49409
 10
65.7578
 20
3.73116
 10
65.6571
 20
3.96568
 10
65.5502
 20
4.19748
 10
65.4373
 20
4.42641
 10
65.3185
 20
4.6523
 10
65.1937
 20
4.875
 10
65.0632
 20
5.09436
 10
64.927
 20
5.31023
 10
64.7852
 20
5.52246
 10
64.6379
 20
5.73091
 10
64.4852
 20
5.93542
 10
64.3272
 20
6.13587
 10
64.164
 20
6.33212
 10
63.9957
 20
6.52402
 10
63.8224
 20
6.71146
 10
63.6443
 20
6.89429
 10
63.4615
 20
7.0724
 10
63.274
 20
7.24566
 10
63.0821
 20
7.41396
 10
62.8859
 20
7.57717
 10
62.6854
 20
7.7352
 10
62.4809
 20
7.88792
 10
62.2725
 20
8.03523
 10
62.0602
 20
8.17704
 10
61.8444
 20
8.31324
 10
61.625
 20
8.44375
 10
61.4023
 20
8.56847
 10
61.1764
 20
8.68731
 10
60.9475
 20
8.80021
 10
60.7157
 20
8.90707
 10
60.4812
 20
9.00783
 10
60.2441
 20
9.10241
 10
60.0046
 20
9.19075
 10
59.7629
 20
9.2728
 10
59.5194
 20
9.34843
 10
59.5082
 20
9.42518
 10
59.2411
 20
10.9797
 10
58.9334
 20
12.5267
 10
58.5853
 20
14.0651
 10
58.197
 20
15.5938
 10
57.7689
 20
17.1119
 10
57.3012
 20
18.6183
 10
56.7941
 20
20.1119
 10
56.2482
 20
21.5917
 10
55.6637
 20
23.0567
 10
55.0411
 20
24.5059
 10
54.3808
 20
25.9383
 10
53.6831
 20
27.3529
 10
52.9487
 20
28.7488
 10
52.178
 20
30.125
 10
51.3716
 20
31.4805
 10
50.5299
 20
32.8145
 10
49.6536
 20
34.126
 10
48.7433
 20
35.4141
 10
47.7995
 20
36.6779
 10
46.823
 20
37.9166
 10
45.8145
 20
39.1292
 10
44.7745
 20
40.3151
 10
43.7038
 20
41.4734
 10
42.6032
 20
42.6032
 10
41.4734
 20
43.7038
 10
40.3151
 20
44.7745
 10
39.1292
 20
45.8145
 10
37.9166
 20
46.823
 10
36.6779
 20
47.7995
 10
35.4141
 20
48.7433
 10
34.126
 20
49.6536
 10
32.8145
 20
50.5299
 10
31.4805
 20
51.3716
 10
30.125
 20
52.178
 10
28.7488
 20
52.9487
 10
27.3529
 20
53.6831
 10
25.9383
 20
54.3808
 10
24.5059
 20
55.0411
 10
23.0567
 20
55.6637
 10
21.5917
 20
56.2482
 10
20.1119
 20
56.7941
 10
18.6183
 20
57.3012
 10
17.1119
 20
57.7689
 10
15.5938
 20
58.197
 10
14.0651
 20
58.5853
 10
12.5267
 20
58.9334
 10
10.9797
 20
59.2411
 10
9.42518
 20
59.5082
 10
9.34843
 20
59.5194
 10
9.2728
 20
59.7629
 10
9.19075
 20
60.0046
 10
9.10241
 20
60.2441
 10
9.00783
 20
60.4812
 10
8.90707
 20
60.7157
 10
8.80021
 20
60.9475
 10
8.68731
 20
61.1764
 10
8.56847
 20
61.4023
 10
8.44375
 20
61.625
 10
8.31324
 20
61.8444
 10
8.17704
 20
62.0602
 10
8.03523
 20
62.2725
 10
7.88792
 20
62.4809
 10
7.7352
 20
62.6854
 10
7.57717
 20
62.8859
 10
7.41396
 20
63.0821
 10
7.24566
 20
63.274
 10
7.0724
 20
63.4615
 10
6.89429
 20
63.6443
 10
6.71146
 20
63.8224
 10
6.52402
 20
63.9957
 10
6.33212
 20
64.164
 10
6.13587
 20
64.3272
 10
5.93542
 20
64.4852
 10
5.73091
 20
64.6379
 10
5.52246
 20
64.7852
 10
5.31023
 20
64.927
 10
5.09436
 20
65.0632
 10
4.875
 20
65.1937
 10
4.6523
 20
65.3185
 10
4.42641
 20
65.4373
 10
4.19748
 20
65.5502
 10
3.96568
 20
65.6571
 10
3.73116
 20
65.7578
 10
3.49409
 20
65.8524
 10
3.25462
 20
65.9408
 10
3.01292
 20
66.0228
 10
2.76915
 20
66.0985
 10
2.52349
 20
66.1678
 10
2.27609
 20
66.2306
 10
2.02714
 20
66.2869
 10
1.7768
 20
66.3367
 10
1.52524
 20
66.38
 10
1.27263
 20
66.4166
 10
1.01915
 20
66.4466
 10
0.764976
 20
66.4699
 10
0.510276
 20
66.4866
 10
0.255225
 20
66.4967
 10
0
 20
66.5
 10
-0.255225
 20
66.4967
 10
-0.510276
 20
66.4866
 10
-0.764976
 20
66.4699
 10
-1.01915
 20
66.4466
 10
-1.27263
 20
66.4166
 10
-1.52524
 20
66.38
 10
-1.7768
 20
66.3367
 10
-2.02714
 20
66.2869
 10
-2.27609
 20
66.2306
 10
-2.52349
 20
66.1678
 10
-2.76915
 20
66.0985
 10
-3.01292
 20
66.0228
 10
-3.25462
 20
65.9408
 10
-3.49409
 20
65.8524
 10
-3.73116
 20
65.7578
 10
-3.96568
 20
65.6571
 10
-4.19748
 20
65.5502
 10
-4.42641
 20
65.4373
 10
-4.6523
 20
65.3185
 10
-4.875
 20
65.1937
 10
-5.09436
 20
65.0632
 10
-5.31023
 20
64.927
 10
-5.52246
 20
64.7852
 10
-5.73091
 20
64.6379
 10
-5.93542
 20
64.4852
 10
-6.13587
 20
64.3272
 10
-6.33212
 20
64.164
 10
-6.52402
 20
63.9957
 10
-6.71146
 20
63.8224
 10
-6.89429
 20
63.6443
 10
-7.0724
 20
63.4615
 10
-7.24566
 20
63.274
 10
-7.41396
 20
63.0821
 10
-7.57717
 20
62.8859
 10
-7.7352
 20
62.6854
 10
-7.88792
 20
62.4809
 10
-8.03523
 20
62.2725
 10
-8.17704
 20
62.0602
 10
-8.31324
 20
61.8444
 10
-8.44375
 20
61.625
 10
-8.56847
 20
61.4023
 10
-8.68731
 20
61.1764
 10
-8.80021
 20
60.9475
 10
-8.90707
 20
60.7157
 10
-9.00783
 20
60.4812
 10
-9.10241
 20
60.2441
 10
-9.19075
 20
60.0046
 10
-9.2728
 20
59.7629
 10
-9.34843
 20
59.5194
 10
-9.42518
 20
59.5082
 10
-10.9797
 20
59.2411
 10
-12.5267
 20
58.9334
 10
-14.0651
 20
58.5853
 10
-15.5938
 20
58.197
 10
-17.1119
 20
57.7689
 10
-18.6183
 20
57.3012
 10
-20.1119
 20
56.7941
 10
-21.5917
 20
56.2482
 10
-23.0567
 20
55.6637
 10
-24.5059
 20
55.0411
 10
-25.9383
 20
54.3808
 10
-27.3529
 20
53.6831
 10
-28.7488
 20
52.9487
 10
-30.125
 20
52.178
 10
-31.4805
 20
51.3716
 10
-32.8145
 20
50.5299
 10
-34.126
 20
49.6536
 10
-35.4141
 20
48.7433
 10
-36.6779
 20
47.7995
 10
-37.9166
 20
46.823
 10
-39.1292
 20
45.8145
 10
-40.3151
 20
44.7745
 10
-41.4734
 20
43.7038
 10
-42.6032
 20
42.6032
 10
-43.7038
 20
41.4734
 10
-44.7745
 20
40.3151
 10
-45.8145
 20
39.1292
 10
-46.823
 20
37.9166
 10
-47.7995
 20
36.6779
 10
-48.7433
 20
35.4141
 10
-49.6536
 20
34.126
 10
-50.5299
 20
32.8145
 10
-51.3716
 20
31.4805
 10
-52.178
 20
30.125
 10
-52.9487
 20
28.7488
 10
-53.6831
 20
27.3529
 10
-54.3808
 20
25.9383
 10
-55.0411
 20
24.5059
 10
-55.6637
 20
23.0567
 10
-56.2482
 20
21.5917
 10
-56.7941
 20
20.1119
 10
-57.3012
 20
18.6183
 10
-57.7689
 20
17.1119
 10
-58.197
 20
15.5938
 10
-58.5853
 20
14.0651
 10
-58.9334
 20
12.5267
 10
-59.2411
 20
10.9797
 10
-59.5082
 20
9.42518
 10
-59.5194
 20
9.34843
 10
-59.7629
 20
9.2728
 10
-60.0046
 20
9.19075
 10
-60.2441
 20
9.10241
 10
-60.4812
 20
9.00783
 10
-60.7157
 20
8.90707
 10
-60.9475
 20
8.80021
 10
-61.1764
 20
8.68731
 10
-61.4023
 20
8.56847
 10
-61.625
 20
8.44375
 10
-61.8444
 20
8.31324
 10
-62.0602
 20
8.17704
 10
-62.2725
 20
8.03523
 10
-62.4809
 20
7.88792
 10
-62.6854
 20
7.7352
 10
-62.8859
 20
7.57717
 10
-63.0821
 20
7.41396
 10
-63.274
 20
7.24566
 10
-63.4615
 20
7.0724
 10
-63.6443
 20
6.89429
 10
-63.8224
 20
6.71146
 10
-63.9957
 20
6.52402
 10
-64.164
 20
6.33212
 10
-64.3272
 20
6.13587
 10
-64.4852
 20
5.93542
 10
-64.6379
 20
5.73091
 10
-64.7852
 20
5.52246
 10
-64.927
 20
5.31023
 10
-65.0632
 20
5.09436
 10
-65.1937
 20
4.875
 10
-65.3185
 20
4.6523
 10
-65.4373
 20
4.42641
 10
-65.5502
 20
4.19748
 10
-65.6571
 20
3.96568
 10
-65.7578
 20
3.73116
 10
-65.8524
 20
3.49409
 10
-65.9408
 20
3.25462
 10
-66.0228
 20
3.01292
 10
-66.0985
 20
2.76915
 10
-66.1678
 20
2.52349
 10
-66.2306
 20
2.27609
 10
-66.2869
 20
2.02714
 10
-66.3367
 20
1.7768
 10
-66.38
 20
1.52524
 10
-66.4166
 20
1.27263
 10
-66.4466
 20
1.01915
 10
-66.4699
 20
0.764976
 10
-66.4866
 20
0.510276
 10
-66.4967
 20
0.255225
 10
-66.5
 20
0
 10
-66.4967
 20
-0.255225
 10
-66.4866
 20
-0.510276
 10
-66.4699
 20
-0.764976
 10
-66.4466
 20
-1.01915
 10
-66.4166
 20
-1.27263
 10
-66.38
 20
-1.52524
 10
-66.3367
 20
-1.7768
 10
-66.2869
 20
-2.02714
 10
-66.2306
 20
-2.27609
 10
-66.1678
 20
-2.52349
 10
-66.0985
 20
-2.76915
 10
-66.0228
 20
-3.01292
 10
-65.9408
 20
-3.25462
 10
-65.8524
 20
-3.49409
 10
-65.7578
 20
-3.73116
 10
-65.6571
 20
-3.96568
 10
-65.5502
 20
-4.19748
 10
-65.4373
 20
-4.42641
 10
-65.3185
 20
-4.6523
 10
-65.1937
 20
-4.875
 10
-65.0632
 20
-5.09436
 10
-64.927
 20
-5.31023
 10
-64.7852
 20
-5.52246
 10
-64.6379
 20
-5.73091
 10
-64.4852
 20
-5.93542
 10
-64.3272
 20
-6.13587
 10
-64.164
 20
-6.33212
 10
-63.9957
 20
-6.52402
 10
-63.8224
 20
-6.71146
 10
-63.6443
 20
-6.89429
 10
-63.4615
 20
-7.0724
 10
-63.274
 20
-7.24566
 10
-63.0821
 20
-7.41396
 10
-62.8859
 20
-7.57717
 10
-62.6854
 20
-7.7352
 10
-62.4809
 20
-7.88792
 10
-62.2725
 20
-8.03523
 10
-62.0602
 20
-8.17704
 10
-61.8444
 20
-8.31324
 10
-61.625
 20
-8.44375
 10
-61.4023
 20
-8.56847
 10
-61.1764
 20
-8.68731
 10
-60.9475
 20
-8.80021
 10
-60.7157
 20
-8.90707
 10
-60.4812
 20
-9.00783
 10
-60.2441
 20
-9.10241
 10
-60.0046
 20
-9.19075
 10
-59.7629
 20
-9.2728
 10
-59.5194
 20
-9.34843
 10
-59.5082
 20
-9.42518
 10
-59.2411
 20
-10.9797
 10
-58.9334
 20
-12.5267
 10
-58.5853
 20
-14.0651
 10
-58.197
 20
-15.5938
 10
-57.7689
 20
-17.1119
 10
-57.3012
 20
-18.6183
 10
-56.7941
 20
-20.1119
 10
-56.2482
 20
-21.5917
 10
-55.6637
 20
-23.0567
 10
-55.0411
 20
-24.5059
 10
-54.3808
 20
-25.9383
 10
-53.6831
 20
-27.3529
 10
-52.9487
 20
-28.7488
 10
-52.178
 20
-30.125
 10
-51.3716
 20
-31.4805
 10
-50.5299
 20
-32.8145
 10
-49.6536
 20
-34.126
 10
-48.7433
 20
-35.4141
 10
-47.7995
 20
-36.6779
 10
-46.823
 20
-37.9166
 10
-45.8145
 20
-39.1292
 10
-44.7745
 20
-40.3151
 10
-43.7038
 20
-41.4734
 10
-42.6032
 20
-42.6032
 10
-41.4734
 20
-43.7038
 10
-40.3151
 20
-44.7745
 10
-39.1292
 20
-45.8145
 10
-37.9166
 20
-46.823
 10
-36.6779
 20
-47.7995
 10
-35.4141
 20
-48.7433
 10
-34.126
 20
-49.6536
 10
-32.8145
 20
-50.5299
 10
-31.4805
 20
-51.3716
 10
-30.125
 20
-52.178
 10
-28.7488
 20
-52.9487
 10
-27.3529
 20
-53.6831
 10
-25.9383
 20
-54.3808
 10
-24.5059
 20
-55.0411
 10
-23.0567
 20
-55.6637
 10
-21.5917
 20
-56.2482
 10
-20.1119
 20
-56.7941
 10
-18.6183
 20
-57.3012
 10
-17.1119
 20
-57.7689
 10
-15.5938
 20
-58.197
 10
-14.0651
 20
-58.5853
 10
-12.5267
 20
-58.9334
 10
-10.9797
 20
-59.2411
 10
-9.42518
 20
-59.5082
 10
-9.34843
 20
-59.5194
 10
-9.2728
 20
-59.7629
 10
-9.19075
 20
-60.0046
 10
-9.10241
 20
-60.2441
 10
-9.00783
 20
-60.4812
 10
-8.90707
 20
-60.7157
 10
-8.80021
 20
-60.9475
 10
-8.68731
 20
-61.1764
 10
-8.56847
 20
-61.4023
 10
-8.44375
 20
-61.625
 10
-8.31324
 20
-61.8444
 10
-8.17704
 20
-62.0602
 10
-8.03523
 20
-62.2725
 10
-7.88792
 20
-62.4809
 10
-7.7352
 20
-62.6854
 10
-7.57717
 20
-62.8859
 10
-7.41396
 20
-63.0821
 10
-7.24566
 20
-63.274
 10
-7.0724
 20
-63.4615
 10
-6.89429
 20
-63.6443
 10
-6.71146
 20
-63.8224
 10
-6.52402
 20
-63.9957
 10
-6.33212
 20
-64.164
 10
-6.13587
 20
-64.3272
 10
-5.93542
 20
-64.4852
 10
-5.73091
 20
-64.6379
 10
-5.52246
 20
-64.7852
 10
-5.31023
 20
-64.927
 10
-5.09436
 20
-65.0632
 10
-4.875
 20
-65.1937
 10
-4.6523
 20
-65.3185
 10
-4.42641
 20
-65.4373
 10
-4.19748
 20
-65.5502
 10
-3.96568
 20
-65.6571
 10
-3.73116
 20
-65.7578
 10
-3.49409
 20
-65.8524
 10
-3.25462
 20
-65.9408
 10
-3.01292
 20
-66.0228
 10
-2.76915
 20
-66.0985
 10
-2.52349
 20
-66.1678
 10
-2.27609
 20
-66.2306
 10
-2.02714
 20
-66.2869
 10
-1.7768
 20
-66.3367
 10
-1.52524
 20
-66.38
 10
-1.27263
 20
-66.4166
 10
-1.01915
 20
-66.4466
 10
-0.764976
 20
-66.4699
 10
-0.510276
 20
-66.4866
 10
-0.255225
 20
-66.4967
 10
0
 20
-66.5
  0
LWPOLYLINE
100
AcDbEntity
  8
0
100
AcDbPolyline
 90
240
 70
1
 10
-1.39392
 20
-53.2318
 10
-2.78689
 20
-53.177
 10
-4.17795
 20
-53.0858
 10
-5.56614
 20
-52.9583
 10
-6.95052
 20
-52.7944
 10
-8.33014
 20
-52.5944
 10
-9.70404
 20
-52.3583
 10
-11.0713
 20
-52.0864
 10
-12.431
 20
-51.7787
 10
-13.7821
 20
-51.4356
 10
-15.1238
 20
-51.0572
 10
-16.4552
 20
-50.6438
 10
-17.7752
 20
-50.1957
 10
-19.0831
 20
-49.7132
 10
-20.3779
 20
-49.1966
 10
-21.6587
 20
-48.6463
 10
-22.9247
 20
-48.0627
 10
-24.175
 20
-47.4461
 10
-25.4087
 20
-46.797
 10
-26.625
 20
-46.1159
 10
-27.823
 20
-45.4031
 10
-29.002
 20
-44.6592
 10
-30.1611
 20
-43.8847
 10
-31.2996
 20
-43.0802
 10
-32.4165
 20
-42.2461
 10
-33.5113
 20
-41.383
 10
-34.5831
 20
-40.4916
 10
-35.6312
 20
-39.5725
 10
-36.6549
 20
-38.6262
 10
-37.6534
 20
-37.6534
 10
-38.6262
 20
-36.6549
 10
-39.5725
 20
-35.6312
 10
-40.4916
 20
-34.5831
 10
-41.383
 20
-33.5113
 10
-42.2461
 20
-32.4165
 10
-43.0802
 20
-31.2996
 10
-43.8847
 20
-30.1611
 10
-44.6592
 20
-29.002
 10
-45.4031
 20
-27.823
 10
-46.1159
 20
-26.625
 10
-46.797
 20
-25.4087
 10
-47.4461
 20
-24.175
 10
-48.0627
 20
-22.9247
 10
-48.6463
 20
-21.6587
 10
-49.1966
 20
-20.3779
 10
-49.7132
 20
-19.0831
 10
-50.1957
 20
-17.7752
 10
-50.6438
 20
-16.4552
 10
-51.0572
 20
-15.1238
 10
-51.4356
 20
-13.7821
 10
-51.7787
 20
-12.431
 10
-52.0864
 20
-11.0713
 10
-52.3583
 20
-9.70404
 10
-52.5944
 20
-8.33014
 10
-52.7944
 20
-6.95052
 10
-52.9583
 20
-5.56614
 10
-53.0858
 20
-4.17795
 10
-53.177
 20
-2.78689
 10
-53.2318
 20
-1.39392
 10
-53.25
 20
0
 10
-53.2318
 20
1.39392
 10
-53.177
 20
2.78689
 10
-53.0858
 20
4.17795
 10
-52.9583
 20
5.56614
 10
-52.7944
 20
6.95052
 10
-52.5944
 20
8.33014
 10
-52.3583
 20
9.70404
 10
-52.0864
 20
11.0713
 10
-51.7787
 20
12.431
 10
-51.4356
 20
13.7821
 10
-51.0572
 20
15.1238
 10
-50.6438
 20
16.4552
 10
-50.1957
 20
17.7752
 10
-49.7132
 20
19.0831
 10
-49.1966
 20
20.3779
 10
-48.6463
 20
21.6587
 10
-48.0627
 20
22.9247
 10
-47.4461
 20
24.175
 10
-46.797
 20
25.4087
 10
-46.1159
 20
26.625
 10
-45.4031
 20
27.823
 10
-44.6592
 20
29.002
 10
-43.8847
 20
30.1611
 10
-43.0802
 20
31.2996
 10
-42.2461
 20
32.4165
 10
-41.383
 20
33.5113
 10
-40.4916
 20
34.5831
 10
-39.5725
 20
35.6312
 10
-38.6262
 20
36.6549
 10
-37.6534
 20
37.6534
 10
-36.6549
 20
38.6262
 10
-35.6312
 20
39.5725
 10
-34.5831
 20
40.4916
 10
-33.5113
 20
41.383
 10
-32.4165
 20
42.2461
 10
-31.2996
 20
43.0802
 10
-30.1611
 20
43.8847
 10
-29.002
 20
44.6592
 10
-27.823
 20
45.4031
 10
-26.625
 20
46.1159
 10
-25.4087
 20
46.797
 10
-24.175
 20
47.4461
 10
-22.9247
 20
48.0627
 10
-21.6587
 20
48.6463
 10
-20.3779
 20
49.1966
 10
-19.0831
 20
49.7132
 10
-17.7752
 20
50.1957
 10
-16.4552
 20
50.6438
 10
-15.1238
 20
51.0572
 10
-13.7821
 20
51.4356
 10
-12.431
 20
51.7787
 10
-11.0713
 20
52.0864
 10
-9.70404
 20
52.3583
 10
-8.33014
 20
52.5944
 10
-6.95052
 20
52.7944
 10
-5.56614
 20
52.9583
 10
-4.17795
 20
53.0858
 10
-2.78689
 20
53.177
 10
-1.39392
 20
53.2318
 10
0
 20
53.25
 10
1.39392
 20
53.2318
 10
2.78689
 20
53.177
 10
4.17795
 20
53.0858
 10
5.56614
 20
52.9583
 10
6.95052
 20
52.7944
 10
8.33014
 20
52.5944
 10
9.70404
 20
52.3583
 10
11.0713
 20
52.0864
 10
12.431
 20
51.7787
 10
13.7821
 20
51.4356
 10
15.1238
 20
51.0572
 10
16.4552
 20
50.6438
 10
17.7752
 20
50.1957
 10
19.0831
 20
49.7132
 10
20.3779
 20
49.1966
 10
21.6587
 20
48.6463
 10
22.9247
 20
48.0627
 10
24.175
 20
47.4461
 10
25.4087
 20
46.797
 10
26.625
 20
46.1159
 10
27.823
 20
45.4031
 10
29.002
 20
44.6592
 10
30.1611
 20
43.8847
 10
31.2996
 20
43.0802
 10
32.4165
 20
42.2461
 10
33.5113
 20
41.383
 10
34.5831
 20
40.4916
 10
35.6312
 20
39.5725
 10
36.6549
 20
38.6262
 10
37.6534
 20
37.6534
 10
38.6262
 20
36.6549
 10
39.5725
 20
35.6312
 10
40.4916
 20
34.5831
 10
41.383
 20
33.5113
 10
42.2461
 20
32.4165
 10
43.0802
 20
31.2996
 10
43.8847
 20
30.1611
 10
44.6592
 20
29.002
 10
45.4031
 20
27.823
 10
46.1159
 20
26.625
 10
46.797
 20
25.4087
 10
47.4461
 20
24.175
 10
48.0627
 20
22.9247
 10
48.6463
 20
21.6587
 10
49.1966
 20
20.3779
 10
49.7132
 20
19.0831
 10
50.1957
 20
17.7752
 10
50.6438
 20
16.4552
 10
51.0572
 20
15.1238
 10
51.4356
 20
13.7821
 10
51.7787
 20
12.431
 10
52.0864
 20
11.0713
 10
52.3583
 20
9.70404
 10
52.5944
 20
8.33014
 10
52.7944
 20
6.95052
 10
52.9583
 20
5.56614
 10
53.0858
 20
4.17795
 10
53.177
 20
2.78689
 10
53.2318
 20
1.39392
 10
53.25
 20
0
 10
53.2318
 20
-1.39392
 10
53.177
 20
-2.78689
 10
53.0858
 20
-4.17795
 10
52.9583
 20
-5.56614
 10
52.7944
 20
-6.95052
 10
52.5944
 20
-8.33014
 10
52.3583
 20
-9.70404
 10
52.0864
 20
-11.0713
 10
51.7787
 20
-12.431
 10
51.4356
 20
-13.7821
 10
51.0572
 20
-15.1238
 10
50.6438
 20
-16.4552
 10
50.1957
 20
-17.7752
 10
49.7132
 20
-19.0831
 10
49.1966
 20
-20.3779
 10
48.6463
 20
-21.6587
 10
48.0627
 20
-22.9247
 10
47.4461
 20
-24.175
 10
46.797
 20
-25.4087
 10
46.1159
 20
-26.625
 10
45.4031
 20
-27.823
 10
44.6592
 20
-29.002
 10
43.8847
 20
-30.1611
 10
43.0802
 20
-31.2996
 10
42.2461
 20
-32.4165
 10
41.383
 20
-33.5113
 10
40.4916
 20
-34.5831
 10
39.5725
 20
-35.6312
 10
38.6262
 20
-36.6549
 10
37.6534
 20
-37.6534
 10
36.6549
 20
-38.6262
 10
35.6312
 20
-39.5725
 10
34.5831
 20
-40.4916
 10
33.5113
 20
-41.383
 10
32.4165
 20
-42.2461
 10
31.2996
 20
-43.0802
 10
30.1611
 20
-43.8847
 10
29.002
 20
-44.6592
 10
27.823
 20
-45.4031
 10
26.625
 20
-46.1159
 10
25.4087
 20
-46.797
 10
24.175
 20
-47.4461
 10
22.9247
 20
-48.0627
 10
21.6587
 20
-48.6463
 10
20.3779
 20
-49.1966
 10
19.0831
 20
-49.7132
 10
17.7752
 20
-50.1957
 10
16.4552
 20
-50.6438
 10
15.1238
 20
-51.0572
 10
13.7821
 20
-51.4356
 10
12.431
 20
-51.7787
 10
11.0713
 20
-52.0864
 10
9.70404
 20
-52.3583
 10
8.33014
 20
-52.5944
 10
6.95052
 20
-52.7944
 10
5.56614
 20
-52.9583
 10
4.17795
 20
-53.0858
 10
2.78689
 20
-53.177
 10
1.39392
 20
-53.2318
 10
0
 20
-53.25
  0
ENDSEC
  0
EOF
